<?xml version="1.0" standalone="no"?><!-- Generator: Gravit.io --><svg xmlns="http://www.w3.org/2000/svg" xmlns:xlink="http://www.w3.org/1999/xlink" style="isolation:isolate" viewBox="0 0 608 117" width="608" height="117"><defs><clipPath id="_clipPath_hYqasNRw5HbpdQsto3oNZsiFwWWQiOuU"><rect width="608" height="117"/></clipPath></defs><g clip-path="url(#_clipPath_hYqasNRw5HbpdQsto3oNZsiFwWWQiOuU)"><path d=" M 29.77 0 L 63.4 0 C 64.18 6.12 64.95 12.24 65.74 18.36 C 57.27 21.42 49.01 25.07 41.04 29.27 C 40.82 26.3 40.58 23.34 40.34 20.37 C 39.52 22.35 38.71 24.33 37.9 26.3 C 31.21 26.5 24.52 26.7 17.82 26.9 C 21.83 17.94 25.63 8.89 29.77 0 Z " fill="rgb(34,154,56)"/><path d=" M 240 12.98 C 242.67 11.05 245.43 8.46 248.99 8.91 C 259.2 9.16 269.48 8.53 279.65 9.22 C 287.24 14.83 290.19 25 288.91 34.09 C 287 48.14 277.56 60.97 264.89 67.22 C 254.28 67.62 243.64 67.22 233.02 67.4 C 227.16 63.06 223.34 56.22 222.84 48.92 C 221.65 34.97 229.21 21.41 240 12.98 Z  M 274.34 22.51 C 267.07 25.19 262.18 31.86 258.44 38.34 C 255.47 44.12 252.53 50.92 254.49 57.47 C 255.76 61.21 260.53 61.13 263.36 59.3 C 270.99 54.9 276.1 47.12 279.42 39.15 C 281.03 34.76 282.49 29.77 280.84 25.18 C 279.93 22.59 276.8 21.58 274.34 22.51 Z " fill="rgb(34,154,56)"/><path d=" M 387.7 9.73 C 389.96 8.59 392.57 9.08 395.01 8.98 C 402.81 9.14 411.07 8.22 418.37 11.59 C 420.76 12.63 422.9 15.25 421.86 17.98 C 420.35 22.07 418.98 26.62 415.41 29.41 C 411.37 32.96 406.14 34.76 400.87 35.44 C 405.08 35.64 412.08 37.52 410.81 43.1 C 408.53 49.74 404.71 55.77 402.52 62.44 C 401.92 64.01 402.76 65.52 403.4 66.92 C 395.61 66.69 387.82 66.91 380.03 66.78 C 377.99 58.42 384.12 51.4 386.66 43.92 C 386.72 40.35 380.93 39.74 379.87 42.98 C 376.25 50.84 372.88 58.82 369.37 66.74 C 361.23 66.78 353.09 66.75 344.95 66.75 C 351.73 51.32 358.49 35.88 365.32 20.46 C 372.81 16.94 380.23 13.28 387.7 9.73 Z  M 390.14 21.09 C 388.3 22.78 387.19 25.45 387.03 27.92 C 388.07 30.83 392.78 30.88 393.85 27.97 C 394.66 25.96 396.74 23.22 394.59 21.41 C 393.33 20.44 391.52 20.27 390.14 21.09 Z " fill="rgb(34,154,56)"/><path d=" M 122.39 10.44 C 124.61 9.26 127.2 9.7 129.61 9.58 C 123.56 23.51 117.29 37.34 111.28 51.28 C 109.27 55.26 116.34 57.77 117.95 54 C 122.96 43.17 127.63 32.18 132.42 21.25 C 139.76 17.61 147.17 14.12 154.54 10.54 C 156.82 9.26 159.5 9.69 162 9.57 C 155.19 25.18 148.3 40.76 141.46 56.36 C 139.37 61.31 134.02 63.63 129.25 65.22 C 119.13 68.21 108.39 68.23 97.97 67.38 C 93.5 66.75 88.6 66.02 85.14 62.87 C 83.34 61.26 83.46 58.61 84.48 56.6 C 89.67 44.78 94.91 32.98 100.11 21.16 C 107.54 17.59 114.95 13.99 122.39 10.44 Z " fill="rgb(34,154,56)"/><path d=" M 161.37 18.12 C 167.21 15.35 172.87 12.15 178.87 9.76 C 197.92 9.44 217 9.72 236.06 9.63 C 236.06 10.41 236.06 11.97 236.05 12.75 C 231.01 15.42 226.24 18.64 221.05 21.03 C 216.03 21.45 210.98 21.07 205.95 21.19 C 199.2 36.56 192.32 51.88 185.69 67.3 C 177.52 67.46 169.34 67.34 161.17 67.37 C 167.95 51.97 174.74 36.58 181.52 21.19 C 174.77 21.17 168.02 21.23 161.27 21.15 C 161.29 20.39 161.34 18.88 161.37 18.12 Z " fill="rgb(34,154,56)"/><path d=" M 317.7 12.87 C 320.7 11.57 323.56 9.37 326.99 9.61 C 334.35 9.64 341.7 9.61 349.06 9.62 C 352.02 9.63 355.49 10.26 357.23 12.93 C 358.96 15.74 356.34 18.6 355.42 21.23 C 347.93 21.2 340.43 21.12 332.94 21.23 C 328.93 21.21 324.84 23.45 323.4 27.33 C 319.44 36.39 315.3 45.38 311.45 54.48 C 310.53 56.6 313.11 58.5 315.06 58.08 C 317.04 58.05 317.85 56.08 318.54 54.57 C 320.97 49.06 323.4 43.55 325.86 38.05 C 333.26 38.06 340.66 38.05 348.06 38.06 C 344.61 45.93 341.16 53.81 337.7 61.69 C 336.57 64.82 333.36 66.84 330.08 66.86 C 324.44 66.98 318.8 66.81 313.16 66.9 C 313.35 66.27 313.73 64.99 313.93 64.35 C 311.15 65.75 308.23 67.16 305.03 66.91 C 299.22 66.73 292.77 67.79 287.63 64.38 C 285.08 62.79 284.5 59.33 285.86 56.77 C 291.25 44.78 296.28 32.6 301.88 20.72 C 306.93 17.7 312.47 15.57 317.7 12.87 Z " fill="rgb(34,154,56)"/><path d=" M 431.19 21.16 C 439.19 17.43 447.01 13.3 455.11 9.82 C 464.59 9.35 474.12 9.76 483.61 9.63 C 481.96 13.47 480.27 17.28 478.67 21.14 C 470.96 21.27 463.25 21.12 455.55 21.23 C 453.92 25.06 452.22 28.86 450.56 32.68 C 457.45 32.7 464.35 32.68 471.25 32.69 C 469.54 36.57 467.82 40.44 466.1 44.31 C 459.22 44.31 452.33 44.31 445.44 44.31 C 443.76 48.13 442.08 51.93 440.43 55.75 C 448.17 55.75 455.91 55.75 463.66 55.76 C 461.96 59.64 460.25 63.52 458.51 67.39 C 442.65 67.36 426.8 67.38 410.94 67.38 C 417.58 51.93 424.47 36.58 431.19 21.16 Z " fill="rgb(34,154,56)"/><path d=" M 486.09 21.14 C 494.11 17.43 501.94 13.25 510.07 9.8 C 519.53 9.37 529.02 9.75 538.5 9.63 C 536.84 13.46 535.15 17.28 533.54 21.14 C 525.85 21.26 518.15 21.14 510.45 21.21 C 508.79 25.04 507.1 28.86 505.43 32.68 C 512.33 32.7 519.23 32.68 526.13 32.69 C 524.41 36.57 522.7 40.44 520.97 44.31 C 514.08 44.31 507.2 44.31 500.32 44.31 C 498.64 48.12 496.96 51.93 495.29 55.74 C 503.04 55.77 510.78 55.74 518.53 55.76 C 516.84 59.64 515.13 63.51 513.4 67.38 C 497.52 67.37 481.64 67.38 465.76 67.37 C 472.53 51.96 479.31 36.55 486.09 21.14 Z " fill="rgb(34,154,56)"/><path d=" M 561.98 10.77 C 565.43 8.86 569.49 9.82 573.25 9.63 C 574.04 18.34 574.8 27.05 575.6 35.75 C 579.45 27.06 583.23 18.33 587.07 9.63 C 593.87 9.62 600.67 9.62 607.48 9.63 C 598.98 28.88 590.5 48.13 581.99 67.37 C 573.66 67.37 565.33 67.38 556.99 67.37 C 555.99 57.22 555.09 47.05 554.04 36.9 C 549.47 47.04 545.09 57.27 540.5 67.4 C 533.71 67.35 526.93 67.39 520.15 67.37 C 526.89 51.98 533.71 36.62 540.42 21.21 C 547.58 17.68 554.81 14.3 561.98 10.77 Z " fill="rgb(34,154,56)"/><path d=" M 44.33 34.32 C 63.38 24.72 83.98 17.72 105.24 15.38 C 86.55 20.83 69.43 30.58 53.13 41.04 C 41.44 48.73 30.3 57.31 20.54 67.35 C 13.75 67.22 6.96 67.28 0.17 67.32 C 5.12 55.94 10.29 44.66 15.11 33.24 C 21.78 33.6 28.39 32.57 35.05 32.52 C 33.89 35.78 32.96 39.21 30.67 41.9 C 35.56 40.03 39.57 36.49 44.33 34.32 Z " fill="rgb(34,24,21)"/><path d=" M 43.08 55.91 C 51.11 49.67 59.54 43.95 68.35 38.86 C 69.56 48.36 70.76 57.87 71.98 67.37 C 62.64 67.38 53.31 67.38 43.97 67.37 C 43.67 63.55 43.38 59.73 43.08 55.91 Z " fill="rgb(34,154,56)"/><path d=" M 553.31 77.3 C 558.82 76.71 564.85 76.6 569.93 79.14 C 573.31 80.98 572.61 85.43 571.22 88.35 C 566.36 88.9 561.46 88.38 556.59 88.61 C 556.68 87.15 558.35 84.6 556.01 84.11 C 552.95 83.06 547.93 86.45 550.29 89.71 C 554.76 93.05 561.31 92.48 565.29 96.68 C 568.11 100.29 565.41 104.99 563.14 108.14 C 558.03 114.91 548.87 116.08 540.98 116.2 C 536.13 116.08 530.65 116.47 526.56 113.41 C 523.71 111.01 525.34 107.08 526.31 104.16 C 531.38 104.06 536.47 104.17 541.55 104.06 C 541.26 105.57 540 107.3 541.16 108.73 C 544.56 110.53 550.04 107.17 548.66 103.28 C 543.83 99.88 536.61 100.04 533.01 94.92 C 532.06 90.9 534.29 85.76 538.35 84.31 C 543.38 82.07 548.19 79.34 553.31 77.3 Z " fill="rgb(34,154,56)"/><path d=" M 373.9 80.86 C 376.86 79.59 379.67 77.41 383.06 77.67 C 394.78 77.73 406.51 77.63 418.23 77.73 C 417.78 81.11 413.8 81.71 411.46 83.46 C 407.61 86.32 402.67 85.1 398.22 85.3 C 393.77 95.33 389.36 105.39 384.92 115.44 C 379.6 115.44 374.28 115.44 368.96 115.44 C 373.36 105.39 377.82 95.37 382.21 85.32 C 377.7 85.3 373.2 85.35 368.69 85.27 C 368.87 82.49 371.94 82.03 373.9 80.86 Z " fill="rgb(34,154,56)"/><path d=" M 416.36 83.14 C 419.65 81.45 422.71 79.32 426.12 77.86 C 428.18 77.55 430.28 77.69 432.36 77.66 C 431.92 82.09 431.42 86.51 431.02 90.94 C 434.58 86.51 438.16 82.09 441.76 77.68 C 447.43 77.7 453.1 77.68 458.77 77.69 C 450.94 85.24 442.88 92.57 435.12 100.19 C 432.11 104.93 430.48 110.42 427.99 115.44 C 422.77 115.44 417.55 115.44 412.33 115.43 C 414.35 110.35 417.11 105.53 418.74 100.32 C 418.25 94.56 417 88.89 416.36 83.14 Z " fill="rgb(34,154,56)"/><path d=" M 456.2 85.22 C 461.49 82.84 466.55 79.93 471.96 77.85 C 478.37 77.72 485.34 76.83 491.3 79.7 C 494.37 81.11 492.97 84.71 491.81 86.96 C 489.93 91.73 484.81 94.21 479.98 94.85 C 482.29 95.53 485.82 96.04 486.02 99.04 C 485 104.8 480.01 109.45 480.5 115.52 C 475.55 115.38 470.61 115.46 465.66 115.44 C 464.63 109.76 468.64 105.17 470.19 100.04 C 469.5 98.26 466.68 97.85 465.86 99.71 C 463.33 104.83 461.26 110.17 458.87 115.37 C 453.56 115.38 448.24 115.38 442.93 115.37 C 447.35 105.32 451.75 95.26 456.2 85.22 Z  M 469.97 90.21 C 471.28 90.94 473.27 92.4 474.48 90.63 C 475.41 89.09 477.05 86.31 474.51 85.37 C 471.51 84.6 470.99 88.31 469.97 90.21 Z " fill="rgb(34,154,56)"/><path d=" M 511.57 79.42 C 513.28 78.64 515 77.62 516.95 77.7 C 522.57 77.63 528.19 77.72 533.81 77.7 C 532.7 80.25 531.6 82.79 530.47 85.33 C 525.47 85.3 520.47 85.31 515.48 85.32 C 514.38 87.82 513.28 90.31 512.19 92.81 C 516.7 92.81 521.21 92.81 525.72 92.81 C 524.6 95.34 523.47 97.87 522.34 100.39 C 517.83 100.37 513.32 100.35 508.82 100.42 C 507.75 102.91 506.66 105.39 505.57 107.87 C 510.63 107.88 515.69 107.87 520.75 107.88 C 519.64 110.4 518.52 112.92 517.4 115.45 C 507.02 115.43 496.65 115.45 486.27 115.43 C 490.65 105.39 495.13 95.39 499.47 85.33 C 503.48 83.32 507.55 81.42 511.57 79.42 Z " fill="rgb(34,154,56)"/></g></svg>