<?xml version="1.0" encoding="UTF-8" standalone="no"?>
<!-- Created with Inkscape (http://www.inkscape.org/) -->

<svg
   xmlns:dc="http://purl.org/dc/elements/1.1/"
   xmlns:cc="http://creativecommons.org/ns#"
   xmlns:rdf="http://www.w3.org/1999/02/22-rdf-syntax-ns#"
   xmlns:svg="http://www.w3.org/2000/svg"
   xmlns="http://www.w3.org/2000/svg"
   xmlns:sodipodi="http://sodipodi.sourceforge.net/DTD/sodipodi-0.dtd"
   xmlns:inkscape="http://www.inkscape.org/namespaces/inkscape"
   width="735"
   height="105"
   viewBox="0 0 735 105"
   id="svg3546"
   version="1.1"
   inkscape:version="0.91pre3 r13670"
   sodipodi:docname="bridgestone.svg">
  <defs
     id="defs3548" />
  <sodipodi:namedview
     id="base"
     pagecolor="#ffffff"
     bordercolor="#666666"
     borderopacity="1.0"
     inkscape:pageopacity="0.0"
     inkscape:pageshadow="2"
     inkscape:zoom="0.7"
     inkscape:cx="390.95836"
     inkscape:cy="172.44208"
     inkscape:document-units="px"
     inkscape:current-layer="layer1"
     showgrid="false"
     units="px"
     inkscape:window-width="1366"
     inkscape:window-height="715"
     inkscape:window-x="-8"
     inkscape:window-y="-8"
     inkscape:window-maximized="1" />
  <metadata
     id="metadata3551">
    <rdf:RDF>
      <cc:Work
         rdf:about="">
        <dc:format>image/svg+xml</dc:format>
        <dc:type
           rdf:resource="http://purl.org/dc/dcmitype/StillImage" />
        <dc:title></dc:title>
      </cc:Work>
    </rdf:RDF>
  </metadata>
  <g
     inkscape:label="Layer 1"
     inkscape:groupmode="layer"
     id="layer1"
     transform="translate(0,-947.36216)">
    <g
       id="g3627"
       transform="matrix(0.37357888,0,0,0.37357888,235.55985,944.61796)">
      <path
         id="path3625"
         d="m -623.85713,273.11626 c 0,-0.55609 162.12512,-152.04311 163.15012,-152.44476 0.46818,-0.18346 0.63676,0.26654 0.37461,1 -0.7089,1.98342 -29.52473,105.77464 -29.52473,106.3446 0,0.26893 5.19293,0.48896 11.53984,0.48896 9.51198,0 12.21913,-0.34655 15.40547,-1.9721 4.20789,-2.14671 7.15736,-5.37936 8.88401,-9.73697 0.60823,-1.53501 12.60609,-43.51593 26.66192,-93.29093 14.05582,-49.775 26.25238,-92.92926 27.10346,-95.89835 l 1.54742,-5.39834 11.30413,0.64562 c 26.79043,1.53012 47.5736,8.8286 54.76275,19.23119 5.22157,7.55553 6.2049,11.74995 6.19379,26.41988 -0.0129,17.10776 -3.16915,29.82529 -10.65435,42.93042 -7.97506,13.96277 -27.30693,26.46468 -49.66783,32.12015 l -4.41938,1.11774 5.44355,2.21242 c 11.47936,4.66557 22.90231,14.71361 27.30367,24.01732 4.40332,9.30786 5.29888,17.79005 3.20431,30.34907 -6.18235,37.06929 -22.30565,58.2644 -51.11276,67.19101 -15.81696,4.90128 -19.39021,5.04967 -121.75,5.05597 -52.6625,0.003 -95.75,-0.16906 -95.75,-0.3829 z"
         style="fill-opacity:1"
         inkscape:connector-curvature="0" />
      <path
         id="path3623"
         d="m -353.56255,272.17978 c 0.27971,-0.72891 13.18103,-46.06641 28.66961,-100.75 15.48857,-54.6836 28.5294,-99.79876 28.97962,-100.25591 0.45022,-0.45716 25.73454,-0.65012 56.18738,-0.42881 52.86265,0.38417 55.72102,0.49951 63.15034,2.54834 19.5559,5.39306 26.54179,11.84533 28.60594,26.42088 1.01341,7.15595 0.33277,12.59877 -3.26663,26.12221 -3.5143,13.20368 -8.02755,24.32628 -12.13533,29.90674 -5.72183,7.77315 -15.10198,12.5107 -26.69507,13.48262 -3.73474,0.31311 -6.79044,0.7724 -6.79044,1.02065 0,0.24825 3.64546,4.34548 8.10103,9.10496 16.94341,18.09913 16.90725,17.62221 4.58339,60.44659 -5.19038,18.03614 -9.64904,33.00496 -9.90813,33.26405 -0.25908,0.25909 -14.85921,0.35224 -32.44473,0.20701 l -31.97366,-0.26405 24.31858,-87.5 c 13.37522,-48.125 25.39944,-91.43609 26.72048,-96.24686 1.42845,-5.20189 1.93606,-8.4688 1.25247,-8.06077 -3.35154,2.00053 -27.39703,20.2694 -28.84227,21.91328 -4.35724,4.95611 -9.37169,20.4366 -30.03237,92.71507 l -22.20449,77.67928 -33.39214,0 c -27.31451,0 -33.29958,-0.24121 -32.88358,-1.32528 z"
         style="fill-opacity:1"
         inkscape:connector-curvature="0" />
      <path
         id="path3621"
         d="m -164.38998,270.75506 c 2.59263,-10.42405 53.75064,-196.20979 54.52134,-198 l 0.96863,-2.25 32.52144,0 c 25.33025,0 32.52983,0.2764 32.55939,1.25 0.0209,0.6875 -12.69163,46.35932 -28.25,101.49294 l -28.28795,100.24295 -32.35841,0.007 -32.35841,0.007 0.68397,-2.75 z"
         style="fill-opacity:1"
         inkscape:connector-curvature="0" />
      <path
         id="path3619"
         d="m -65.83209,272.30699 c 0.0138,-0.71606 12.78998,-46.30193 28.39156,-101.30193 l 28.3665,-100 51.35845,0 c 57.79234,0 55.8023,-0.21781 71.35845,7.81033 10.40688,5.37073 17.57131,12.41772 20.05035,19.72168 3.80821,11.22011 3.1654,14.95103 -12.97268,75.29401 -8.06444,30.15431 -15.61065,57.37931 -16.76935,60.5 -6.58352,17.7312 -21.30507,29.87857 -43.56962,35.95108 l -9.7387,2.65617 -58.25,0.3353 c -47.35364,0.27257 -58.24532,0.0918 -58.22496,-0.96664 z"
         style="fill-opacity:1"
         inkscape:connector-curvature="0" />
      <path
         id="path3617"
         d="m 20.34365,233.39664 c 10.05463,-2.1031 16.73178,-6.98745 21.04107,-15.39158 1.28654,-2.50907 38.75815,-134.83964 38.75815,-136.87399 0,-0.36986 -6.1875,4.20638 -13.75,10.16941 -14.63453,11.53934 -19.6667,17.3569 -23.21349,26.83654 -1.57801,4.21762 -28.82453,102.224 -31.58667,113.61804 -0.78215,3.22642 0.24912,3.41988 8.75094,1.64158 z"
         style="fill-opacity:1"
         inkscape:connector-curvature="0" />
      <path
         id="path3615"
         d="m 160.40742,271.96347 c -11.87836,-3.19899 -20.13061,-9.6814 -24.55496,-19.28874 -1.78415,-3.87422 -2.15241,-6.54344 -2.16188,-15.66967 l -0.0114,-11 16.82292,-61 c 18.0768,-65.54656 19.36204,-69.12602 27.87815,-77.64213 13.20766,-13.20766 34.76247,-17.444 84.65143,-16.63722 23.576,0.38125 26.1473,0.59869 32.3573,2.73618 15.1693,5.22126 24.2107,14.29402 26.8337,26.92667 1.6554,7.9728 0.6646,22.28343 -2.0334,29.3665 l -2.1901,5.75 -33.3968,0 c -26.2869,0 -33.3025,-0.26611 -32.9539,-1.25 1.4031,-3.9605 15.4324,-53.14538 15.2196,-53.3581 -0.3885,-0.38858 -26.5118,19.02949 -29.6665,22.05184 -1.516,1.45248 -3.7368,4.75934 -4.9349,7.34857 -1.715,3.70613 -28.39798,102.91339 -30.78132,114.44489 -1.56488,7.57152 2.59432,10.1303 15.56896,9.57818 l 7.41146,-0.31538 9.6856,-34.26373 c 5.3271,-18.84505 9.9108,-34.48888 10.186,-34.76406 0.2751,-0.27517 14.872,-0.38149 32.4375,-0.23626 l 31.9373,0.26405 -13.2291,50.5 c -7.276,27.775 -13.7221,52.1875 -14.3248,54.25 l -1.0957,3.75 -57.2098,-0.0658 c -45.92683,-0.0528 -58.24245,-0.34389 -62.44535,-1.47578 z"
         style="fill-opacity:1"
         inkscape:connector-curvature="0" />
      <path
         id="path3613"
         d="m 346.76057,272.39808 c -6.3603,-1.50188 -15.4901,-6.94118 -19.7238,-11.75092 -5.8974,-6.69981 -10.1015,-16.22964 -10.6296,-24.0953 -0.4059,-6.04581 0.832,-11.17648 16.1757,-67.0468 9.1383,-33.275 17.8848,-63.2 19.4364,-66.5 6.405,-13.62143 17.6877,-23.69579 31.3834,-28.02226 11.2591,-3.55675 25.1456,-4.42821 70.9902,-4.45505 35.4199,-0.0207 38.75,0.11972 38.75,1.63444 0,0.91142 -1.8306,8.67392 -4.0681,17.25 -2.2374,8.57608 -4.5047,17.28037 -5.0385,19.34287 l -0.9705,3.75 -30.5603,0 c -33.7995,0 -35.0156,0.19508 -38.9927,6.25457 -2.6436,4.02769 -14.7937,44.19856 -13.9967,46.27568 1.1764,3.06559 3.5558,2.44939 12.7388,-3.29897 15.0628,-9.4291 15.4741,-9.53715 38.138,-10.01957 10.8625,-0.23122 19.75,-0.0652 19.75,0.36891 0,0.43412 -2.3526,9.48107 -5.228,20.10434 l -5.2279,19.31504 -34.148,0 -34.148,0 -3.6241,14.47694 c -1.9932,7.96232 -3.624,15.51674 -3.624,16.78759 0,1.43559 1.8119,4.09529 4.7843,7.02306 l 4.7844,4.71241 26.7156,0 c 14.6937,0 26.6982,0.1125 26.6768,0.25 -0.021,0.1375 -2.3957,8.8 -5.2762,19.25 l -5.2372,19 -42.9738,0.15488 c -23.6357,0.0852 -44.7209,-0.25765 -46.8562,-0.76186 z"
         style="fill-opacity:1"
         inkscape:connector-curvature="0" />
      <path
         id="path3611"
         d="m 499.37297,271.95466 c -13.8679,-3.73359 -21.9307,-11.51607 -25.7706,-24.87464 -2.2489,-7.8236 -1.6059,-15.76612 2.5361,-31.32496 l 3.2611,-12.25 32.8717,0 c 30.6443,0 32.8708,0.11857 32.8592,1.75 -0.01,0.9625 -1.1965,5.8 -2.6437,10.75 -3.5552,12.16042 -3.5722,15.20873 -0.1,17.81918 3.3538,2.52106 10.9275,2.67753 15.4866,0.31993 4.3733,-2.26151 8.9057,-8.13933 10.1807,-13.20262 1.868,-7.41862 1.401,-16.7692 -0.9893,-19.80795 -3.0335,-3.85655 -4.2287,-4.29307 -21.0416,-7.68506 -25.639,-5.17266 -37.8899,-9.99833 -44.0869,-17.36584 -6.1862,-7.35471 -7.6852,-22.76737 -3.8494,-39.57764 8.1206,-35.58792 15.9129,-49.86753 31.3839,-57.51171 12.522,-6.1871 21.864,-7.53437 56.6716,-8.17294 44.65076,-0.81915 53.16196,0.73597 63.29036,11.56403 9.2938,9.93586 12.7155,21.52859 10.8918,36.9024 -0.5687,4.79502 -1.5063,9.95572 -2.0834,11.46822 l -1.0493,2.75 -32.0247,0 c -21.7257,0 -32.0243,-0.3381 -32.0243,-1.05136 0,-0.57825 2.925,-11.97939 6.5,-25.33588 3.575,-13.35648 6.5,-24.79994 6.5,-25.42991 0,-0.62998 -5.8378,3.15472 -12.9729,8.41044 -13.68706,10.08193 -15.44096,12.15223 -22.79486,26.90671 -5.1794,10.39182 -5.1527,22.5617 0.057,25.93813 1.2159,0.78803 8.0607,2.37265 15.2107,3.52137 47.79486,7.67879 58.66926,16.66457 55.42096,45.79562 -1.8215,16.33531 -10.99,50.5098 -15.3579,57.24488 -7.6765,11.83661 -22.1201,19.14473 -44.56306,22.54773 -13.3239,2.0203 -74.1725,1.94727 -81.7699,-0.0981 z"
         style="fill-opacity:1"
         inkscape:connector-curvature="0" />
      <path
         id="path3609"
         d="m 659.07923,267.25506 c 26.7973,-93.29065 34.7204,-120.06375 36.6851,-123.96308 3.4411,-6.82933 6.886,-10.36532 20.3503,-20.88846 l 12.0253,-9.39846 -28.9985,-0.2651 c -15.9492,-0.14581 -28.9986,-0.65845 -28.9986,-1.13921 0,-1.24603 10.0678,-39.39642 10.6417,-40.32496 0.262,-0.4239 30.6355,-0.77073 67.4968,-0.77073 l 67.0204,0 -0.6165,2.75 c -0.339,1.5125 -2.7406,10.85 -5.3369,20.75 l -4.7204,18 -18.0598,0.27185 -18.0598,0.27185 -22.3468,80.47815 -22.3467,80.47815 -33.2654,0 -33.2654,0 1.7952,-6.25 z"
         style="fill-opacity:1"
         inkscape:connector-curvature="0" />
      <path
         id="path3607"
         d="m 809.54113,271.65538 c -20.664,-6.05007 -31.273,-23.82522 -26.0622,-43.66676 0.8643,-3.29096 8.5545,-31.40856 17.0894,-62.48356 16.7738,-61.07225 18.6335,-66.22302 27.4852,-76.12638 13.9407,-15.59697 31.695,-19.71757 80.0893,-18.58792 24.0117,0.56049 27.2631,1.19721 40.123,7.85716 18.2531,9.45306 24.7314,20.89822 21.9555,38.78894 -1.7554,11.31377 -31.826,115.59378 -35.6812,123.73647 -6.6878,14.12564 -20.763,24.39075 -40.3973,29.46191 -7.8222,2.02031 -11.2911,2.21976 -43.5,2.501 -31.2362,0.27276 -35.6562,0.11351 -41.1017,-1.48086 z"
         style="fill-opacity:1"
         inkscape:connector-curvature="0" />
      <path
         id="path3605"
         d="m 864.96333,233.92362 c 4.3125,-1.87029 6.4053,-3.45434 7.5968,-5.75 1.601,-3.08463 42.5827,-144.84901 42.5827,-147.30247 0,-0.67722 -0.9819,-1.54296 -2.182,-1.92385 -1.8511,-0.58753 -4.127,1.33552 -15.0097,12.68261 -7.0553,7.35633 -13.7392,15.07561 -14.8531,17.15396 -2.2425,4.18418 -33.9639,114.47204 -33.9405,118.00305 0.033,4.95372 2.5645,7.4833 9.6694,9.6617 0.1012,0.031 2.8626,-1.10521 6.1364,-2.525 z"
         style="fill-opacity:1"
         inkscape:connector-curvature="0" />
      <path
         id="path3603"
         d="m 957.18683,273.25506 c 0.024,-0.1375 12.5413,-45.7 27.8157,-101.25 l 27.77167,-101 60.9343,0 c 67.2944,0 66.1691,-0.0967 75.2294,6.46653 7.4921,5.42728 10.9832,17.41601 9.2082,31.62232 -0.5609,4.48938 -10.399,41.75174 -22.7458,86.15076 l -21.7575,78.23961 -32.25,0.0104 c -17.7375,0.006 -32.25,-0.30325 -32.25,-0.68658 0,-0.38333 11.9807,-43.82764 26.6238,-96.5429 14.643,-52.71526 26.3977,-96.07192 26.1215,-96.34812 -0.2762,-0.2762 -1.5747,-0.5944 -2.8855,-0.7071 -1.8894,-0.16244 -4.8678,2.50065 -14.3716,12.85019 -6.5935,7.1803 -13.192,15.2803 -14.6634,18 -1.6143,2.98396 -11.4466,35.67813 -24.7941,82.4449 -12.1655,42.625 -22.3545,78.2875 -22.6422,79.25 -0.4844,1.61994 -2.9337,1.75 -32.95587,1.75 -17.8379,0 -32.4128,-0.1125 -32.3886,-0.25 z"
         style="fill-opacity:1"
         inkscape:connector-curvature="0" />
      <path
         id="path3601"
         d="m 1184.167,271.90197 c -11.5295,-3.09826 -19.8011,-10.50815 -25.7769,-23.09145 -2.8822,-6.06899 -3.6786,-9.07384 -4.0251,-15.18579 -0.4166,-7.34734 0.1463,-9.72835 15.7493,-66.61967 17.8409,-65.0513 20.1918,-71.56805 28.9918,-80.36803 8.6139,-8.61395 22.1452,-13.41968 42.5367,-15.10723 6.6,-0.5462 29.2125,-1.00021 50.25,-1.00891 33.498,-0.0139 38.25,0.17227 38.25,1.49821 0,0.83272 -2.32,10.28272 -5.1555,21 l -5.1554,19.48596 -29.3767,0 c -32.0365,0 -34.5137,0.36388 -37.9846,5.57955 -1.0053,1.51063 -4.8109,12.46072 -8.457,24.33353 -6.3907,20.81029 -6.5649,21.65464 -4.84,23.46919 1.7431,1.83367 2.0003,1.73353 9.963,-3.8779 13.15,-9.26708 15.0713,-9.76999 39.3039,-10.28811 l 20.7977,-0.44467 -0.6081,2.3642 c -0.3345,1.30032 -2.7461,10.23921 -5.3591,19.86421 l -4.751,17.5 -34.1637,0.2631 -34.1637,0.2631 -4.5122,14.2369 c -5.5552,17.52793 -5.9551,19.5232 -4.6167,23.03527 1.9906,5.2237 5.0426,5.70163 36.41,5.70163 l 28.3951,0 -3.899,14.25 c -2.1444,7.8375 -4.5703,16.6125 -5.3909,19.5 l -1.492,5.25 -42.722,-0.0658 c -34.2998,-0.0528 -43.8016,-0.3559 -48.1979,-1.53728 z"
         style="fill-opacity:1"
         inkscape:connector-curvature="0" />
      <path
         id="path3569"
         d="m -574.44011,168.26996 c 2.83682,-10.04569 13.241,-46.94537 23.12041,-81.99927 l 17.96257,-63.73438 65.47222,-0.0156 c 64.00784,-0.0153 65.42811,0.0262 63.5,1.85575 -7.5671,7.18017 -172.35673,159.89078 -173.61978,160.89352 -1.15685,0.91843 -0.18046,-3.73812 3.56458,-17 z"
         style="fill:#ff0000;fill-opacity:1"
         inkscape:connector-curvature="0" />
      <path
         id="path3597"
         d="m -622.35713,271.65854 c 15.11218,-14.55079 160.88735,-150.09946 161.1458,-149.84102 0.19519,0.19519 -5.89981,22.81724 -13.54445,50.27122 -7.64463,27.45397 -14.37331,51.65743 -14.95263,53.78545 l -1.05329,3.86913 12.25409,-0.40795 c 11.00092,-0.36624 12.71008,-0.67519 16.71303,-3.02108 2.62413,-1.53784 5.32506,-4.19656 6.56376,-6.46117 1.15764,-2.11643 14.4179,-47.43138 29.46724,-100.69989 l 27.36244,-96.85182 9.52201,0.66498 c 35.75295,2.49686 53.60877,10.56933 60.07153,27.15784 3.22317,8.27319 3.26314,25.97141 0.0878,38.88083 -5.41936,22.03261 -16.10881,35.87717 -35.00479,45.33683 -5.58905,2.79797 -13.4178,6.02885 -17.39723,7.17974 -3.97943,1.15089 -7.88787,2.31341 -8.68542,2.58337 -0.82354,0.27877 2.201,2.26418 7,4.59503 11.18864,5.43427 21.61997,15.56611 24.78943,24.07771 4.20651,11.29663 4.53903,17.68862 1.66971,32.09617 -2.80015,14.06023 -6.24769,23.92667 -11.79606,33.75882 -9.69885,17.18717 -23.73158,26.55616 -48.21299,32.18952 -8.7209,2.00674 -12.0856,2.08168 -108.5,2.41648 -98.24156,0.34114 -99.4747,0.32116 -97.5,-1.58019 z"
         style="fill-opacity:1"
         inkscape:connector-curvature="0" />
      <path
         id="path3595"
         d="m -352.8982,272.76872 c -0.0226,-0.42001 12.68991,-45.88761 28.25,-101.0391 l 28.29107,-100.27544 58,0.29179 c 57.8321,0.29095 58.02026,0.29859 65,2.63932 14.37165,4.81969 18.83469,8.10083 22.60141,16.61612 4.49854,10.16968 3.22307,24.33496 -4.15707,46.16831 -7.22508,21.37462 -15.41549,28.89755 -34.45383,31.64598 -7.88362,1.13811 -8.54499,1.39795 -6.93264,2.72375 3.86516,3.1782 16.7548,18.65816 18.68274,22.43725 3.56567,6.98928 2.89543,11.36028 -7.17288,46.77836 l -9.30985,32.75 -31.98735,0 -31.98735,0 0.68269,-2.75 c 0.37548,-1.5125 12.35718,-44.77958 26.62601,-96.14907 14.26882,-51.36948 25.73224,-93.61015 25.47425,-93.86813 -0.25799,-0.25799 -7.12841,4.44903 -15.2676,10.46005 -14.44096,10.66505 -14.88963,11.10888 -18.56879,18.36814 -2.84476,5.61294 -9.23726,26.58585 -26.04162,85.43901 l -22.27137,78 -32.70838,0.26366 c -17.9896,0.14502 -32.72685,-0.08 -32.74944,-0.5 z"
         style="fill-opacity:1"
         inkscape:connector-curvature="0" />
      <path
         id="path3593"
         d="m -164.61052,272.25506 c 0.25332,-0.6875 12.77145,-46.1375 27.81807,-101 l 27.35748,-99.75 32.78892,0 c 18.03391,0 32.78892,0.20591 32.78892,0.45757 0,0.49878 -51.83673,183.79071 -55.08918,194.79243 l -1.99551,6.75 -32.06464,0 c -25.2307,0 -31.96648,-0.26641 -31.60406,-1.25 z"
         style="fill-opacity:1"
         inkscape:connector-curvature="0" />
      <path
         id="path3591"
         d="m -65.85713,273.06122 c 0,-0.57104 54.73109,-193.97779 56.12914,-198.34712 l 1.053,-3.29097 53.15893,0.29097 53.15893,0.29096 7.64085,3.10064 c 22.25872,9.03255 30.64311,19.85648 29.60756,38.22224 -0.3983,7.06394 -3.19299,18.71637 -15.03236,62.67712 -7.99871,29.7 -15.5101,56.57614 -16.69199,59.72477 -4.45586,11.87072 -15.31777,22.98433 -28.6093,29.27223 -6.82658,3.22949 -17.97899,6.13523 -28.71322,7.48119 -7.79413,0.9773 -111.70154,1.51494 -111.70154,0.57797 z"
         style="fill-opacity:1"
         inkscape:connector-curvature="0" />
      <path
         id="path3589"
         d="m 27.41914,231.6984 c 5.68703,-2.5273 10.26653,-6.54596 13.16047,-11.54874 1.42027,-2.45523 9.78856,-30.6391 20.53024,-69.1446 9.973,-35.75 18.53689,-66.2375 19.03086,-67.75 0.49397,-1.5125 0.58403,-2.74918 0.20014,-2.74818 -0.99166,0.003 -21.93509,16.42898 -26.55387,20.82678 -4.72551,4.49942 -8.03549,9.55327 -10.7239,16.37384 -1.12409,2.85184 -8.77757,29.73545 -17.00773,59.74136 -8.23017,30.00591 -15.18861,55.18482 -15.46321,55.95314 -0.71204,1.99225 11.23137,0.78308 16.827,-1.7036 z"
         style="fill:#ffffff;fill-opacity:1"
         inkscape:connector-curvature="0" />
      <path
         id="path3587"
         d="m 162.29862,271.96914 c -12.87305,-2.79389 -20.56623,-8.48875 -25.76175,-19.07008 -2.62566,-5.34749 -2.8883,-6.82124 -2.83257,-15.894 0.06,-9.76789 0.45147,-11.41586 16.86524,-71 12.54409,-45.53666 17.68774,-62.70065 20.29076,-67.70874 6.26142,-12.04672 16.21443,-19.10404 33.78257,-23.95401 7.44239,-2.05459 10.59542,-2.23566 45.2364,-2.59781 32.5265,-0.34004 37.9654,-0.17886 43,1.27435 14.2521,4.11376 24.8103,12.9202 27.9948,23.35013 2.6721,8.75153 2.3477,23.84251 -0.6962,32.38608 l -2.4049,6.75 -32.815,0 c -18.0483,0 -32.8162,-0.3375 -32.8177,-0.75 0,-0.4125 3.4208,-12.59032 7.6049,-27.06182 4.1841,-14.4715 7.3815,-26.53773 7.1054,-26.81384 -0.2761,-0.27611 -7.4108,4.62157 -15.8549,10.88373 -12.73,9.44065 -15.807,12.22764 -18.0115,16.31384 -1.7165,3.18151 -6.7854,20.87666 -14.3023,49.92809 -6.40396,24.75 -13.23129,50.69933 -15.17186,57.66518 -4.85875,17.44098 -3.93119,18.83482 12.53401,18.83482 l 8.77095,0 1.7139,-6.25 c 0.9427,-3.4375 5.3576,-19.1875 9.811,-35 l 8.097,-28.75 31.9614,0 31.9614,0 -0.6606,2.75 c -0.3634,1.5125 -6.7122,25.77968 -14.1084,53.92706 -7.3963,28.14738 -13.4478,51.43488 -13.4478,51.75 0,0.31512 -25.0875,0.53717 -55.75,0.49344 -43.36036,-0.0618 -57.15992,-0.3855 -62.09425,-1.45642 z"
         style="fill-opacity:1"
         inkscape:connector-curvature="0" />
      <path
         id="path3585"
         d="m 347.60137,272.11018 c -2.7728,-0.67364 -7.1099,-2.22613 -9.638,-3.44998 -5.3939,-2.61113 -13.7024,-11.04325 -16.7311,-16.97996 -3.2341,-6.33937 -5.3895,-15.88729 -4.6488,-20.59338 1.6106,-10.23291 32.8547,-121.5495 35.9798,-128.18883 4.4978,-9.55572 14.6396,-20.32526 22.9454,-24.36569 13.0873,-6.36642 13.3153,-6.38922 67.8842,-6.78507 27.3625,-0.1985 49.75,-0.10169 49.75,0.21513 0,1.0818 -10.1016,38.8981 -10.6106,39.72159 -0.2791,0.45159 -14.3184,0.82275 -31.1984,0.82481 -28.6258,0.003 -30.9054,0.13447 -33.8772,1.94649 -1.7524,1.06851 -3.7774,2.97933 -4.5,4.24626 -0.7226,1.26693 -4.3044,11.97851 -7.9596,23.80351 -6.6424,21.4887 -6.6448,21.50113 -4.6776,23.64152 l 1.9682,2.14153 11.0173,-6.83989 c 6.9898,-4.3395 12.9037,-7.24722 16.1776,-7.95419 3.0621,-0.66122 12.3226,-0.98718 22.7749,-0.80164 l 17.6146,0.31267 -5.215,19 -5.215,19 -34.1146,0.26309 -34.1146,0.26308 -0.965,3.73692 c -8.1302,31.48313 -8.0201,28.44 -1.2838,35.48691 l 3.5847,3.75 27.1613,0 27.1614,0 -4.3845,15.75 c -2.4115,8.6625 -4.8428,17.4375 -5.4029,19.5 l -1.0183,3.75 -41.7114,-0.0851 c -29.2329,-0.0596 -43.2197,-0.45146 -46.753,-1.30983 z"
         style="fill-opacity:1"
         inkscape:connector-curvature="0" />
      <path
         id="path3583"
         d="m 501.54467,272.01928 c -8.5524,-1.86067 -15.4615,-5.63911 -20.2418,-11.06984 -9.2686,-10.52973 -10.7706,-23.40476 -5.1555,-44.19443 l 3.3087,-12.25 32.8434,0 c 18.0639,0 32.8434,0.19253 32.8434,0.42784 0,0.43237 -4.1133,15.53451 -5.7393,21.07216 -1.3207,4.49775 -0.5067,6.33384 3.7764,8.51894 4.6635,2.37911 8.7579,2.5114 13.7084,0.44292 7.2191,-3.01632 10.5192,-8.13678 12.4316,-19.28893 1.0443,-6.09018 0.9726,-7.49246 -0.5931,-11.59214 -0.9796,-2.56512 -2.7989,-5.33072 -4.0428,-6.14577 -1.244,-0.81506 -8.7574,-2.80923 -16.6965,-4.43149 -33.7778,-6.90209 -43.7126,-11.61833 -48.9684,-23.24625 -2.0774,-4.59593 -2.3678,-6.70394 -2.3085,-16.75728 0.06,-10.18163 0.5501,-13.33425 4.274,-27.5 9.0689,-34.49722 18.1712,-45.45169 43.0425,-51.80065 8.1699,-2.08555 10.6854,-2.19935 48.61566,-2.19935 l 40,0 5.7358,2.68817 c 7.3179,3.42965 14.5947,10.70648 18.3336,18.33364 2.8009,5.71351 2.9306,6.57589 2.9306,19.47819 0,8.67077 -0.4749,14.84145 -1.3276,17.25 l -1.3275,3.75 -31.9225,0 c -17.5573,5e-5 -31.9224,-0.1766 -31.9224,-0.3925 0,-0.50944 12.6355,-47.88375 13.4866,-50.56528 0.3565,-1.12319 0.2804,-2.03624 -0.1692,-2.02899 -0.4496,0.007 -6.6414,4.30879 -13.7596,9.55897 -13.63686,10.0582 -15.20836,11.90973 -22.77976,26.83946 -4.1263,8.13632 -4.9396,18.44435 -1.8432,23.35878 2.6418,4.19275 3.8158,4.60661 20.341,7.17047 33.60526,5.2138 46.53826,11.48439 51.32406,24.88457 1.9551,5.47429 1.6662,18.69433 -0.6735,30.8182 -2.8622,14.83166 -10.4738,40.90834 -13.3966,45.89574 -7.0165,11.97266 -23.1106,19.80416 -47.18396,22.95989 -15.0289,1.97013 -67.9101,1.98044 -76.944,0.015 z"
         style="fill-opacity:1"
         inkscape:connector-curvature="0" />
      <path
         id="path3581"
         d="m 658.14283,272.69947 c 0,-2.33117 35.2472,-123.34244 37.0482,-127.19441 3.8995,-8.3404 7.0658,-11.80414 20.2675,-22.17124 l 13.1529,-10.32876 -29.3355,-0.26527 c -22.7545,-0.20575 -29.2369,-0.54225 -28.8964,-1.5 0.2414,-0.6791 2.6494,-9.89608 5.3511,-20.48217 l 4.9122,-19.24743 67.2186,-0.003 c 53.3512,-0.002 67.125,0.25532 66.7647,1.24744 -0.2496,0.6875 -2.5036,9.125 -5.0087,18.75 -2.5051,9.625 -4.7921,18.2875 -5.0821,19.25 -0.4766,1.58192 -2.2478,1.75 -18.4408,1.75 -17.736,0 -17.9194,0.0223 -18.502,2.25 -0.3237,1.2375 -10.3518,37.35 -22.2848,80.25 l -21.6963,78 -32.7343,0.26366 c -18.0039,0.14545 -32.7343,-0.11071 -32.7343,-0.56882 z"
         style="fill-opacity:1"
         inkscape:connector-curvature="0" />
      <path
         id="path3579"
         d="m 812.54463,272.06973 c -12.7862,-2.88746 -21.891,-9.73341 -27.0973,-20.37468 -5.2604,-10.75196 -4.9742,-12.41317 13.9902,-81.18999 18.8482,-68.35579 20.2621,-72.14854 30.8642,-82.79234 6.6972,-6.72359 14.2042,-10.99727 24.3411,-13.85723 8.9749,-2.53212 69.4846,-3.23858 78.5464,-0.91705 14.3927,3.68722 28.6233,12.89059 33.4536,21.63541 2.8231,5.11091 2.9998,6.07992 2.9971,16.43121 l 0,11 -16.3582,57 c -11.6756,40.68364 -17.3658,58.93608 -19.8781,63.76357 -6.8601,13.18148 -21.759,23.34394 -40.8494,27.86314 -7.8938,1.86864 -12.6109,2.1491 -41.4086,2.46199 -25.0328,0.27198 -33.9011,0.0367 -38.5982,-1.02403 z"
         style="fill-opacity:1"
         inkscape:connector-curvature="0" />
      <path
         id="path3577"
         d="m 865.30843,234.11053 c 2.9779,-1.31699 6.025,-3.13017 6.7712,-4.0293 0.7462,-0.89913 10.9517,-35.01615 22.679,-75.81562 15.7943,-54.94896 21.0062,-74.38164 20.1032,-74.95538 -2.7695,-1.75971 -5.5778,-0.68483 -9.0003,3.44483 -1.9372,2.3375 -7.7885,8.63585 -13.0028,13.99632 -7.0762,7.27452 -9.9934,11.07873 -11.5025,15 -3.51,9.12032 -32.2134,111.63146 -32.2134,115.04658 0,5.24751 3.9698,9.44267 9.1256,9.64371 0.894,0.0349 4.062,-1.01415 7.04,-2.33114 z"
         style="fill:#ffffff;fill-opacity:1"
         inkscape:connector-curvature="0" />
      <path
         id="path3575"
         d="m 958.16013,272.25506 c 0.01,-0.6875 12.3188,-46.025 27.354,-100.75 l 27.33677,-99.5 62.3959,0 62.396,0 5.2416,2.36955 c 6.7318,3.04319 11.7277,8.6044 13.702,15.25236 1.8149,6.11171 2.0239,17.52193 0.4592,25.07887 -0.9915,4.7882 -40.5414,147.79196 -43.0196,155.54922 l -1.0383,3.25 -31.9225,0 c -17.5573,0 -31.9074,-0.1125 -31.8891,-0.25 0.018,-0.1375 12.12,-43.675 26.8925,-96.75 l 26.8591,-96.5 -3.0698,-0.94552 c -2.9123,-0.89703 -3.3473,-0.64063 -8.4818,5 -15.1597,16.654 -20.3667,23.04696 -22.6166,27.76791 -1.3571,2.84768 -12.5136,40.38679 -24.7921,83.42022 l -22.3246,78.24261 -31.74997,0.007 c -24.7464,0.006 -31.7462,-0.26834 -31.7327,-1.24261 z"
         style="fill-opacity:1"
         inkscape:connector-curvature="0" />
      <path
         id="path3567"
         d="m 1187.4125,272.451 c -10.6505,-2.10206 -19.086,-7.86207 -25.2503,-17.24157 -5.5913,-8.50767 -8.4383,-18.11131 -7.7246,-26.05726 0.8186,-9.11424 32.0724,-121.53475 35.9998,-129.49191 6.6485,-13.47029 16.0066,-20.61295 33.2054,-25.34432 7.6403,-2.10183 10.2163,-2.21754 57.286,-2.57333 l 49.286,-0.37253 -0.6995,2.81749 c -0.3847,1.54962 -2.7657,10.69249 -5.291,20.31749 l -4.5914,17.5 -31.1811,0.5 -31.1811,0.5 -2.9913,2.86748 c -3.6722,3.52024 -3.6555,3.47777 -11.2122,28.39702 -4.9915,16.45996 -5.9138,20.5434 -4.9124,21.75 1.9453,2.34392 3.5543,1.82326 10.9191,-3.53348 12.6429,-9.19569 13.5689,-9.43568 37.8189,-9.80216 14.6811,-0.22187 21.25,0.011 21.25,0.75333 0,0.59095 -1.7608,7.48547 -3.913,15.32114 -2.1521,7.83567 -4.4195,16.15917 -5.0385,18.49667 l -1.1256,4.25 -34.2114,0.005 -34.2115,0.005 -4.7672,15.74549 c -2.6219,8.66002 -4.7594,16.9579 -4.75,18.43973 0.01,1.48183 1.1027,3.95683 2.4294,5.5 l 2.4122,2.80576 30.0878,0.29207 c 16.5483,0.16064 30.0878,0.54769 30.0878,0.86012 0,0.31242 -2.322,9.06849 -5.16,19.45793 l -5.16,18.8889 -41.59,-0.10957 c -22.8745,-0.0603 -43.4936,-0.48528 -45.8203,-0.94449 z"
         style="fill-opacity:1"
         inkscape:connector-curvature="0" />
    </g>
  </g>
</svg>
