<?xml version="1.0" encoding="utf-8"?>
<!-- Generator: Adobe Illustrator 19.2.1, SVG Export Plug-In . SVG Version: 6.00 Build 0)  -->
<svg version="1.1" id="Layer_1" xmlns="http://www.w3.org/2000/svg" xmlns:xlink="http://www.w3.org/1999/xlink" x="0px" y="0px"
	 viewBox="0 0 310 105" style="enable-background:new 0 0 310 105;" xml:space="preserve">
<style type="text/css">
	.st0{fill:#F7A41B;}
	.st1{fill:#030405;}
</style>
<g id="Layer_2">
	<rect class="st0" width="310" height="105"/>
</g>
<g id="Layer_1_1_">
	<g id="_x23_020100fd">
		<path class="st1" d="M46,26.2c2.2,2.5,4.8,4.7,7,7.2c0.7,1,1.8,1.6,2.3,2.6c0.1,0.8,0.1,1.6,0,2.4c-5.1-4.5-12.5-6.4-19.1-4.6
			c-7.2,1.6-12.7,8-13.9,15.2c-1.2,6.1,0,12.8,3.8,17.8c1.8,2.4,4.3,4.3,7,5.4c2.7,1.2,5.6,1.5,8.5,1.6c5.1-0.1,10.1-2.2,13.7-5.9
			c0,0.8,0.1,1.6,0,2.4c-2.2,3.1-5.5,5.3-9,6.7c-6.7,2.4-14.3,2.4-20.8-0.3c-6.3-2.6-11.4-7.9-13.6-14.4c-1-2.7-1.5-5.6-1.4-8.5
			c-0.3-7.5,3.3-14.9,9.1-19.6c3.5-2.8,7.7-4.8,12.1-5.5c1.6-0.3,3.2-0.2,4.8-0.5c3.1,0.1,6.2,0.5,9.1,1.5c0.1,0,0.4,0,0.5,0
			C46,28.5,46,27.4,46,26.2z"/>
		<path class="st1" d="M277.7,26.3c0.1,0,0.4,0,0.5,0c1.7,1,2.7,2.7,3.7,4.3c0.2,2.6-0.1,5.4-1.1,7.8c1.1,2.1,2.9,3.7,4.3,5.6
			c1.4,1.1,3.4,1.6,4.4,3.1c1.2,1.8,0.7,4.2-0.5,5.8c-0.1,0.3-0.7,0.6-0.4,1c0.4,1.2,0.7,2.5,1.1,3.7c0.1,0.3-0.3,0.5-0.4,0.8
			c-1.3,1.3-2.4,2.7-3.7,4c-0.1,0.7-0.3,1.3-0.4,2c-1.1,0-2.1,0-3.2,0c-0.1-1.4,1-2.4,2-3.1c0.8-1.1,1.8-2.2,2.6-3.4
			c-0.6-0.8-1.4-1.4-2.1-2.2c-1-0.9-1.7-2-2.7-2.8c-0.3-1-0.6-2-0.8-3c-1.9-1.1-3.7-2.4-5.4-3.7c-1-1.1-1.8-2.4-2.5-3.6
			c-1.2-0.9-2.4-1.8-3.7-2.6c-0.7,0-1.1,0.6-1.7,0.9c0,1.1-0.3,2.4,0.2,3.4c0.1,0.3,0.4,0.7,0.1,1c-0.5,0.6-0.7,1.4-1.4,1.8
			c-1.3-2.1-0.7-4.7-0.7-6.9c0.7-1.1,1.7-1.9,2.6-2.9c1.3,0,2.5,0.6,3.7,0.9c0.8-0.7,1.8-1.2,2.6-1.9c0.6-1.1,1.4-2.1,1.9-3.2
			c-1.2-0.1-2.4,0.5-3.6,0.5c-0.3-0.2-0.6-0.4-0.8-0.6c0-0.4,0-1.2,0-1.6c1.8-1.2,3.6-2.5,5.4-3.7C277.9,27.3,277.7,26.8,277.7,26.3
			z"/>
		<path class="st1" d="M110.2,29.1c1.7-0.1,3.5,0.6,4.7,1.8c0.6,0.9,0.6,1.9,0.6,2.9c-0.3,1.6-1.9,2.6-3.4,3
			c-1.9,0.3-4.1,0.2-5.7-1.1c-1.1-1-1.6-2.7-0.9-4.1C106.3,29.8,108.4,29.1,110.2,29.1z"/>
		<path class="st1" d="M242.7,30.2c3.8,0,7.5,0,11.3,0c0,11.3,0,22.7,0,34c1,0.5,2.3,0.1,3.4,0.2c0,0.8,0,1.6,0,2.4
			c-3.9,0-7.9,0-11.8,0c0-11.4,0-22.8,0-34.2c-1,0-1.9,0-2.9,0C242.6,31.8,242.6,31,242.7,30.2z"/>
		<path class="st1" d="M96.1,33c0.4,0,1.2,0,1.6,0c0,2.4,0,4.8,0,7.2c1.1,0,2.3,0,3.4,0c0,0.8,0,1.6,0,2.4c-1.1,0-2.3,0-3.4,0
			c0,6.6,0,13.1,0,19.7c0,0.5,0.2,0.9,0.4,1.3c0.8,0.7,1.9,0.5,2.8,0.3c0.3,0.7,0.2,1.6,0.2,2.3c-2,1.1-4.4,1.1-6.7,1
			c-1.7-0.3-3.5-1-4.3-2.5c-0.5-0.7-0.7-1.6-0.8-2.4c0-6.6,0-13.1,0-19.7c-1,0-1.9,0-2.9,0c0-0.5,0-1.4,0-1.8
			C89.8,38.2,93,35.6,96.1,33z"/>
		<path class="st1" d="M211.1,33c0.4,0,1.2,0,1.6,0c0,2.4,0,4.8,0,7.2c1.1,0,2.3,0,3.4,0c0,0.8,0,1.6,0,2.4c-1.1,0-2.3,0-3.4,0
			c0,6.6,0,13.1,0,19.7c0,0.5,0.2,0.9,0.4,1.3c0.8,0.7,1.9,0.5,2.8,0.3c0.3,0.7,0.2,1.6,0.2,2.3c-2,1.1-4.4,1.1-6.7,1
			c-1.7-0.3-3.5-1-4.3-2.5c-0.5-0.7-0.7-1.6-0.8-2.4c0-6.6,0-13.1,0-19.7c-1,0-1.9,0-2.9,0c0-0.5,0-1.4,0-1.8
			C204.7,38.2,207.9,35.6,211.1,33z"/>
		<path class="st1" d="M267.3,36.9c0.1,0,0.4-0.1,0.5-0.1c-1,0.9-1.6,2.3-2.9,2.7c-0.4,0.2-0.6,0.6-0.9,1c-0.9,0-1.8-0.2-2.7-0.5
			c0.4-1.1,1.7-1.7,2.7-2.2C265.1,37.5,266.2,37.3,267.3,36.9z"/>
		<path class="st1" d="M42.1,38.8c3.5-0.2,7,1,9.6,3.4c4.3,4.4,5.2,11.3,3.4,17c-0.9,2.3-2.2,4.5-4.1,6c-4,3.3-9.9,3.7-14.5,1.5
			c-4.3-2-6.9-6.7-7.2-11.3c-0.6-4.5,0.6-9.5,3.8-12.8C35.3,40.2,38.7,38.9,42.1,38.8 M41.8,41.7c-0.7,0.2-1.2,0.7-1.5,1.4
			c-1,2-1,4.3-1.2,6.5c-0.1,3.5-0.1,7,0.3,10.4c0.2,1.6,0.4,3.3,1.5,4.5c0.8,1,2.6,0.9,3.5-0.1c1.5-2,1.5-4.6,1.7-7
			c-0.1-4.5,0.4-9.1-0.9-13.5C44.7,42.4,43.3,41.2,41.8,41.7z"/>
		<path class="st1" d="M74.6,39.7c2.2-0.4,4.6,0.2,6.3,1.7c1.6,1.6,2.3,3.8,2.3,6c0,5.5,0,10.9,0,16.4c0,0.2,0,0.4,0.2,0.5
			c1,0.1,2,0,3,0c0,0.8,0,1.6,0,2.4c-3.9,0-7.7,0-11.6,0c0-6.4,0-12.8,0-19.1c-0.2-1.1-0.5-2.3-1.4-3c-0.8-0.4-1.9-0.6-2.7,0
			c-1.4,0.7-1.6,2.5-1.7,3.9c0,5.2,0,10.5,0,15.7c0.7,0.5,1.7,0.1,2.5,0.2c0,0.8,0,1.6,0,2.4c-4.5,0-9,0-13.5,0c0-0.8,0-1.6,0-2.4
			c0.6,0,1.9,0,2.5,0c0-7.3,0-14.6,0-21.9c-0.6,0-1.9,0-2.5,0c0-0.8,0-1.6,0-2.4c3.5,0,7.1,0,10.6,0c0,1.4,0,2.7,0,4.1
			C69.9,42,72,40,74.6,39.7z"/>
		<path class="st1" d="M135.5,39.7c1.7-0.3,3.4-0.1,4.9,0.8c2.1,1.1,3.4,3.4,3.7,5.7c0.5,6.1,0.2,12.2,0.3,18.2c1,0,2,0,3.1,0
			c0,0.8,0,1.6,0,2.4c-3.9,0-7.7,0-11.6,0c0-6.3,0-12.5,0-18.8c0-1.4-0.4-3.1-1.9-3.6c-1.2-0.5-2.6,0.1-3.2,1.2
			c-0.3,0.7-0.5,1.3-0.5,2.1c0,5.6,0,11.2,0,16.8c0.8,0,1.6,0,2.4,0c0,0.8,0,1.6,0,2.4c-4.4,0-8.9,0-13.3,0c0-0.8,0-1.6,0-2.4
			c0.8,0,1.6,0,2.4,0c0-7.3,0-14.6,0-21.9c-0.8,0-1.6,0-2.4,0c0-0.8,0-1.6,0-2.4c3.5,0,6.9,0,10.4,0c0,1.4,0,2.8,0,4.1
			c0.8-1.2,1.6-2.5,2.8-3.4C133.4,40.3,134.4,39.9,135.5,39.7z"/>
		<path class="st1" d="M158.6,39.7c3.2-0.4,6.6,0.2,9.1,2.4c3.4,3.2,3.8,8.2,3.6,12.6c-4.8,0-9.6,0-14.4,0c0,2.2,0.7,4.5,2.3,6.1
			c2.7,2.3,7.1,1.8,9.6-0.7c0.1-0.1,0.3-0.4,0.5-0.3c0.4,0.4,0.8,0.8,1.2,1.2c-1.2,2.6-3.4,4.7-6.1,5.6c-4.3,1.4-9.7,0.7-12.9-2.7
			c-2.6-2.8-3.6-6.7-3.6-10.5c-0.2-3.2,0.7-6.6,2.6-9.2C152.4,41.6,155.4,40,158.6,39.7 M159.4,42.4c-0.5,0.1-0.9,0.4-1.2,0.7
			c-1.5,2.8-1.1,6-1.2,9c2,0,4,0,6,0c-0.1-2.6,0-5.3-0.7-7.8C161.9,43,160.7,42,159.4,42.4z"/>
		<path class="st1" d="M189.5,39.7c2.2-0.4,4.6,0.2,6.3,1.7c1.6,1.6,2.3,3.8,2.3,6c0,5.5,0,10.9,0,16.4c0,0.2,0,0.4,0.2,0.5
			c1,0.1,2,0,3,0c0,0.8,0,1.6,0,2.4c-3.9,0-7.7,0-11.6,0c0-6.4,0-12.8,0-19.1c-0.2-1.1-0.5-2.3-1.4-3c-0.8-0.4-1.9-0.6-2.7,0
			c-1.4,0.7-1.6,2.5-1.7,3.9c0,5.2,0,10.5,0,15.7c0.7,0.5,1.7,0.1,2.5,0.2c0,0.8,0,1.6,0,2.4c-4.5,0-9,0-13.5,0c0-0.8,0-1.6,0-2.4
			c0.6,0,1.9,0,2.5,0c0-7.3,0-14.6,0-21.9c-0.6,0-1.9,0-2.5,0c0-0.8,0-1.6,0-2.4c3.5,0,7.1,0,10.6,0c0,1.4,0,2.7,0,4.1
			C184.8,42,186.9,40,189.5,39.7z"/>
		<path class="st1" d="M228,39.7c3-0.3,6.2,0.2,8.6,2.1c2.3,1.6,3.2,4.6,3.3,7.3c0,5.1,0,10.3,0,15.4c0.9,0,1.8,0,2.7,0
			c0,0.8,0,1.6,0,2.4c-3.6,0-7.3,0-10.9,0c0-1,0-2.1,0-3.1c-1,1.2-2.1,2.4-3.5,3c-2.3,1-5.2,0.9-7.2-0.6c-3.8-2.9-4.3-9.1-1.2-12.7
			c1.6-1.8,4-2.8,6.3-2.9c1.8-0.4,3.6-0.1,5.3,0.4c0.1-1.6,0.2-3.4-0.8-4.8c-1.2-1.8-3.6-1.8-5.5-1.7c-1.6,0.4-3,1.2-4.1,2.3
			c-0.2,0.2-0.2,0.7-0.6,0.5c-0.5-0.5-0.9-1.1-1.4-1.7C220.9,42.4,224.3,40.2,228,39.7 M228.7,53.2c-0.7,0.3-1.3,0.8-1.6,1.5
			c-0.7,1.5-0.5,3.2-0.5,4.8c0.2,1.3,0.7,2.9,2.2,3.1c0.9,0.3,1.8-0.1,2.6-0.6c0-2.8,0-5.7,0-8.5C230.6,52.9,229.5,53.1,228.7,53.2z
			"/>
		<path class="st1" d="M103.6,40.1c3.6,0,7.3,0,10.9,0c0,8.1,0,16.2,0,24.3c0.8,0,1.6,0,2.4,0c0,0.8,0,1.6,0,2.4
			c-4.4,0-8.9,0-13.3,0c0-0.8,0-1.6,0-2.4c0.8,0,1.6,0,2.4,0c0-7.3,0-14.6,0-21.9c-0.8,0-1.6,0-2.4,0
			C103.6,41.7,103.6,40.9,103.6,40.1z"/>
		<path class="st1" d="M290.5,47.3c1,0.3,1.8,1.1,2.7,1.6c0.9,1.3,1,2.9,1.2,4.4c0.2,1.9,0.6,3.8,0.5,5.7c-1.1-0.5-2.2-1.1-3-2
			c-0.4-2.5-0.3-5-0.6-7.5C291.1,48.8,290.7,48.1,290.5,47.3z"/>
		<path class="st1" d="M283.4,56.1c0.6,0.1,1.1,0.8,1.5,1.3c-1.1,1.3-2.6,2.3-3.9,3.4c-0.3,0.4-0.4,0.9-0.7,1.3c-1,0-1.9,0-2.9,0
			c0.4-1.2,1.3-2.1,2.4-2.7C281.1,58.5,282,56.9,283.4,56.1z"/>
		<path class="st1" d="M260.3,65.6c13.1,0,26.1,0,39.2,0c0,0.3,0,0.9,0,1.2c-13.1,0-26.1,0-39.2,0C260.3,66.5,260.3,65.9,260.3,65.6
			z"/>
	</g>
</g>
</svg>
