<?xml version="1.0" encoding="UTF-8" standalone="no"?>
<!-- Created with Inkscape (http://www.inkscape.org/) -->

<svg
   xmlns:dc="http://purl.org/dc/elements/1.1/"
   xmlns:cc="http://creativecommons.org/ns#"
   xmlns:rdf="http://www.w3.org/1999/02/22-rdf-syntax-ns#"
   xmlns:svg="http://www.w3.org/2000/svg"
   xmlns="http://www.w3.org/2000/svg"
   xmlns:sodipodi="http://sodipodi.sourceforge.net/DTD/sodipodi-0.dtd"
   xmlns:inkscape="http://www.inkscape.org/namespaces/inkscape"
   width="735"
   height="105"
   viewBox="0 0 735 105"
   id="svg3845"
   version="1.1"
   inkscape:version="0.91pre3 r13670"
   sodipodi:docname="debica2.svg">
  <defs
     id="defs3847" />
  <sodipodi:namedview
     id="base"
     pagecolor="#ffffff"
     bordercolor="#666666"
     borderopacity="1.0"
     inkscape:pageopacity="0.0"
     inkscape:pageshadow="2"
     inkscape:zoom="0.7"
     inkscape:cx="585.39367"
     inkscape:cy="154.70181"
     inkscape:document-units="px"
     inkscape:current-layer="layer1"
     showgrid="false"
     units="px"
     inkscape:window-width="1366"
     inkscape:window-height="715"
     inkscape:window-x="-8"
     inkscape:window-y="-8"
     inkscape:window-maximized="1" />
  <metadata
     id="metadata3850">
    <rdf:RDF>
      <cc:Work
         rdf:about="">
        <dc:format>image/svg+xml</dc:format>
        <dc:type
           rdf:resource="http://purl.org/dc/dcmitype/StillImage" />
        <dc:title></dc:title>
      </cc:Work>
    </rdf:RDF>
  </metadata>
  <g
     inkscape:label="Layer 1"
     inkscape:groupmode="layer"
     id="layer1"
     transform="translate(0,-947.36216)">
    <path
       style="fill:#fbd200;fill-opacity:1"
       d="m 126.88306,999.86214 0,-50 240.61695,0 240.61693,0 0,50 0,50.00006 -240.61693,0 -240.61695,0 0,-50.00006 z"
       id="path3911" />
    <path
       style="fill:#000000"
       d="m 321.53459,1034.695 c 0.38097,-1.4846 0.69909,-2.9608 0.70694,-3.2806 l 0.0143,-0.5813 -10.19164,0.067 -10.19162,0.067 -0.35737,1.2853 c -0.19655,0.707 -0.51533,1.806 -0.7084,2.4422 -0.19306,0.6363 -0.42979,1.5341 -0.52605,1.9952 l -0.17503,0.8384 10.36811,-0.067 10.36811,-0.067 0.69268,-2.6992 z"
       id="path3909" />
    <path
       style="fill:#000000"
       d="m 480.73908,1025.6935 c 4.2083,-0.3002 7.47933,-0.8039 11.05398,-1.7022 1.41388,-0.3553 2.91774,-0.7283 3.3419,-0.829 0.56039,-0.133 0.79463,-0.3561 0.85692,-0.8161 0.0751,-0.5553 1.40905,-5.4235 2.07532,-7.5741 0.41928,-1.3533 0.58547,-2.4421 0.37275,-2.4421 -0.11345,0 -1.01918,0.396 -2.0127,0.88 -4.83057,2.3533 -7.33982,3.287 -10.80386,4.0205 -7.99547,1.6929 -14.22534,-1.3529 -15.64866,-7.6505 -0.51745,-2.2896 -0.52373,-3.656 -0.0306,-6.6962 0.68355,-4.21446 3.12984,-10.45526 5.06262,-12.91516 2.87635,-3.6608 6.14062,-6.0959 9.84547,-7.3446 2.80386,-0.94501 7.17785,-1.15698 10.08391,-0.48867 2.26864,0.52177 6.33584,2.43337 8.71365,4.09557 l 1.60386,1.1212 0.29858,-0.8144 c 0.16425,-0.4479 0.50862,-1.6242 0.7653,-2.6139 0.25668,-0.9897 0.81152,-3.10204 1.23298,-4.69405 0.42147,-1.59201 0.66319,-2.95829 0.53715,-3.03619 -0.71841,-0.44399 -4.95465,-1.43865 -8.06833,-1.89442 -6.78345,-0.99293 -17.90949,-0.60692 -25.05789,0.86938 -2.00463,0.41399 -5.46532,1.47091 -6.85756,2.09434 -0.44555,0.1995 -0.8926,0.36273 -0.99344,0.36273 -0.30119,0 -6.72954,3.28118 -7.23831,3.69459 -0.25838,0.20996 -1.35295,1.07492 -2.43241,1.92212 -4.14265,3.2512 -7.15576,7.5372 -8.9337,12.7076 -1.60707,4.67356 -2.03533,6.71706 -2.24749,10.72446 -0.13259,2.505 -0.0721,3.3079 0.39623,5.2595 1.34552,5.6067 4.93233,9.3141 11.2101,11.587 3.09347,1.12 5.16565,1.5674 9.39205,2.0279 3.94946,0.4304 8.75376,0.4819 13.48221,0.1447 z"
       id="path3907" />
    <path
       style="fill:#000000"
       d="m 225.72623,1024.8448 22.36504,-0.083 2.82777,-0.6596 c 12.48522,-2.9126 22.64302,-11.4033 26.30647,-21.9892 1.39987,-4.04496 1.90893,-10.41916 1.09335,-13.69046 -2.04814,-8.21499 -9.45581,-12.64852 -22.7468,-13.61408 -3.18963,-0.23172 -102.92977,-0.0959 -103.2054,0.14055 -0.0789,0.0677 0.47936,1.56665 2.74565,7.37143 0.16806,0.4304 2.45546,0.453 45.67819,0.4506 27.97151,0 46.08209,0.093 47.00886,0.2451 2.02321,0.3323 3.47783,1.0764 4.9164,2.515 1.32008,1.3201 1.70174,2.0738 2.34124,4.6238 1.18854,4.7391 -0.92257,13.38376 -4.60823,18.87006 -0.58969,0.8778 -1.18783,1.77 -1.32922,1.9826 -0.50059,0.753 -2.33319,2.3802 -3.79549,3.37 -1.63241,1.1049 -3.73453,1.9711 -5.67825,2.3397 -1.74637,0.3312 -5.05068,0.3096 -5.05068,-0.033 0,-0.3554 1.19832,-4.726 2.70922,-9.8813 0.20719,-0.707 0.84482,-2.9627 1.41696,-5.0129 0.99281,-3.55746 1.41252,-5.02876 2.54824,-8.93306 0.82401,-2.8328 1.0319,-3.7547 0.88077,-3.9059 -0.18489,-0.1849 -78.67541,-0.188 -78.8604,0 -0.077,0.077 0.19534,1.0024 0.60512,2.0566 0.40978,1.0542 1.06766,2.8132 1.46196,3.9089 l 0.71691,1.9923 25.67877,0 25.67876,0 -0.18445,0.5784 c -0.10146,0.3182 -0.42745,1.5907 -0.72444,2.82776 l -0.53998,2.2494 -20.89937,0 -20.89937,0 0,0.5367 c 0,0.447 1.49753,4.5358 2.65154,7.2396 l 0.30173,0.7069 18.18917,0 c 10.00404,0 18.18917,0.06 18.18917,0.1323 0,0.073 -0.30634,1.337 -0.68076,2.8095 -0.5938,2.3352 -0.75887,2.6968 -1.29218,2.8306 -0.33628,0.084 -6.47917,0.1475 -13.65086,0.1402 -7.17169,-0.01 -13.01311,0.076 -12.98093,0.1862 0.0675,0.2299 1.79387,4.5726 2.12324,5.3408 0.12124,0.2828 0.41236,0.9769 0.64693,1.5425 l 0.4265,1.0282 7.62691,-0.063 c 4.1948,-0.035 17.69118,-0.1009 29.99194,-0.1465 z"
       id="path3905" />
    <path
       style="fill:#000000"
       d="m 324.7212,1021.5845 c 0.46069,-1.7674 0.90409,-3.5605 0.98532,-3.9846 l 0.14769,-0.7712 -9.26881,0.07 c -5.09784,0.039 -9.3694,0.01 -9.49235,-0.068 -0.12408,-0.077 -0.10651,-0.5084 0.0395,-0.9702 0.26594,-0.8412 0.50985,-1.7308 1.49685,-5.4593 0.29942,-1.1311 0.77577,-2.9241 1.05855,-3.9845 0.28278,-1.0604 0.57954,-2.1909 0.65947,-2.5123 l 0.14534,-0.5842 9.53458,0.018 9.53459,0.018 0.21898,-0.5906 c 0.12045,-0.3248 0.33821,-1.169 0.48391,-1.8759 0.1457,-0.707 0.49585,-2.06306 0.77812,-3.01356 0.28226,-0.9506 0.50285,-1.8001 0.49019,-1.8878 -0.0126,-0.088 -4.23401,-0.1436 -9.38078,-0.1242 -7.38945,0.028 -9.38078,-0.034 -9.46721,-0.2931 -0.0602,-0.1806 0.0329,-0.7352 0.20682,-1.2324 0.17395,-0.4972 0.43762,-1.3667 0.58593,-1.9322 0.14831,-0.5656 0.67929,-2.5322 1.17994,-4.3702 0.50066,-1.8381 1.03728,-3.9532 1.1925,-4.7004 l 0.28221,-1.3585 9.58843,0.0731 9.58844,0.0732 0.26549,-1.02828 c 0.14602,-0.56555 0.5614,-2.12725 0.92305,-3.47044 0.36167,-1.34318 0.65989,-2.58676 0.66272,-2.76349 0.004,-0.2545 -4.3597,-0.32135 -20.97597,-0.32135 l -20.98112,0 0.12678,0.66325 c 0.12214,0.63889 0.043,1.08921 -0.58358,3.32132 -0.15876,0.56556 -0.38811,1.43317 -0.50966,1.92802 -0.12155,0.49486 -0.44374,1.70952 -0.71599,2.69928 -0.27224,0.9897 -0.93195,3.419 -1.46603,5.3984 -0.53407,1.9794 -1.17986,4.3509 -1.43508,5.2699 -0.25522,0.9191 -0.69392,2.5386 -0.97488,3.599 -0.28097,1.0604 -0.70464,2.62215 -0.9415,3.47045 -0.23686,0.8484 -0.52366,1.9473 -0.63733,2.4422 -0.11368,0.4949 -0.46053,1.8252 -0.77077,2.9563 -0.66651,2.4299 -2.14171,7.979 -2.81427,10.586 -0.26188,1.0152 -0.54473,1.9567 -0.62855,2.0923 -0.0838,0.1357 -0.33006,1.0912 -0.54721,2.1235 -0.23354,1.1102 -0.65455,2.2174 -1.03074,2.7106 -0.34976,0.4585 -0.63594,0.9011 -0.63594,0.9834 0,0.082 9.50507,0.119 21.12238,0.082 l 21.12237,-0.068 0.83763,-3.2134 z"
       id="path3903" />
    <path
       style="fill:#000000"
       d="m 373.52917,1024.6589 c 4.792,-0.4544 8.08876,-1.5392 11.68158,-3.8439 1.88946,-1.2121 2.72509,-2.0304 5.17033,-5.0635 1.25471,-1.5563 2.59368,-5.5311 2.76193,-8.1989 0.11836,-1.8763 0.0617,-2.2328 -0.58336,-3.6702 -0.7616,-1.697 -1.69579,-2.6765 -3.34414,-3.5062 -0.56178,-0.2827 -1.07926,-0.58546 -1.14995,-0.67276 -0.0707,-0.087 -0.82262,-0.3626 -1.67095,-0.6118 l -1.54242,-0.4531 1.54242,-0.4473 c 2.29668,-0.666 4.70722,-1.7043 5.75488,-2.4787 3.81905,-2.8229 5.94177,-6.9001 5.94177,-11.4125 0,-3.97217 -1.31501,-6.15882 -4.7083,-7.82914 -3.52095,-1.73316 -3.5717,-1.73697 -24.63691,-1.85106 l -18.9339,-0.10255 0.0276,0.97577 c 0.0152,0.53667 -0.22744,1.87229 -0.53911,2.96805 -0.5727,2.0135 -1.21614,4.38223 -2.14728,7.90493 -0.2803,1.0604 -0.62543,2.3329 -0.76695,2.8277 -0.14152,0.4949 -0.35831,1.3046 -0.48174,1.7995 -0.2778,1.1137 -0.93802,3.5632 -1.42042,5.2699 -0.19982,0.707 -0.66611,2.4422 -1.03622,3.85606 -0.59553,2.275 -1.4271,5.3791 -2.16935,8.0976 -0.99741,3.6532 -1.93448,7.1055 -2.37245,8.7404 -1.70418,6.3617 -2.07857,7.455 -2.55285,7.455 -0.11869,0 -0.2158,0.1157 -0.2158,0.2571 0,0.353 33.65769,0.3437 37.39163,-0.01 z"
       id="path3901" />
    <path
       style="fill:#fbd200;fill-opacity:1"
       d="m 361.33034,1017.1887 c 0,-0.1555 0.29857,-1.3991 0.66349,-2.7635 0.36492,-1.3645 0.89306,-3.3485 1.17366,-4.4089 0.2806,-1.0604 0.62488,-2.3329 0.76508,-2.8277 0.1402,-0.4949 0.39637,-1.4782 0.56924,-2.1851 l 0.31434,-1.2854 2.26325,0 c 2.2519,0 2.26718,0 3.048,0.8789 0.77323,0.8659 0.78257,0.9097 0.63616,2.9844 -0.3302,4.679 -2.18719,8.4473 -4.67497,9.4867 -1.13257,0.4733 -4.75825,0.5651 -4.75825,0.1206 z"
       id="path3899" />
    <path
       style="fill:#fbd200;fill-opacity:1"
       d="m 366.99027,995.94184 c 0.004,-0.1815 0.42285,-1.7671 1.40856,-5.3342 0.23442,-0.8483 0.58014,-2.1208 0.76827,-2.8278 0.18812,-0.7069 0.60992,-2.2544 0.93731,-3.4389 l 0.59527,-2.15366 1.95933,0.13426 c 1.07763,0.074 2.19699,0.2828 2.48746,0.4642 0.66824,0.4173 1.35097,1.8308 1.35097,2.797 0,1.489 -1.16527,5.4292 -2.13226,7.21 -1.19147,2.1942 -3.16409,3.3353 -5.77263,3.3394 -0.88367,0 -1.6047,-0.084 -1.60228,-0.1903 z"
       id="path3897" />
    <path
       style="fill:#000000"
       d="m 426.88304,1023.6543 c 0,-0.7044 0.15917,-1.7763 0.35375,-2.3822 0.19458,-0.6058 0.4974,-1.6799 0.67296,-2.3869 0.17555,-0.7069 0.70049,-2.6735 1.1665,-4.3702 0.46604,-1.6966 1.03743,-3.7789 1.26974,-4.6272 0.23234,-0.8483 0.5899,-2.2943 0.79458,-3.2134 0.20465,-0.919 0.47465,-1.9023 0.59997,-2.1851 0.1253,-0.2827 0.40669,-1.266 0.6253,-2.185 0.21859,-0.9191 0.58532,-2.30716 0.81496,-3.08486 0.39979,-1.3538 0.88738,-3.1535 1.91519,-7.0694 0.25977,-0.9897 0.72299,-2.7249 1.02933,-3.856 0.48062,-1.7745 0.92414,-3.4204 2.11286,-7.84064 0.13308,-0.49486 0.35771,-1.30463 0.49915,-1.79949 0.14144,-0.49486 0.36943,-1.34495 0.50663,-1.88911 0.1372,-0.54414 0.41985,-1.15973 0.62807,-1.36797 0.20823,-0.20824 0.37862,-0.48167 0.37862,-0.60764 0,-0.13045 -5.08741,-0.23515 -11.8209,-0.24325 l -11.8209,-0.0142 0.1427,1.0971 c 0.14082,1.08254 0.0333,1.5384 -2.8645,12.15103 -0.34746,1.2725 -0.7962,3.0255 -0.9972,3.8955 -0.201,0.8701 -0.55604,2.1426 -0.78897,2.8278 -0.23293,0.6852 -0.52183,1.7086 -0.64198,2.2742 -0.12016,0.5655 -0.86854,3.39973 -1.66309,6.29823 -0.79455,2.8984 -1.73449,6.3637 -2.08876,7.7007 -0.35429,1.3369 -0.88329,3.3035 -1.17555,4.3702 -0.83692,3.0545 -0.92016,3.3665 -1.44702,5.4222 -0.54178,2.1138 -0.96286,3.0092 -1.66332,3.5368 -0.24979,0.1881 -0.39018,0.4456 -0.31198,0.5721 0.0802,0.1297 5.29841,0.2361 11.95802,0.2437 l 11.81584,0.014 0,-1.2806 z"
       id="path3895" />
    <path
       style="fill:#000000"
       d="m 514.0745,1024.0266 c 0.17249,-0.6447 6.8099,-10.0662 8.08157,-11.4714 0.36336,-0.4015 1.1875,-0.4367 9.30264,-0.3972 l 8.90396,0.043 0.57031,3.7275 c 0.31368,2.0502 0.69337,4.3708 0.84375,5.1569 0.34432,1.8001 0.34885,2.9924 0.0121,3.2005 -0.90131,0.557 0.93051,0.6516 12.24979,0.6325 6.71396,-0.011 12.37869,-0.086 12.58828,-0.1668 0.33326,-0.1279 0.33429,-0.1987 0.008,-0.5643 -0.20504,-0.23 -0.49339,-0.8809 -0.64079,-1.4464 -0.28219,-1.0826 -1.71805,-8.0913 -2.10666,-10.2828 -0.12535,-0.7069 -0.81532,-4.1195 -1.53324,-7.5836 -0.71794,-3.464 -1.47234,-7.16576 -1.67645,-8.22616 -0.20412,-1.0604 -0.66273,-3.3162 -1.01915,-5.0128 -0.35643,-1.6967 -1.06332,-5.1093 -1.57088,-7.5836 -0.50756,-2.47426 -1.02177,-4.96141 -1.14272,-5.52696 -0.12095,-0.56555 -0.22494,-1.69345 -0.23108,-2.50643 l -0.0111,-1.47815 -9.37496,0 c -8.12671,0 -9.35573,0.0501 -9.23049,0.37648 0.0794,0.20707 -0.0977,0.71657 -0.39367,1.13223 -0.29599,0.41566 -0.53815,0.81893 -0.53815,0.89615 0,0.1278 -5.33954,7.46708 -9.84591,13.53348 -0.99779,1.3432 -2.16944,2.9383 -2.60365,3.5448 -0.43425,0.6064 -1.31059,1.7713 -1.94746,2.5887 -0.63686,0.8174 -1.62015,2.1721 -2.18509,3.0105 -0.56493,0.83836 -1.09625,1.58216 -1.18072,1.65286 -0.0845,0.071 -1.03499,1.3432 -2.11231,2.8277 -3.54761,4.8888 -11.40247,15.5435 -13.2363,17.9544 -0.60846,0.7999 -1.50473,1.6956 -1.9917,1.9905 -0.48696,0.2949 -0.81359,0.608 -0.72586,0.6957 0.0878,0.088 2.94322,0.1357 6.34545,0.1065 l 6.18591,-0.053 0.20633,-0.7712 z"
       id="path3893" />
    <path
       style="fill:#fbd200;fill-opacity:1"
       d="m 527.91131,1004.1865 c 0,-0.1149 1.93532,-2.8919 5.52699,-7.93056 0.84833,-1.1901 2.06298,-2.9171 2.69923,-3.8378 0.63625,-0.9207 1.22329,-1.6758 1.30455,-1.678 0.0813,0 0.29327,1.471 0.47111,3.2737 0.17784,1.8027 0.422,3.9139 0.54259,4.6915 0.12059,0.7776 0.29702,2.37296 0.39209,3.54516 l 0.1728,2.1313 -5.55468,-0.036 c -3.05507,-0.02 -5.55468,-0.091 -5.55468,-0.159 z"
       id="path3891" />
    <path
       style="fill:#000000"
       d="m 587.56692,991.18574 c 3.13706,-1.2912 5.48594,-3.6671 6.76962,-6.8477 1.75467,-4.34758 0.76675,-8.89787 -2.68316,-12.35851 -0.85086,-0.85351 -1.6509,-1.55184 -1.77785,-1.55184 -0.12699,0 -0.38372,-0.1446 -0.57057,-0.32133 -0.53033,-0.50171 -2.75578,-1.26246 -4.45278,-1.52219 -4.96604,-0.76003 -9.86429,1.87186 -12.15907,6.53321 -0.43561,0.88484 -0.92103,2.18454 -1.07874,2.88823 -0.50026,2.2322 0.16334,6.14203 1.33843,7.88593 0.25288,0.3753 0.45979,0.7843 0.45979,0.9088 0,0.4482 3.36188,3.3855 4.51216,3.9423 2.09993,1.0166 3.43198,1.2762 5.89915,1.1499 1.60427,-0.082 2.75189,-0.2989 3.74302,-0.7068 z"
       id="path3889" />
    <path
       style="fill:#fbd200;fill-opacity:1"
       d="m 581.39339,989.94124 c -2.84967,-0.5586 -5.57879,-2.6666 -6.96614,-5.3807 -0.73723,-1.4423 -0.86612,-1.9832 -0.96355,-4.04381 -0.0619,-1.30835 -0.004,-2.523 0.12895,-2.69922 0.13282,-0.17623 0.40339,-0.83289 0.60128,-1.45925 0.34879,-1.10401 2.82848,-4.13108 3.38404,-4.13108 0.13969,0 0.56102,-0.20666 0.93632,-0.45925 3.26249,-2.19574 8.76801,-1.39645 11.78943,1.71159 1.87065,1.92429 2.63672,3.84182 2.64237,6.61418 0.0103,4.96144 -3.30758,8.96474 -8.17535,9.86454 -1.60681,0.2971 -1.77956,0.2962 -3.37735,-0.017 z"
       id="path3887" />
    <path
       style="fill:#000000"
       d="m 581.17894,983.60254 0.0743,-2.2494 1.15681,-0.0839 c 0.63625,-0.0461 1.5773,0.0413 2.09121,0.19425 1.00005,0.29766 1.23828,0.74182 1.25069,2.33182 0.0139,1.7894 0.20152,2.0565 1.44387,2.0565 0.80973,0 1.12682,-0.1042 1.12682,-0.3704 0,-0.2038 -0.11568,-0.4419 -0.25706,-0.5293 -0.14139,-0.087 -0.25707,-0.7829 -0.25707,-1.5455 0,-1.5752 -0.41123,-2.69617 -0.98912,-2.69617 -0.27627,0 -0.17712,-0.22475 0.33492,-0.75919 0.53624,-0.55971 0.75917,-1.0902 0.84841,-2.0189 0.1123,-1.16869 0.0561,-1.32461 -0.77716,-2.15791 -0.8584,-0.85837 -0.99936,-0.90471 -3.17821,-1.04478 -1.25398,-0.0806 -2.91622,-0.11997 -3.69385,-0.0875 l -1.41388,0.0591 -0.0693,5.57526 -0.0693,5.57524 1.15182,0 1.1518,0 0.0743,-2.2493 z"
       id="path3885" />
    <path
       style="fill:#fbd200;fill-opacity:1"
       d="m 581.29606,979.51081 c -0.0943,-0.0943 -0.17138,-0.78835 -0.17138,-1.54242 l 0,-1.37103 2.15511,0 c 2.01761,0 2.16499,0.0369 2.3101,0.5784 0.32124,1.19871 0.17561,1.715 -0.5964,2.11422 -0.75547,0.39067 -3.37136,0.5469 -3.69743,0.22083 z"
       id="path3881" />
  </g>
</svg>
