<?xml version="1.0" encoding="UTF-8" standalone="no"?>
<!-- Created with Inkscape (http://www.inkscape.org/) -->

<svg
   xmlns:dc="http://purl.org/dc/elements/1.1/"
   xmlns:cc="http://creativecommons.org/ns#"
   xmlns:rdf="http://www.w3.org/1999/02/22-rdf-syntax-ns#"
   xmlns:svg="http://www.w3.org/2000/svg"
   xmlns="http://www.w3.org/2000/svg"
   xmlns:sodipodi="http://sodipodi.sourceforge.net/DTD/sodipodi-0.dtd"
   xmlns:inkscape="http://www.inkscape.org/namespaces/inkscape"
   width="735"
   height="105"
   viewBox="0 0 735 105"
   id="svg3824"
   version="1.1"
   inkscape:version="0.91pre3 r13670"
   sodipodi:docname="firestone.svg">
  <defs
     id="defs3826" />
  <sodipodi:namedview
     id="base"
     pagecolor="#ffffff"
     bordercolor="#666666"
     borderopacity="1.0"
     inkscape:pageopacity="0.0"
     inkscape:pageshadow="2"
     inkscape:zoom="0.9899495"
     inkscape:cx="267.3553"
     inkscape:cy="149.1258"
     inkscape:document-units="px"
     inkscape:current-layer="layer1"
     showgrid="false"
     units="px"
     inkscape:window-width="1366"
     inkscape:window-height="715"
     inkscape:window-x="-8"
     inkscape:window-y="-8"
     inkscape:window-maximized="1" />
  <metadata
     id="metadata3829">
    <rdf:RDF>
      <cc:Work
         rdf:about="">
        <dc:format>image/svg+xml</dc:format>
        <dc:type
           rdf:resource="http://purl.org/dc/dcmitype/StillImage" />
        <dc:title />
      </cc:Work>
    </rdf:RDF>
  </metadata>
  <g
     inkscape:label="Layer 1"
     inkscape:groupmode="layer"
     id="layer1"
     transform="translate(0,-947.36216)">
    <rect
       style="opacity:1;fill:#bf282d;fill-opacity:1;fill-rule:nonzero;stroke:none"
       id="rect3357"
       width="704"
       height="100"
       x="15.5"
       y="949.86218" />
    <path
       style="fill:#ffffff;fill-opacity:1"
       d="m 87.076558,1042.2072 c -0.743176,-0.078 -1.351219,-0.2112 -1.351219,-0.2966 0,-0.086 0.533995,-0.8548 1.186671,-1.7099 1.559814,-2.0434 2.779663,-4.9365 3.257348,-7.7251 0.500009,-2.9191 -0.0096,-6.9069 -1.925006,-15.0485 -2.042886,-8.6859 -2.384076,-11.8608 -1.84099,-17.1305 0.679546,-6.59365 2.915459,-14.79206 5.341912,-19.58723 l 0.893689,-1.76613 -4.267537,0.20871 c -6.464462,0.31614 -13.266471,2.36714 -18.935046,5.70944 -0.998063,0.58849 -1.856013,1.02205 -1.906544,0.96349 -0.280403,-0.32492 1.480207,-7.39562 2.576745,-10.34833 3.434781,-9.24896 8.361175,-14.61206 15.798916,-17.19939 2.700464,-0.9394 3.235514,-1.00029 8.467658,-0.96354 6.866725,0.0483 11.933085,0.88627 18.949785,3.13452 7.33426,2.35 11.90196,2.8322 19.0646,2.01259 4.28935,-0.49084 8.48267,-1.55772 11.30064,-2.87516 1.26086,-0.58947 2.37625,-1.07176 2.47861,-1.07176 0.28991,0 -0.22606,3.46999 -1.01797,6.84619 -1.04352,4.44893 -2.81957,7.79583 -5.50561,10.37509 -5.75224,5.52359 -13.26813,6.92793 -28.20504,5.2701 l -2.21243,-0.24556 -0.5801,2.55052 c -0.81592,3.58733 -0.69197,12.31722 0.17488,12.31722 0.16186,0 1.07499,-0.46031 2.02921,-1.02294 0.9542,-0.56262 3.10978,-1.56911 4.79017,-2.23663 2.80288,-1.11342 3.38266,-1.21495 7.01884,-1.22909 3.72866,-0.0146 4.10802,0.053 6.40071,1.13902 1.34042,0.63494 2.52116,1.37342 2.62387,1.64108 0.10268,0.26764 -1.12982,3.63965 -2.73894,7.49339 -1.6091,3.8536 -3.0672,7.3652 -3.24021,7.8035 l -0.31454,0.7967 -1.72576,-0.7796 c -2.08906,-0.944 -6.95775,-1.0921 -10.4456,-0.318 l -2.23395,0.4958 0.25216,1.1256 c 0.13869,0.6192 0.23635,3.8011 0.21703,7.0711 -0.0317,5.3621 -0.13068,6.2633 -1.00928,9.1882 -3.05373,10.1657 -10.33716,15.8848 -19.88401,15.6137 -1.172841,-0.033 -2.740494,-0.1243 -3.483662,-0.202 z m 265.650262,-16.2678 c -1.68452,-0.9423 -7.96959,-4.3725 -13.96681,-7.6225 -5.9972,-3.2502 -10.84956,-6.0728 -10.783,-6.2723 0.0666,-0.1999 1.37682,-1.3866 2.91165,-2.6375 l 2.79061,-2.2741 10.03723,5.1452 10.03722,5.1451 0.92785,-0.8716 c 0.61032,-0.5735 0.92785,-1.2544 0.92785,-1.9899 0,-2.0839 0.10317,-2.0003 -12.07091,-9.7618 -15.50483,-9.88489 -16.75516,-10.86294 -16.75516,-13.10655 0,-1.03102 0.80338,-2.54304 1.85747,-3.49596 1.08827,-0.98378 26.53559,-15.9949 27.09011,-15.98016 0.23043,0.006 4.14836,1.95684 8.70648,4.33489 4.55811,2.37808 10.27379,5.32925 12.70148,6.55815 2.42769,1.2289 4.40531,2.39951 4.39467,2.60137 -0.0231,0.43688 -6.33345,5.23139 -6.88546,5.23139 -0.21033,0 -3.78091,-1.77635 -7.93464,-3.94745 -4.15373,-2.17112 -7.83987,-4.03878 -8.19144,-4.15035 -0.89064,-0.28268 -2.55538,1.45491 -2.5408,2.65197 0.0201,1.66105 -0.0812,1.58519 11.15863,8.33995 8.89107,5.34321 15.09665,9.35475 15.91933,10.29085 1.8773,2.1361 1.33172,4.0213 -1.91722,6.6253 -2.47386,1.983 -24.63866,16.9518 -25.05536,16.9211 -0.16336,-0.012 -1.67526,-0.7929 -3.35978,-1.7351 z m 128.63632,0.4837 c -12.91285,-2.0353 -22.50065,-6.3679 -26.98898,-12.1964 -3.22444,-4.1873 -4.46901,-8.2511 -4.42707,-14.45554 0.0607,-8.98105 3.25074,-14.98729 10.5306,-19.8269 3.31348,-2.20279 6.80187,-3.77253 12.80875,-5.76382 6.66192,-2.2084 7.44491,-2.27751 12.22982,-1.07943 13.83627,3.46443 22.30572,8.62053 25.86899,15.74868 2.2924,4.58585 2.48563,8.52097 0.72205,14.70491 -2.7477,9.6347 -8.4608,15.2303 -21.75666,21.309 -2.54087,1.1616 -4.91336,2.0964 -5.27224,2.0772 -0.35886,-0.019 -2.03072,-0.2521 -3.71526,-0.5177 z m 6.36066,-14.2777 c 4.98901,-5.4279 3.76522,-16.45115 -2.58826,-23.31367 -1.96391,-2.12126 -5.59348,-4.37446 -7.04663,-4.37446 -0.91415,0 -2.74318,2.37457 -3.60773,4.68379 -1.64717,4.39943 -1.2606,9.3107 1.12022,14.23334 1.75972,3.6384 4.10842,6.307 7.49927,8.5204 2.8442,1.8568 3.13239,1.8724 4.62313,0.2506 z m -206.75153,14.0898 c -10.95216,-0.9663 -19.99672,-6.8658 -23.1715,-15.1138 -1.53504,-3.9882 -2.11479,-7.0961 -2.11728,-11.35024 -0.006,-8.68072 3.26217,-14.60451 10.56512,-19.15544 7.30249,-4.55064 16.69023,-7.77855 24.14184,-8.30101 l 2.70243,-0.18949 4.6999,4.81481 c 2.58495,2.64814 7.15549,7.32807 10.15678,10.39984 3.00128,3.07178 5.50751,5.71786 5.56938,5.88018 0.0618,0.1623 -6.45182,3.61341 -14.47488,7.66915 -8.02306,4.0556 -14.72105,7.5076 -14.88446,7.671 -0.16338,0.1635 0.50717,0.8132 1.49013,1.444 5.62752,3.6112 13.55655,3.8663 21.76579,0.7005 1.54193,-0.5946 2.95691,-1.0278 3.14442,-0.9629 0.18748,0.066 -0.59846,2.956 -1.74654,6.4241 l -2.08744,6.3056 -4.1141,1.1891 c -7.48924,2.1648 -15.49272,3.1168 -21.63959,2.5746 z m 5.09426,-30.78106 c 2.47724,-1.33115 4.57713,-2.49082 4.66641,-2.57702 0.18863,-0.18213 -8.31664,-8.78017 -8.68541,-8.78017 -0.13576,0 -1.14781,0.82344 -2.24899,1.82983 -3.93476,3.59617 -5.32945,8.6229 -3.52457,12.70318 l 0.74696,1.68854 2.27076,-1.22194 c 1.24892,-0.6723 4.2976,-2.3113 6.77484,-3.64242 z m 251.37385,29.98226 c -2.47782,-1.3295 -5.0535,-4.0068 -5.66646,-5.8898 -0.3217,-0.9884 -0.5202,-5.8937 -0.6763,-16.7127 -0.19287,-13.36613 -0.30125,-15.52496 -0.85213,-16.97359 -0.71329,-1.87582 -2.29679,-3.6596 -3.86492,-4.35373 -0.58171,-0.25749 -1.05463,-0.55019 -1.05093,-0.65045 0.01,-0.25153 21.32067,-8.68539 21.8974,-8.66577 0.83675,0.0285 3.11816,1.36965 4.10815,2.41503 1.06621,1.12581 2.4331,3.88474 2.44553,4.93595 0.006,0.38179 0.20135,0.59769 0.45834,0.50278 0.24772,-0.0915 4.66621,-1.50454 9.81888,-3.14017 5.15265,-1.63562 10.56472,-3.36173 12.02681,-3.8358 1.46209,-0.47409 2.94019,-0.86196 3.28463,-0.86196 1.11781,0 5.59023,2.46553 7.0079,3.86326 1.72999,1.70568 2.93572,4.27998 3.42233,7.30684 0.21019,1.30746 0.3777,7.97902 0.37921,15.10207 l 0.004,12.75984 0.89833,1.5329 c 0.49409,0.8431 1.664,2.1872 2.59976,2.9872 l 1.70141,1.4544 -9.28663,4.5211 c -5.10852,2.4867 -9.45809,4.5212 -9.66661,4.5212 -0.93958,0 -4.7945,-2.427 -5.89269,-3.7101 -2.35604,-2.7523 -2.44007,-3.3183 -2.66866,-17.9741 -0.19785,-12.68471 -0.23652,-13.25756 -0.96121,-14.23288 -1.59825,-2.15109 -4.79617,-2.27171 -10.42237,-0.39321 l -2.33478,0.77956 0,9.94773 0,9.9475 0.94334,1.8931 c 0.58757,1.1791 1.53347,2.3268 2.50822,3.0433 0.86068,0.6328 1.57121,1.2827 1.57895,1.4444 0.012,0.2511 -4.70404,2.5994 -10.74005,5.3475 -0.92243,0.42 -3.31817,1.5314 -5.3239,2.4702 l -3.64673,1.7068 -2.02843,-1.0884 z m 97.73223,0.8017 c -6.33619,-0.565 -12.56362,-3.0012 -16.97805,-6.6424 -5.1576,-4.2543 -7.75692,-10.1742 -8.09887,-18.4447 -0.31852,-7.70512 1.29959,-12.39476 5.82308,-16.87635 5.20186,-5.1536 15.54349,-9.83887 25.52182,-11.56261 6.01665,-1.03939 4.76703,-1.8117 16.38045,10.12375 8.85248,9.09801 10.0916,10.50669 9.58078,10.8919 -0.32272,0.24334 -6.92493,3.62617 -14.67158,7.51751 -7.74667,3.8912 -14.21831,7.1982 -14.38146,7.3489 -0.28607,0.2643 0.60419,0.9062 3.43721,2.4786 4.86438,2.6999 13.30569,2.3857 21.09131,-0.7852 1.23863,-0.5046 2.25503,-0.8071 2.25868,-0.6723 0.004,0.1348 -0.92009,3.0582 -2.05271,6.4965 -2.35023,7.1346 -1.58406,6.3519 -7.83117,7.9993 -7.05425,1.8604 -14.37345,2.6357 -20.07949,2.1271 z m 5.54465,-30.9988 c 2.32861,-1.26508 4.23383,-2.38696 4.23383,-2.49306 0,-0.10606 -1.92888,-2.11677 -4.28643,-4.46819 l -4.28648,-4.27527 -1.51185,1.21498 c -4.471,3.59299 -6.17937,8.90932 -4.28104,13.3222 l 0.7679,1.78484 2.56512,-1.39264 c 1.41082,-0.766 4.47035,-2.4278 6.79895,-3.69286 z m -484.56941,29.7277 c -2.87642,-1.7309 -3.24454,-2.1032 -4.39427,-4.4444 l -0.98941,-2.0147 -0.18018,-15.5029 -0.18015,-15.50268 -1.17996,-2.39554 c -1.0341,-2.09941 -1.40777,-2.50907 -3.02297,-3.31395 -1.7524,-0.87327 -1.80067,-0.93471 -0.98201,-1.24989 0.47356,-0.1823 5.36185,-2.13265 10.86288,-4.33411 5.501,-2.20145 10.25026,-4.00264 10.55388,-4.00264 1.04835,0 3.33983,1.42476 4.44201,2.76189 2.30455,2.79583 2.33262,3.0212 2.55032,20.47913 0.14252,11.42979 0.32203,16.13409 0.64315,16.85659 0.24502,0.5511 1.36141,1.8822 2.48091,2.958 l 2.03547,1.9558 -4.57131,2.1765 c -2.51422,1.1972 -4.62655,2.1767 -4.69408,2.1767 -0.0675,0 -2.34092,1.054 -5.05194,2.3421 -2.71105,1.2882 -5.21095,2.3421 -5.55537,2.3421 -0.34441,0 -1.58956,-0.5796 -2.76697,-1.288 z m 44.1714,0.1884 c -2.53915,-1.3994 -3.2895,-2.1261 -4.5572,-4.4138 l -1.03813,-1.8732 -0.19156,-15.494 c -0.18461,-14.93143 -0.22062,-15.56685 -0.99194,-17.49949 -0.89073,-2.23185 -2.17026,-3.64406 -3.9967,-4.4111 -0.66915,-0.28103 -1.07452,-0.5955 -0.90081,-0.69882 1.04577,-0.62216 21.45386,-8.55774 21.99558,-8.55287 1.15448,0.0108 3.46978,1.56759 4.66962,3.14069 0.70751,0.92759 1.33538,2.33258 1.60931,3.6012 0.24704,1.14409 0.47965,2.12465 0.51688,2.17901 0.0372,0.0544 3.53641,-1.59427 7.77594,-3.66364 l 7.70823,-3.76247 0.80624,0.96119 c 2.24376,2.67498 12.70283,17.18529 12.60302,17.48472 -0.1135,0.34067 -15.27625,8.51918 -15.79429,8.51918 -0.14614,0 -2.1015,-1.95724 -4.34524,-4.34921 -5.13179,-5.47096 -6.33691,-6.18502 -7.86293,-4.659 -0.68326,0.68324 -0.72066,1.20109 -0.72066,9.97541 0,10.6997 0.10497,11.1398 3.32785,13.9592 l 1.82198,1.5938 -3.56581,1.6784 c -9.85473,4.6385 -15.95862,7.3838 -16.40366,7.3779 -0.27182,0 -1.38138,-0.4954 -2.46572,-1.0931 z m 210.96051,0.3143 c -2.55814,-1.3375 -4.08047,-2.7971 -5.11555,-4.905 l -1.00998,-2.0568 -0.10474,-15.4038 -0.10463,-15.40389 -6.11097,0 c -3.36101,0 -6.11094,-0.1272 -6.11094,-0.28263 0,-0.15547 0.52696,-0.59337 1.17106,-0.97317 0.98231,-0.57924 12.43982,-8.11295 29.40637,-19.33571 2.05324,-1.35815 3.79632,-2.46936 3.8735,-2.46936 0.0773,0 0.14035,2.4322 0.14035,5.4049 l 0,5.40488 6.84619,0 6.84619,0 0,6.12555 0,6.12554 -6.48586,0 -6.48587,0 0,11.54205 c 0,13.31264 -0.0313,13.15154 3.13938,16.10664 l 2.02298,1.8854 -2.67128,1.2336 c -1.46916,0.6783 -5.8331,2.7078 -9.6976,4.5099 -3.8645,1.802 -7.26957,3.2694 -7.56684,3.2609 -0.29727,-0.01 -1.18907,-0.3545 -1.9818,-0.769 z"
       id="path3843"
       inkscape:connector-curvature="0" />
  </g>
</svg>
