<?xml version="1.0" encoding="UTF-8" standalone="no"?>
<!-- Created with Inkscape (http://www.inkscape.org/) -->

<svg
   xmlns:dc="http://purl.org/dc/elements/1.1/"
   xmlns:cc="http://creativecommons.org/ns#"
   xmlns:rdf="http://www.w3.org/1999/02/22-rdf-syntax-ns#"
   xmlns:svg="http://www.w3.org/2000/svg"
   xmlns="http://www.w3.org/2000/svg"
   xmlns:sodipodi="http://sodipodi.sourceforge.net/DTD/sodipodi-0.dtd"
   xmlns:inkscape="http://www.inkscape.org/namespaces/inkscape"
   width="735"
   height="105"
   viewBox="0 0 735 105"
   id="svg3374"
   version="1.1"
   inkscape:version="0.91pre3 r13670"
   sodipodi:docname="goodyear.svg">
  <defs
     id="defs3376" />
  <sodipodi:namedview
     id="base"
     pagecolor="#ffffff"
     bordercolor="#666666"
     borderopacity="1.0"
     inkscape:pageopacity="0.0"
     inkscape:pageshadow="2"
     inkscape:zoom="0.98994949"
     inkscape:cx="414.32428"
     inkscape:cy="131.53214"
     inkscape:document-units="px"
     inkscape:current-layer="layer1"
     showgrid="false"
     units="px"
     inkscape:window-width="1366"
     inkscape:window-height="715"
     inkscape:window-x="-8"
     inkscape:window-y="-8"
     inkscape:window-maximized="1" />
  <metadata
     id="metadata3379">
    <rdf:RDF>
      <cc:Work
         rdf:about="">
        <dc:format>image/svg+xml</dc:format>
        <dc:type
           rdf:resource="http://purl.org/dc/dcmitype/StillImage" />
        <dc:title></dc:title>
      </cc:Work>
    </rdf:RDF>
  </metadata>
  <g
     inkscape:label="Layer 1"
     inkscape:groupmode="layer"
     id="layer1"
     transform="translate(0,-947.36216)">
    <path
       style="fill:#133984;fill-opacity:1"
       d="m 2.5,999.86216 0,-50 365,0 365,0 0,50 0,50.00004 -365,0 -365,0 0,-50.00004 z"
       id="path3439"
       inkscape:connector-curvature="0" />
    <g
       id="g3459"
       transform="matrix(0.36908485,0,0,0.36908485,428.97354,853.77683)">
      <path
         inkscape:connector-curvature="0"
         id="path3437"
         d="m -189.92599,493.88704 c 14.28255,-8.83845 20.89509,-14.17176 34.35456,-27.70849 28.72137,-28.88624 45.67675,-43.0196 65.250003,-54.38992 2.6125,-1.51763 4.75,-3.11671 4.75,-3.55352 0,-0.4368 -0.81485,-1.80049 -1.81078,-3.03041 l -1.81079,-2.23623 -8.43921,5.28044 c -8.263643,5.17058 -20.970913,14.21663 -23.943783,17.04508 -0.82397,0.78395 -3.74752,3.21516 -6.49677,5.40269 -2.74927,2.18752 -13.33642,12.32445 -23.52701,22.52649 -21.0652,21.08887 -34.78179,31.93532 -50.38139,39.83927 l -10.54535,5.34308 1.49314,2.88741 1.49314,2.88741 5.2344,-2.31692 c 2.87893,-1.2743 9.34986,-4.86367 14.37985,-7.97638 z"
         style="fill:#ffeb01;fill-opacity:1" />
      <path
         inkscape:connector-curvature="0"
         id="path3435"
         d="m -210.94355,490.61765 c 21.2606,-8.79442 29.37653,-15.06512 54.50794,-42.11514 l 9.49218,-10.21684 -10.87141,-21.59736 c -6.43132,-12.77659 -11.35546,-21.436 -12.05661,-21.20229 -2.49845,0.83282 -15.08608,29.34831 -20.40883,46.23333 -3.83844,12.17643 -8.11056,19.33607 -17.95794,30.09567 -7.41657,8.10362 -8.58174,9.8384 -9.07425,13.51029 -0.31709,2.36412 -0.0313,4.46347 0.7331,5.38447 1.51816,1.82928 0.9691,1.83826 5.63582,-0.0921 z"
         style="fill:#ffeb01;fill-opacity:1" />
      <path
         id="path3433"
         transform="translate(0,947.36216)"
         d="m -546.4082,-611.77539 c -7.93485,0.0844 -15.84205,0.94302 -20.66407,2.54101 -11.64587,3.85941 -19.2545,8.68336 -28.5,18.06836 -14.50531,14.72414 -21.75121,30.03049 -22.73437,48.02149 -0.84103,15.39015 2.57059,26.52851 10.89062,35.55469 7.59038,8.23459 17.07529,13.22398 29.36329,15.44726 7.26022,1.3136 23.81695,0.34558 32.625,-1.9082 11.9,-3.04494 24.86959,-10.41671 31.67578,-18.00586 9.91055,-11.05064 14.61112,-18.90534 19.37695,-32.37695 3.00378,-8.4908 3.2599,-10.1832 3.28125,-21.70899 0.0215,-11.62945 -0.17402,-12.92604 -2.79883,-18.60547 -5.06795,-10.96577 -17.27398,-20.56916 -31.67969,-24.92773 -4.93858,-1.49421 -12.90108,-2.18399 -20.83593,-2.09961 z m 1.13281,18.63281 c 4.74068,0 7.06784,1.42052 8.20703,5.00977 0.77287,2.43509 -15.93678,69.91501 -18.62305,75.20703 -2.57346,5.0698 -7.96709,7.55389 -12.52343,5.76758 -2.44442,-0.95834 -5.33897,-4.69158 -5.39454,-6.95703 -0.0206,-0.84012 3.91689,-17.46774 8.75,-36.95118 8.06346,-32.50582 9.04508,-35.69843 11.90626,-38.75 2.64918,-2.82547 3.80304,-3.32617 7.67773,-3.32617 z"
         style="fill:#ffeb01;fill-opacity:1"
         inkscape:connector-curvature="0" />
      <path
         id="path3429"
         transform="translate(0,947.36216)"
         d="m -404.83789,-611.57812 c -9.0389,0.0507 -12.08212,0.51122 -17.73438,2.26757 -19.42047,6.03464 -35.36783,20.4013 -45.14453,40.66797 -8.7011,18.03698 -9.15187,38.99496 -1.15625,53.68555 6.34534,11.65848 20.68712,20.69311 36.80078,23.18164 5.86347,0.90553 23.51929,-0.45427 31.11329,-2.39649 8.7189,-2.22991 20.25234,-8.08833 26.96289,-13.69531 9.64988,-8.06292 18.57805,-21.82231 23.625,-36.41015 2.97026,-8.58532 3.24251,-10.40578 3.26953,-21.86524 0.0274,-11.62694 -0.16555,-12.91907 -2.76953,-18.5 -4.98677,-10.68782 -16.31007,-20.05742 -29.84375,-24.69336 -5.33516,-1.82754 -8.68802,-2.18657 -20.85743,-2.24023 -1.56109,-0.007 -2.97435,-0.009 -4.26562,-0.002 z m 3.5625,18.43554 c 4.88477,0 7.30826,1.57414 8.25977,5.36524 0.55901,2.22725 -15.38127,67.88836 -18.00586,74.16992 -2.25523,5.39749 -8.95016,8.44506 -13.53321,6.16015 -1.35064,-0.67336 -3.13957,-2.44196 -3.97461,-3.92968 -1.4322,-2.55164 -1.00789,-4.75669 7.47071,-38.91602 8.25987,-33.27814 9.23998,-36.4813 12.10547,-39.53125 2.64704,-2.81747 3.80616,-3.31836 7.67773,-3.31836 z"
         style="fill:#ffeb01;fill-opacity:1"
         inkscape:connector-curvature="0" />
      <path
         inkscape:connector-curvature="0"
         id="path3425"
         d="m -648.16753,445.96935 c 1.01578,-3.9875 4.49046,-17.48245 7.72149,-29.98878 3.23105,-12.50632 5.87463,-22.97655 5.87463,-23.26717 0,-0.29061 -11.33046,-0.40817 -25.17879,-0.26122 l -25.17879,0.26717 -6.13968,22.5 -6.13967,22.5 -7.166,0.2935 c -9.27175,0.37974 -11.19707,-0.63803 -11.19707,-5.91904 0,-2.23034 2.74659,-14.70201 6.10353,-27.71481 11.6548,-45.17849 11.98356,-46.04461 18.51301,-48.77279 7.09065,-2.96266 19.08022,-1.12846 27.5425,4.21354 2.09066,1.31978 4.03013,2.3996 4.30993,2.3996 0.27979,0 2.31139,-3.58536 4.51468,-7.96748 l 4.00597,-7.96747 -3.71755,-2.52614 c -7.55067,-5.13081 -12.28523,-6.04113 -31.27207,-6.01275 -17.02247,0.0254 -17.76159,0.11398 -27.08665,3.24463 -30.40336,10.20712 -48.92061,34.12944 -50.62353,65.40022 -0.95497,17.53618 2.11617,27.8967 10.87274,36.67933 9.39039,9.41832 12.60149,9.93185 62.86595,10.05378 l 39.52851,0.0959 1.84687,-7.25 z"
         style="fill:#ffeb01;fill-opacity:1" />
      <path
         id="path3423"
         transform="translate(0,947.36216)"
         d="m -313.14453,-608.20703 -3.71289,14.78125 c -2.04221,8.1301 -8.43071,33.2332 -14.19531,55.7832 -5.76459,22.55 -10.48948,41.5625 -10.5,42.25 -0.0293,1.91298 75.99221,1.7419 85.11328,-0.1914 9.92399,-2.1035 19.40012,-7.6432 29.99804,-17.53711 4.03718,-3.769 11.70334,-15.23582 15.20118,-22.73829 7.40151,-15.87533 8.78743,-37.58401 3.19531,-50.04492 -3.39898,-7.57394 -11.1558,-15.23877 -19.27344,-19.04297 l -5.75391,-2.69531 -40.03515,-0.2832 -40.03711,-0.28125 z m 45.07226,16.56445 5.5,0.0312 c 12.12289,0.0708 14.1342,2.75268 11.04688,14.73633 -1.02469,3.97739 -4.87741,18.93242 -8.56055,33.23242 -7.0636,27.4247 -8.33035,30.999 -11.32422,31.94922 -2.85641,0.90659 -16.08844,1.48914 -16.5039,0.72656 -0.20229,-0.37131 4.18048,-18.67578 9.73828,-40.67578 l 10.10351,-40 z"
         style="fill:#ffeb01;fill-opacity:1"
         inkscape:connector-curvature="0" />
      <path
         inkscape:connector-curvature="0"
         id="path3419"
         d="m -6.7483343,449.96935 c 0.5044,-1.7875 3.48568,-12.475 6.62507001,-23.75 3.13939999,-11.275 6.65430999,-21.85 7.81091999,-23.5 1.93205,-2.75619 21.6048703,-26.80075 42.9545603,-52.5 l 8.72289,-10.5 -12.60537,-0.2809 c -10.28759,-0.22925 -12.92174,0.005 -14.32591,1.27616 -0.9463,0.85639 -8.87005,9.83484 -17.60834,19.95211 -8.7383003,10.11728 -15.9935203,18.28935 -16.1227103,18.16015 -0.1292,-0.1292 -2.88062,-8.98125 -6.11427,-19.67121 l -5.8793597,-19.43631 -27.547133,-0.26565 -27.54713,-0.26566 1.45697,4.76566 c 0.80134,2.62111 5.06158,16.83667 9.46722,31.59013 l 8.01024,26.82448 -6.06037,24.27072 c -3.3332,13.34889 -6.06037,24.79037 -6.06037,25.42552 0,0.8445 7.24226,1.1548 26.953,1.1548 l 26.9529927,0 0.9171,-3.25 z"
         style="fill:#ffeb01;fill-opacity:1" />
      <path
         inkscape:connector-curvature="0"
         id="path3417"
         d="m 134.85797,451.44183 c 0.31029,-0.97763 1.25523,-4.46513 2.09987,-7.75 0.84465,-3.28486 1.77642,-6.75998 2.07062,-7.72248 0.49739,-1.62728 -0.9074,-1.75 -20.03249,-1.75 -15.79551,0 -20.563804,-0.29002 -20.551904,-1.25 0.009,-0.6875 1.51514,-6.875 3.348064,-13.75 l 3.33257,-12.5 14.03461,-0.27674 14.03462,-0.27674 2.50083,-9.97326 2.50082,-9.97326 -13.3835,0 c -10.03849,0 -13.38427,-0.31242 -13.38657,-1.25 -0.002,-0.6875 1.41552,-6.7625 3.14935,-13.5 l 3.15242,-12.25 20.6992,0 20.69917,0 2.29572,-8.75 c 1.26264,-4.8125 2.50395,-9.3125 2.75845,-10 0.36609,-0.98894 -9.44484,-1.25 -46.97577,-1.25 l -47.438524,0 -1.02272,4.25 c -0.5625,2.3375 -7.16332,27.71137 -14.66848,56.38638 -7.50516,28.67501 -13.64575,52.41251 -13.64575,52.75 0,0.33749 21.11968,0.61362 46.93261,0.61362 44.096254,0 46.966714,-0.10742 47.496784,-1.77752 z"
         style="fill:#ffeb01;fill-opacity:1" />
      <path
         id="path3415"
         transform="translate(0,947.36216)"
         d="m 213.21875,-607.64258 -9.74609,16 c -5.3599,8.8 -17.7553,29.05 -27.54493,45 -27.23603,44.37291 -31.5,51.40715 -31.5,51.97461 0,0.28842 4.91762,0.52539 10.92774,0.52539 l 10.92773,0 5.32227,-8.48047 5.32226,-8.48047 20.61133,-0.0195 20.61133,-0.0195 0.63086,5.25 c 0.3468,2.8875 0.63387,6.7125 0.63867,8.5 l 0.01,3.25 25.56054,0 25.56055,0 -0.66797,-6.77344 c -0.367,-3.72496 -2.54414,-29.26246 -4.83984,-56.75 l -4.17383,-49.97656 -23.82617,0 -23.82422,0 z m -1.02734,38.92969 c 0.25801,0.25799 1.07842,7.12908 1.82421,15.26953 0.74582,8.14045 1.62122,16.71328 1.94532,19.05078 l 0.58984,4.25 -14.09375,0 -14.0918,0 1.28125,-2.29101 c 5.51985,-9.8604 22.17043,-36.65385 22.54493,-36.2793 z"
         style="fill:#ffeb01;fill-opacity:1"
         inkscape:connector-curvature="0" />
      <path
         id="path3411"
         transform="translate(0,947.36216)"
         d="m 313.73438,-608.21875 -2.59766,9.78906 c -1.4281,5.38327 -8.07187,30.46776 -14.76367,55.74414 -6.6917,25.27638 -12.38921,46.53888 -12.66211,47.25 -0.398,1.0372 4.73975,1.29297 25.97265,1.29297 l 26.46875,0 4.19922,-15.25 c 2.31,-8.3875 4.43611,-16.06411 4.72461,-17.05859 0.3674,-1.26682 1.30602,-1.71589 3.13672,-1.5 2.5046,0.29536 2.7835,0.99313 6.7207,16.80859 l 4.10743,16.5 26.77734,0.26563 26.77734,0.26757 -0.67187,-3.26757 c -0.3695,-1.79657 -2.20789,-10.32826 -4.08399,-18.96094 -1.8762,-8.63268 -3.41211,-16.36427 -3.41211,-17.18164 0,-0.81737 1.4625,-2.5138 3.25,-3.76758 6.8394,-4.79723 15.06221,-13.54591 17.72071,-18.85547 10.2039,-20.37906 4.27259,-39.89904 -14.84961,-48.86523 l -5.6211,-2.63477 -45.5957,-0.28711 -45.59765,-0.28906 z m 54.90039,16.15234 c 5.80805,-0.087 8.87582,1.00845 10.01367,3.50586 0.9231,2.02599 0.41522,5.59184 -2.79688,19.66211 -5.0424,22.08793 -5.33952,22.49139 -16.95312,22.9336 -4.661,0.17748 -8.44982,0.0973 -8.41992,-0.17774 0.03,-0.275 2.41613,-10.625 5.30273,-23 l 5.24805,-22.5 4.94726,-0.31445 c 0.94399,-0.0601 1.82848,-0.0969 2.65821,-0.10938 z"
         style="fill:#ffeb01;fill-opacity:1"
         inkscape:connector-curvature="0" />
      <path
         inkscape:connector-curvature="0"
         id="path3407"
         d="m -121.07143,417.30087 c 4.95,-3.74964 13.275,-9.64463 18.5,-13.09998 5.225003,-3.45534 9.608593,-6.36083 9.741313,-6.45664 0.47835,-0.3453 -9.024173,-16.5249 -9.705323,-16.5249 -0.38392,0 -1.32762,1.1764 -2.09712,2.61422 -0.76949,1.43781 -3.65128,4.63913 -6.40396,7.11403 l -5.00488,4.49981 -3.90851,-4.36403 c -2.14968,-2.40022 -5.47389,-7.63708 -7.38716,-11.63746 l -3.47866,-7.27344 -4.12784,2.38361 c -2.27032,1.31098 -9.41535,5.18395 -15.87785,8.60659 -6.4625,3.42265 -11.75,6.61959 -11.75,7.10433 0,0.73274 18.88145,39.33347 20.60013,42.11436 0.30045,0.48613 3.10083,-1.17416 6.22307,-3.68955 3.12224,-2.51538 9.7268,-7.64131 14.6768,-11.39095 z"
         style="fill:#ffeb01;fill-opacity:1" />
      <path
         inkscape:connector-curvature="0"
         id="path3405"
         d="m -151.71517,374.89778 c 7.34595,-3.73958 13.12162,-7.03389 12.83483,-7.32068 -0.4499,-0.4499 -21.27249,-3.32349 -24.26533,-3.3487 -0.61852,-0.005 -1.46935,3.80983 -2.00558,8.99281 -0.51222,4.95102 -0.70381,8.8835 -0.42574,8.73883 0.27806,-0.14466 6.51589,-3.32268 13.86183,-7.06226 z"
         style="fill:#ffeb01;fill-opacity:1" />
      <path
         id="path3403"
         transform="translate(0,947.36216)"
         d="m 34.666016,-659.92773 c -0.177041,-0.0218 -0.386315,0.0116 -0.63086,0.10546 -0.76677,0.29423 -7.40427,1.30264 -14.75,2.24024 -11.1804798,1.42705 -18.32525155,1.60303 -43.857422,1.07812 -16.775003,-0.34487 -37.147607,-0.91708 -45.273437,-1.27148 -31.701417,-1.38265 -48.122367,4.61879 -55.914067,20.4375 -3.47627,7.0575 -3.32278,19.73752 0.32422,26.80078 2.50139,4.8445 2.61085,5.66702 2.11914,16.04102 -0.40558,8.55698 -0.14339,12.23131 1.20313,16.89453 1.66817,5.77714 5.71167,12.45898 7.54101,12.45898 0.49402,0 1.99577,-1.4625 3.33594,-3.25 3.16125,-4.21644 6.11762,-10.16479 7.72266,-15.53711 l 1.28125,-4.28711 3.871092,3.7793 c 3.20872,3.13322 4.034908,3.52444 4.830078,2.28711 1.01895,-1.58556 2.518839,-6.53563 3.568359,-11.7832 l 0.636719,-3.18164 3.019531,2.54296 3.021485,2.54102 1.822265,-2.77539 c 2.12752,-3.24321 3.890625,-10.72106 3.890625,-16.49219 0,-3.49002 0.24486,-3.95058 1.75,-3.29101 0.9625,0.42178 4.996071,0.96871 8.962891,1.21484 5.98507,0.37137 7.98458,0.0728 11.75,-1.75 2.49568,-1.20814 4.537109,-2.5158 4.537109,-2.90625 0,-0.39045 -1.6875,-1.34431 -3.75,-2.11914 l -3.75,-1.4082 6.283204,-0.73438 c 7.798459,-0.91242 9.392235,-1.41231 12.634765,-3.96289 3.48938,-2.74475 3.261373,-3.52306 -1.248047,-4.24414 -3.36974,-0.53885 -8.198278,-3.98063 -7.080078,-5.04688 0.22581,-0.21529 3.110156,0.0733 6.410156,0.64063 9.336293,1.60526 42.9475504,1.52687 49.5000004,-0.11523 12.1231306,-3.03818 21.3771096,-9.53084 25.1113276,-17.6211 1.959835,-4.24601 2.366239,-7.13276 1.126954,-7.28515 z m -115.076172,13.38867 c 0.852993,10e-4 1.854778,0.0612 3.08789,0.16406 3.1625,0.2638 5.75,0.85776 5.75,1.32031 0,1.14336 -3.45387,2.91211 -5.6875,2.91211 -1.00044,0 -3.09307,1.35 -4.65039,3 -2.20894,2.34037 -3.691734,3 -6.746094,3 -2.15337,0 -3.916016,0.37814 -3.916016,0.83985 0,2.84066 -10.334874,4.1297 -13.558594,1.6914 -1.85402,-1.40231 -1.81193,-1.46962 0.91016,-1.5 1.89652,-0.0212 4.02055,-1.2022 6.349606,-3.53125 2.47276,-2.47275 4.395908,-3.5 6.554688,-3.5 1.68058,0 4.44847,-1.05977 6.15039,-2.35547 1.990815,-1.51563 3.196879,-2.04484 5.75586,-2.04101 z m -36.804684,27.94336 c 0.92466,0.0223 2.23331,0.13741 3.61718,0.33008 4.34902,0.60549 4.49208,0.74167 5.19922,4.88867 0.40003,2.34595 1.00125,4.70845 1.33594,5.25 1.43707,2.32522 -2.55296,0.73055 -4.41797,-1.76563 -1.13006,-1.5125 -3.28155,-3.96965 -4.78125,-5.45898 -1.4997,-1.48932 -2.51992,-2.8929 -2.26758,-3.1211 0.0631,-0.0571 0.24731,-0.0953 0.5293,-0.11328 0.21149,-0.0135 0.47694,-0.0172 0.78516,-0.01 z"
         style="fill:#ffeb01;fill-opacity:1"
         inkscape:connector-curvature="0" />
      <path
         inkscape:connector-curvature="0"
         id="path3397"
         d="m -131.93587,351.46935 c 0.56747,-4.2625 0.96237,-7.85674 0.87757,-7.9872 -0.0848,-0.13046 -5.87964,3.01954 -12.87742,7 l -12.72322,7.2372 5.29376,0.587 c 2.91157,0.32286 8.24211,0.66036 11.84565,0.75 l 6.55191,0.163 1.03175,-7.75 z"
         style="fill:#ffeb01;fill-opacity:1" />
      <path
         inkscape:connector-curvature="0"
         id="path3393"
         d="m -151.57143,346.1953 c 9.075,-5.13218 16.60586,-9.39467 16.73525,-9.47218 0.12939,-0.0775 -0.29294,-2.65915 -0.93852,-5.73697 -0.95925,-4.57323 -0.89573,-6.89101 0.34752,-12.68141 0.83671,-3.89696 1.3294,-7.08539 1.09486,-7.08539 -0.23454,0 -6.57179,3.45451 -14.08277,7.6767 -7.51099,4.22218 -17.70634,9.92287 -22.65634,12.66819 -4.95,2.74533 -9.22164,5.17495 -9.49254,5.39917 -1.21191,1.00312 10.47012,19.62908 11.8538,18.89979 0.35131,-0.18516 8.06375,-4.53572 17.13874,-9.6679 z"
         style="fill:#ffeb01;fill-opacity:1" />
    </g>
  </g>
</svg>
