<?xml version="1.0" encoding="UTF-8" ?>
<!DOCTYPE svg PUBLIC "-//W3C//DTD SVG 1.1//EN" "http://www.w3.org/Graphics/SVG/1.1/DTD/svg11.dtd">
<svg width="416pt" height="128pt" viewBox="0 0 416 128" version="1.1" xmlns="http://www.w3.org/2000/svg">
<g id="#ffffffff">
</g>
<g id="#050001ff">
<path fill="#050001" opacity="1.00" d=" M 67.40 29.44 C 81.73 21.36 101.15 23.39 113.14 34.80 C 119.53 39.99 123.45 47.56 125.73 55.34 C 123.30 51.41 121.92 46.80 118.56 43.47 C 109.18 32.32 91.75 28.91 79.03 36.16 C 72.56 40.31 66.95 46.20 64.35 53.56 C 58.83 53.15 53.23 53.69 48.03 55.69 C 51.07 45.07 57.42 34.75 67.40 29.44 Z" />
<path fill="#050001" opacity="1.00" d=" M 179.79 40.54 C 184.59 40.53 189.38 40.53 194.18 40.53 C 194.15 46.01 194.16 51.49 194.17 56.97 C 198.77 56.89 203.36 56.93 207.96 56.96 C 207.99 51.48 207.97 46.01 207.98 40.54 C 212.77 40.53 217.55 40.54 222.34 40.53 C 222.47 53.75 222.02 67.00 222.59 80.21 C 228.39 67.29 232.43 53.63 237.78 40.51 C 242.50 40.61 247.23 40.39 251.96 40.68 C 256.58 53.89 261.34 67.09 266.43 80.13 C 267.36 66.97 266.58 53.73 266.84 40.54 C 271.63 40.53 276.43 40.57 281.23 40.48 C 281.20 56.27 281.21 72.06 281.22 87.85 C 272.13 87.66 263.04 87.95 253.96 87.68 C 253.44 85.35 252.83 83.04 252.22 80.74 C 247.08 80.64 241.93 80.69 236.79 80.70 C 236.09 83.08 235.39 85.45 234.76 87.84 C 225.84 87.77 216.91 87.73 207.98 87.86 C 207.96 81.48 208.02 75.11 207.93 68.73 C 203.34 68.75 198.76 68.75 194.19 68.73 C 194.15 75.10 194.15 81.48 194.18 87.85 C 189.38 87.76 184.58 87.76 179.78 87.85 C 179.80 72.08 179.78 56.31 179.79 40.54 M 240.12 70.91 C 243.04 71.24 245.99 71.25 248.92 71.16 C 248.31 66.15 246.17 61.49 245.02 56.59 C 242.70 61.06 241.41 66.05 240.12 70.91 Z" />
<path fill="#050001" opacity="1.00" d=" M 283.00 40.52 C 291.64 40.60 300.29 40.41 308.93 40.62 C 316.19 40.65 323.18 45.10 326.08 51.79 C 329.15 59.27 329.16 67.97 326.35 75.54 C 323.75 81.86 317.61 85.93 311.02 87.02 C 301.76 88.57 292.33 87.40 283.00 87.86 C 283.00 72.08 283.00 56.30 283.00 40.52 M 297.66 52.44 C 297.66 60.22 297.57 68.00 297.70 75.78 C 302.01 75.75 306.99 76.41 310.61 73.56 C 315.42 68.23 315.56 58.07 309.08 53.95 C 305.63 51.95 301.46 52.52 297.66 52.44 Z" />
<path fill="#050001" opacity="1.00" d=" M 342.30 40.56 C 346.97 40.49 351.66 40.60 356.34 40.47 C 362.46 56.15 367.84 72.13 373.86 87.86 C 368.85 87.72 363.84 87.78 358.83 87.84 C 358.06 85.53 357.45 83.16 357.00 80.77 C 351.89 80.60 346.77 80.72 341.66 80.67 C 340.81 83.03 340.03 85.42 339.32 87.82 C 334.55 87.76 329.77 87.83 325.00 87.74 C 330.64 71.97 336.70 56.35 342.30 40.56 M 349.23 56.44 C 347.66 61.31 345.99 66.17 344.94 71.18 C 347.88 71.19 350.83 71.19 353.78 71.19 C 352.81 66.13 351.35 61.14 349.23 56.44 Z" />
<path fill="#050001" opacity="1.00" d=" M 110.09 73.58 C 115.57 73.83 121.09 73.46 126.25 71.46 C 122.48 88.53 106.59 102.18 88.97 102.39 C 70.57 103.67 52.24 89.74 49.12 71.50 C 52.88 84.85 66.01 95.09 80.01 94.60 C 93.21 94.97 105.60 85.83 110.09 73.58 Z" />
</g>
<g id="#e20a15ff">
<path fill="#e20a15" opacity="1.00" d=" M 8.76 70.73 C 42.57 57.92 79.48 56.09 115.18 59.01 C 129.87 60.60 144.66 63.07 158.39 68.73 C 108.74 62.64 58.20 62.70 8.76 70.73 Z" />
</g>
</svg>
