<?xml version="1.0" encoding="UTF-8" standalone="no"?>
<!-- Created with Inkscape (http://www.inkscape.org/) -->

<svg
   xmlns:dc="http://purl.org/dc/elements/1.1/"
   xmlns:cc="http://creativecommons.org/ns#"
   xmlns:rdf="http://www.w3.org/1999/02/22-rdf-syntax-ns#"
   xmlns:svg="http://www.w3.org/2000/svg"
   xmlns="http://www.w3.org/2000/svg"
   xmlns:sodipodi="http://sodipodi.sourceforge.net/DTD/sodipodi-0.dtd"
   xmlns:inkscape="http://www.inkscape.org/namespaces/inkscape"
   width="735"
   height="105"
   viewBox="0 0 735 105"
   id="svg3476"
   version="1.1"
   inkscape:version="0.91pre3 r13670"
   sodipodi:docname="hankook.svg">
  <defs
     id="defs3478" />
  <sodipodi:namedview
     id="base"
     pagecolor="#ffffff"
     bordercolor="#666666"
     borderopacity="1.0"
     inkscape:pageopacity="0.0"
     inkscape:pageshadow="2"
     inkscape:zoom="0.49497475"
     inkscape:cx="313.83007"
     inkscape:cy="389.60302"
     inkscape:document-units="px"
     inkscape:current-layer="layer1"
     showgrid="false"
     units="px"
     inkscape:window-width="1366"
     inkscape:window-height="715"
     inkscape:window-x="-8"
     inkscape:window-y="-8"
     inkscape:window-maximized="1" />
  <metadata
     id="metadata3481">
    <rdf:RDF>
      <cc:Work
         rdf:about="">
        <dc:format>image/svg+xml</dc:format>
        <dc:type
           rdf:resource="http://purl.org/dc/dcmitype/StillImage" />
        <dc:title></dc:title>
      </cc:Work>
    </rdf:RDF>
  </metadata>
  <g
     inkscape:label="Layer 1"
     inkscape:groupmode="layer"
     id="layer1"
     transform="translate(0,-947.36216)">
    <g
       id="g3603"
       transform="matrix(0.36378165,0,0,0.36378165,304.18705,979.98744)">
      <path
         id="path3598"
         d="m -661.0268,158.14782 c -4.89844,-4.13265 -9.04687,-7.90854 -9.21875,-8.39086 -0.17188,-0.48233 -0.73368,-0.87696 -1.24848,-0.87696 -1.49991,0 -9.24877,-6.69543 -8.72662,-7.54028 0.26093,-0.42222 -0.0195,-1.07294 -0.62321,-1.44604 -0.68552,-0.42368 -0.84649,-0.27201 -0.42871,0.40397 1.2822,2.07464 -0.48825,1.04998 -6.47476,-3.74731 -3.3148,-2.65632 -5.76543,-5.25275 -5.44584,-5.76986 0.33615,-0.54388 0.10777,-0.64767 -0.5418,-0.24621 -1.45156,0.89711 -7.8484,-3.9384 -7.0083,-5.29773 0.36836,-0.59601 0.19821,-0.75366 -0.40861,-0.37862 -1.37872,0.8521 -10.67679,-5.87079 -9.88699,-7.1487 0.36153,-0.58496 0.16803,-0.71813 -0.47027,-0.32364 -1.37611,0.85049 -9.659,-5.01844 -8.87435,-6.28802 0.32351,-0.52344 0.11887,-0.65737 -0.45887,-0.3003 -1.36629,0.84441 -22.81488,-13.447744 -22.0467,-14.690704 0.32985,-0.5337 0.12813,-0.66864 -0.45801,-0.30639 -0.57611,0.35606 -2.85614,-0.50961 -5.06673,-1.92371 -2.21059,-1.41409 -8.34199,-5.15734 -13.62532,-8.31832 -5.28334,-3.16098 -9.29115,-6.09464 -8.90625,-6.51925 0.3849,-0.4246 0.19757,-0.48404 -0.41628,-0.13209 -0.61386,0.35196 -8.20761,-3.31343 -16.875,-8.1453 -8.66739,-4.83188 -19.22465,-10.60067 -23.46057,-12.81954 -4.23592,-2.21889 -7.44027,-4.4573 -7.12077,-4.97425 0.32193,-0.5209 0.11317,-0.65085 -0.46829,-0.29149 -0.57705,0.35664 -3.06801,-0.40229 -5.53547,-1.68649 l -4.4863,-2.33493 8.90625,-0.17778 c 13.68761,-0.27323 21.89074,-0.66709 23.4375,-1.12533 0.77344,-0.22913 7.27164,-1.10623 14.44046,-1.94911 30.54718,-3.59157 61.97246,-13.78244 79.98294,-25.93755 2.28182,-1.53999 4.6458,-2.51522 5.2533,-2.1672 0.60751,0.34803 0.81873,0.31447 0.46938,-0.0745 -0.34936,-0.38905 0.76103,-1.93324 2.4675,-3.43156 2.98288,-2.61899 4.89852,-3.57599 3.88924,-1.94295 -0.26556,0.4297 0.14547,0.78126 0.91342,0.78126 0.94931,0 1.09009,-0.30618 0.43979,-0.95647 -0.65031,-0.65031 0.61511,-2.4654503 3.95312,-5.6704503 2.70028,-2.59267 5.22601,-4.62319 5.61273,-4.51227 0.38671,0.11093 0.59765,-0.32566 0.46875,-0.97018999 -0.12891,-0.64453 0.32432,-1.05595 1.00718,-0.91427 0.68286,0.14168 0.98991,-0.14957 0.68234,-0.64724001 -0.30757,-0.49766 0.23667,-1.66827 1.20943,-2.60135 0.97276,-0.93308 2.2689,-2.65755 2.88032,-3.83215 0.61142,-1.17459 1.50755,-1.89096 1.9914,-1.59193 0.48384,0.29904 0.66327,-0.0204 0.39872,-0.70978 -0.26455,-0.6894197 0.29126,-2.0824197 1.23516,-3.0955697 0.94388,-1.01315 1.78775,-2.16317 1.87527,-2.5556 0.0875,-0.39244 1.22402,-3.04166 2.52558,-5.88716 1.30155,-2.84555 2.36647,-5.7691 2.36647,-6.49682 0,-0.72773 0.35044,-1.53972 0.77874,-1.80443 1.21698,-0.75214 3.49277,-11.67194 4.56313,-21.895 l 0.51531,-4.92187 27.07141,0 27.07141,0 -0.007,8.20312 c -0.0101,11.68421 -3.95516,34.54327 -5.76818,33.42276 -0.42118,-0.26029 -0.53983,0.11552 -0.26368,0.83515 0.93706,2.44195 -7.71769,22.5003197 -9.31511,21.5887797 -0.57871,-0.33023 -0.75262,-0.26836 -0.38646,0.1375 1.44842,1.60546 -7.25809,14.8180803 -16.97186,25.7557103 -7.28638,8.20442 -21.40626,20.1602 -30.32648,25.67846 -5.95743,3.68542 -7.60083,5.31602 -5.35771,5.31602 0.53814,0 4.97514,-1.49694 9.86,-3.32653 4.88486,-1.8296 9.40159,-3.02758 10.03719,-2.6622 0.63559,0.36539 0.85055,0.32678 0.47767,-0.0858 -0.37286,-0.41257 3.93783,-3.32787 9.57932,-6.47843 16.28388,-9.09396 28.83423,-19.00115 39.32223,-31.04081 2.69503,-3.09375 5.25192,-5.625 5.68197,-5.625 0.43006,0 1.13349,-0.38405 1.56318,-0.85343 0.4539,-0.49584 0.29022,-0.57086 -0.39063,-0.17905 -1.911,1.09974 -1.36608,-0.10312 2.10938,-4.6562103 1.80469,-2.36428 3.28125,-4.675 3.28125,-5.13494 0,-0.45995 0.73828,-0.59878 1.64062,-0.30851 1.06842,0.34369 1.25236,0.24503 0.5274,-0.28288 -0.81632,-0.59444 -0.13067,-2.80581 2.57088,-8.29156 2.02626,-4.11451 4.00376,-7.9027897 4.39448,-8.4184197 0.3907,-0.51562 0.80146,-1.57031 0.9128,-2.34375 0.11134,-0.77344 1.28772,-5.20312 2.6142,-9.84375 1.32647,-4.64062 2.66984,-12.14317 2.98526,-16.67233 0.31543,-4.52916 0.91589,-8.44644 1.33436,-8.70506 0.41847,-0.25863 0.35509,-1.53745 -0.14082,-2.84183 -0.4955,-1.30438 -0.90126,-2.55507 -0.90126,-2.77931 0,-0.22425 12.71682,-0.40772 28.25961,-0.40772 l 28.25959,0 -0.54402,14.29687 c -0.80474,21.14808 -3.65109,34.5356597 -11.48901,54.03756 -3.18338,7.92069 -3.66389,8.63108 -4.79336,7.08644 -0.69042,-0.94421 -1.25531,-1.23913 -1.25531,-0.65539 0,0.58376 0.42188,1.32209 0.9375,1.64077 1.48326,0.91671 1.2416,1.51552 -4.38038,10.85408 -9.33579,15.50746 -24.64349,34.3911 -26.79878,33.05907 -0.54205,-0.33501 -0.72534,-0.18809 -0.40733,0.32646 1.33854,2.16581 -27.28179,26.00214 -36.1237,30.08548 -1.92029,0.88683 -3.50232,1.88369 -3.51562,2.21523 -0.0689,1.71685 3.32308,1.18279 12.64738,-1.9913 12.91702,-4.3971 21.51338,-8.30115 30.20075,-13.71575 3.73836,-2.33002 7.21815,-3.97613 7.73286,-3.65802 0.56184,0.34724 0.68775,-0.0682 0.31508,-1.03932 -0.47438,-1.2362 -0.25341,-1.47673 0.93699,-1.01993 0.85676,0.32877 1.45735,0.26155 1.33463,-0.14938 -0.12272,-0.41093 2.95691,-3.31112 6.84361,-6.44486 8.02287,-6.4686 18.4141,-17.12715 24.30717,-24.93247 2.1961,-2.90871 4.29709,-5.10056 4.66887,-4.87079 0.37178,0.22977 0.68066,-0.091 0.6864,-0.71287 0.006,-0.62184 1.80359,-3.87282 3.99523,-7.22438 14.69796,-22.4767903 23.47465,-51.28904 23.48881,-77.10938 l 0.006,-10.07812 27.5227,0 27.5227,0 0.6023,5.76252 c 1.44132,13.78984 0.33731,33.3054 -2.77657,49.0812297 -2.2006,11.14892 -6.12119,24.8437503 -7.11233,24.8437503 -0.4782,0 -0.63931,0.37238 -0.35803,0.8275 0.52999,0.85755 -2.60838,10.83279 -3.98437,12.6642 -0.42956,0.57176 -1.5401,3.14892 -2.46786,5.72705 -1.9798,5.50165 -8.53471,18.00135 -10.43821,19.90485 -0.72755,0.72756 -1.32283,1.77445 -1.32283,2.32643 0,2.57013 -14.70354,23.29739 -23.29547,32.83908 -1.73728,1.92933 -3.59981,3.235244 -4.13896,2.902024 -0.53915,-0.3332 -0.72036,-0.18529 -0.40269,0.32871 1.87227,3.0294 -38.54049,35.4264 -41.73156,33.45421 -0.60401,-0.3733 -0.76909,-0.21088 -0.39721,0.39082 1.57249,2.54435 -45.85155,22.84622 -49.81484,21.32537 -0.68978,-0.26469 -1.03785,-0.13128 -0.77348,0.29648 0.55982,0.90581 -12.91754,4.13435 -25.71229,6.15944 -11.15029,1.76481 -29.34858,3.34599 -37.95225,3.29752 l -6.5625,-0.0369 -8.90625,-7.5139 z"
         style="fill:#ff4111;fill-opacity:1"
         inkscape:connector-curvature="0" />
      <path
         id="path3596"
         d="m -673.2143,145.13 c 0,-0.51563 -0.44677,-0.9375 -0.99283,-0.9375 -0.54606,0 -0.7321,0.42187 -0.41342,0.9375 0.31868,0.51562 0.76545,0.9375 0.99283,0.9375 0.22738,0 0.41342,-0.42188 0.41342,-0.9375 z"
         style="fill:#000000"
         inkscape:connector-curvature="0" />
      <path
         id="path3594"
         d="m -754.1518,87.514986 c 0,-0.75076 -0.35844,-1.14348 -0.79654,-0.87272 -0.4381,0.27076 -0.55383,0.88501 -0.25717,1.36501 0.75808,1.22661 1.05371,1.08849 1.05371,-0.49229 z"
         style="fill:#000000"
         inkscape:connector-curvature="0" />
      <path
         id="path3592"
         d="m -686.81469,13.890726 c 0.32845,-0.53143 -0.0479,-0.68859 -0.88217,-0.36844 -1.62414,0.62324 -1.9213,1.29521 -0.57277,1.29521 0.48519,0 1.13992,-0.41705 1.45494,-0.92677 z"
         style="fill:#000000"
         inkscape:connector-curvature="0" />
      <path
         id="path3590"
         transform="translate(0,947.36216)"
         d="m -37.580078,-971.76562 c -17.732696,0.0836 -38.693722,0.88449 -47.783203,2.10742 -23.045019,3.10056 -53.489469,10.27205 -53.451169,12.59179 0.0538,3.25151 8.15886,32.40647 9.0957,32.71875 0.54097,0.18032 6.06874,-1.1505 12.28516,-2.95703 19.522379,-5.67332 25.782906,-6.56127 46.562496,-6.60547 20.50262,-0.0437 25.93168,0.83209 29.9375,4.83789 3.51282,3.51284 3.452401,8.08621 -0.224609,17.27344 l -0.986328,2.46289 -9.113281,-2.20312 c -29.507,-7.13342 -73.501128,-4.59429 -97.083988,5.60156 -21.14909,9.14364 -33.38171,21.45692 -41.05664,41.33008 -3.00948,7.79264 -3.27339,9.29335 -3.30859,18.78125 -0.0329,8.86488 0.24982,10.85245 2.01562,14.15234 5.42956,10.14672 18.66832,16.44785 38.25782,18.20899 19.55533,1.75807 42.24099,-1.32747 62.939449,-8.5586 6.11846,-2.13752 12.283212,-4.47646 13.701172,-5.19726 3.08062,-1.56597 3.163435,-0.94107 0.703125,5.30078 -1.03125,2.6163 -1.875,4.95267 -1.875,5.1914 0,0.23872 15.740676,0.4336 34.978516,0.4336 l 34.9785155,0 19.4863285,-51.32813 c 10.71794,-28.23046 20.340605,-54.68146 21.384765,-58.77929 6.68159,-26.22222 -8.315294,-40.70154 -46.271484,-44.67578 -5.054468,-0.52924 -14.532258,-0.73769 -25.171875,-0.6875 z m -49.646484,89.11718 c 13.677799,0.0254 32.761718,2.61474 32.761718,5.02539 0,1.66489 -6.443877,18.33766 -7.648437,19.78907 -1.33258,1.60566 -11.449835,4.55514 -21.771485,6.3457 -10.4354,1.81029 -24.110594,1.75947 -29.382814,-0.10742 -4.71425,-1.66933 -8.70438,-6.05544 -8.67578,-9.53711 0.0286,-3.48226 2.94173,-9.48442 6.17383,-12.72266 4.00687,-4.01448 11.85839,-7.26082 20.23828,-8.36719 2.279616,-0.30096 5.148272,-0.43163 8.304688,-0.42578 z"
         style="fill:#000000"
         inkscape:connector-curvature="0" />
      <path
         id="path3586"
         transform="translate(0,947.36216)"
         d="m 598.35938,-972.2207 c -10.40828,10e-4 -20.92485,0.37774 -26.57422,1.1289 -33.267,4.42328 -59.58527,15.06737 -79.86133,32.29883 -19.49316,16.56613 -33.59399,45.25148 -33.7168,68.5918 -0.0827,15.72734 3.44778,24.48425 14.17578,35.15625 11.99081,11.92824 28.99544,18.60331 54.8711,21.53711 10.44684,1.18447 41.24166,0.37409 52.5,-1.38086 60.11759,-9.37109 99.81279,-42.88158 107.96679,-91.14453 5.9166,-35.01993 -16.84854,-58.36863 -63.43554,-65.06446 -5.21755,-0.74994 -15.51751,-1.12424 -25.92578,-1.12304 z m -11.36133,42.61132 c 1.1706,0.006 2.3737,0.0307 3.61133,0.0723 9.50925,0.31937 11.50688,0.6849 16.12304,2.94336 7.389,3.61511 9.62613,7.42036 9.45313,16.08008 -0.2222,11.1344 -7.58684,28.34326 -16.42578,38.38476 -5.05894,5.74724 -13.19041,11.06767 -20.78125,13.59375 -11.83631,3.93845 -31.51861,3.93437 -39.66211,-0.008 -11.988,-5.8033 -12.81633,-19.01949 -2.52539,-40.25195 3.5011,-7.2234 5.66537,-10.25008 11.45312,-16.01563 10.91233,-10.87051 21.19479,-14.88719 38.75391,-14.79883 z"
         style="fill:#000000"
         inkscape:connector-curvature="0" />
      <path
         id="path3582"
         transform="translate(0,947.36216)"
         d="m 831.0957,-972.62305 c -5.21845,0.0138 -10.57211,0.22661 -16.02929,0.64649 -37.891,2.91534 -67.99448,13.93634 -90.64258,33.18359 -23.5375,20.00316 -38.35035,56.98186 -32.68945,81.60938 5.155,22.42615 27.95253,38.26463 61.45703,42.69726 4.125,0.54573 8.7656,1.17342 10.3125,1.39453 5.868,0.83876 39.76142,-0.36665 48.45312,-1.72265 33.1066,-5.16491 60.99009,-17.90942 79.77149,-36.46094 8.9379,-8.82845 14.66563,-16.99426 20.26953,-28.89844 12.4438,-26.43398 12.09788,-49.82004 -0.97852,-66.13281 -13.42819,-16.75146 -43.39465,-26.41288 -79.92383,-26.31641 z m -10.3789,43.00196 c 0.90208,0.007 1.81407,0.0291 2.73632,0.0644 9.10861,0.34864 11.26533,0.7527 15.79883,2.9707 3.5192,1.72178 5.95975,3.71265 7.40625,6.03906 4.4542,7.16342 1.64445,22.39551 -6.97265,37.79102 -6.719,12.00429 -15.28682,19.44092 -27.73243,24.07227 -5.3024,1.97317 -8.20006,2.37516 -18.91796,2.62109 -6.961,0.15973 -13.49995,0.0787 -14.53125,-0.17969 -15.4383,-3.86881 -19.76782,-14.15155 -13.57422,-32.24023 9.53734,-27.85441 27.82253,-41.34947 55.78711,-41.13867 z"
         style="fill:#000000"
         inkscape:connector-curvature="0" />
      <path
         id="path3578"
         d="m -428.28847,129.90623 c 5.77082,-15.26336 44.36362,-117.389954 49.86801,-131.9637343 l 7.61284,-20.1562497 36.99789,-0.24547 c 20.34884,-0.135 37.48111,-0.06 38.07171,0.1666 0.69222,0.26563 -2.52452,9.84669 -9.05163,26.9602797 -5.56901,14.6015103 -9.92883,26.8663803 -9.68848,27.2552703 0.56341,0.91162 52.97371,0.90156 54.28677,-0.0104 0.54543,-0.37882 4.29812,-9.54815 8.33931,-20.37627 4.04119,-10.82813029 8.5889,-22.95703 10.106,-26.95313 l 2.75838,-7.26562 37.99603,0 c 35.73381,0 37.96912,0.0977 37.54421,1.64062 -0.24849,0.90235 -10.36834,27.7968797 -22.48855,59.76563 -12.12022,31.96875 -24.90957,65.824224 -28.42079,75.234374 l -6.38405,17.10938 -38.32332,0 c -21.07782,0 -38.11973,-0.3294 -37.87091,-0.73201 0.54613,-0.88365 23.09575,-60.228674 23.09575,-60.782284 0,-0.21374 -12.48675,-0.27686 -27.74834,-0.14029 l -27.74833,0.24833 -11.42017,30.468754 -11.42016,30.46875 -38.27962,0.24498 c -30.49787,0.19518 -38.18873,0.005 -37.83255,-0.9375 z"
         style="fill:#000000"
         inkscape:connector-curvature="0" />
      <path
         id="path3576"
         d="M 11.397933,129.90623 C 19.531083,108.34107 58.212123,5.9593457 62.672193,-5.8075043 l 6.21854,-16.4062497 36.992437,-0.24547 c 20.3459,-0.135 37.49981,-0.0508 38.11978,0.18712 0.80766,0.30994 0.46163,2.0708 -1.22053,6.21056 -1.29122,3.17789 -2.17603,5.9497 -1.96622,6.1595697 0.20991,0.20987 5.58769,-2.1420197 11.95059,-5.2264197 17.60794,-8.53538 23.97844,-9.81263 49.17516,-9.8595 16.42069,-0.0305 22.24941,0.30643 28.59375,1.65309 14.46413,3.07016 23.95763,8.76412 28.4415,17.0585497 1.76569,3.26617 2.02191,5.20148 1.98591,15 -0.0497,13.4636203 0.66328,11.2095703 -24.60263,77.8125003 l -16.71515,44.062504 -38.14857,0.24489 c -20.98172,0.13469 -38.14856,-0.11298 -38.14856,-0.55039 0,-0.43741 7.407,-20.37574 16.45997,-44.307404 9.05306,-23.93165 17.03484,-45.9532 17.73731,-48.93677 2.08575,-8.8582 -0.81844,-14.67356 -8.355,-16.73009 -6.16191,-1.68141 -23.02622,-1.2838 -29.32181,0.69134 -6.49106,2.03646 -12.78356,7.81851 -16.2165,14.90092 -1.2496,2.57812 -9.90188,24.9375 -19.22719,49.6875 l -16.955247,45.000004 -38.25888,0.24498 c -30.48072,0.19518 -38.16823,0.005 -37.81293,-0.9375 z"
         style="fill:#000000"
         inkscape:connector-curvature="0" />
      <path
         id="path3574"
         d="m 238.0357,130.16471 c 0,-0.49654 0.88078,-3.13326 1.95722,-5.85938 1.07653,-2.72612 13.70269,-36.175334 28.05815,-74.331584 14.35547,-38.15625 26.38697,-70.11328 26.73676,-71.01563 0.59109,-1.52492 3.30646,-1.64062 38.50443,-1.64062 20.8276,0 37.86844,0.33832 37.86844,0.75182 0,0.41351 -3.38606,9.33214 -7.52456,19.8191897 -4.1385,10.48704 -7.32685,19.2650603 -7.08525,19.5066903 0.24169,0.24164 1.62384,-0.37897 3.07143,-1.37913 1.44769,-1.00017 16.39294,-10.1165003 33.2116,-20.2585303 l 30.57956,-18.4400397 45.59231,0 c 25.07588,0 45.58622,0.31641 45.57863,0.70312 -0.009,0.38672 -15.05784,9.35157 -33.44503,19.9218797 -58.08122,33.3893403 -67.32872,38.8825003 -67.07503,39.8437503 0.13603,0.51562 11.63212,21.48634 25.54687,46.60158 13.91466,25.115254 25.29947,45.892594 25.29947,46.171874 0,0.27929 -19.52344,0.5078 -43.38544,0.5078 l -43.38544,0 -14.24653,-29.16995 -14.24653,-29.169944 -3.07115,2.00686 c -1.6891,1.10378 -5.85094,3.75712 -9.24854,5.89632 l -6.17737,3.88944 -8.76328,23.273644 -8.76328,23.27363 -37.79372,0 c -23.60222,0 -37.79372,-0.339 -37.79372,-0.90279 z"
         style="fill:#000000"
         inkscape:connector-curvature="0" />
      <path
         id="path3570"
         d="m 901.07464,129.42687 c 1.1628,-4.28635 56.3095,-149.913464 57.1577,-150.937504 0.7467,-0.90168 9.5901,-1.17187 38.3556,-1.17187 20.56186,0 37.38456,0.31641 37.38386,0.70312 -9e-4,0.38672 -3.3871,9.30515 -7.5252,19.8187197 -4.1379,10.51357 -7.3602,19.2789503 -7.1605,19.4786103 0.1997,0.19967 15.293,-8.7129403 33.5407,-19.8058203 l 33.1776,-20.1688497 45.7031,-0.0129 c 25.1368,-0.007 45.694,0.30352 45.6827,0.69024 -0.011,0.38672 -7.9214,5.24338 -17.5781,10.79257 -60.2042,34.5961 -82.227,47.51229 -82.5225,48.39865 -0.1841,0.55245 2.2786,5.54832 5.4727,11.10193 35.7353,62.132394 46.0452,80.170444 46.5004,81.356874 0.4702,1.22509 -4.8109,1.39685 -42.9491,1.39685 l -43.4851,0 -3.9245,-7.73437 c -9.8431,-19.39864 -25.2657,-48.595764 -26.0716,-49.357104 -0.7601,-0.71818 -13.13896,6.37687 -17.63286,10.10642 -0.7028,0.58325 -5.1932,11.3935 -9.9788,24.022764 l -8.701,22.96229 -37.9451,0 c -35.6828,0 -37.9186,-0.0978 -37.5,-1.64063 z"
         style="fill:#000000"
         inkscape:connector-curvature="0" />
    </g>
  </g>
</svg>
