<?xml version="1.0" encoding="UTF-8"?>
<!-- Generator: Adobe Illustrator 12.0.0, SVG Export Plug-In . SVG Version: 6.00 Build 51448)  -->
<!DOCTYPE svg PUBLIC "-//W3C//DTD SVG 1.1//EN" "http://www.w3.org/Graphics/SVG/1.1/DTD/svg11.dtd" [
	<!ENTITY ns_svg "http://www.w3.org/2000/svg">
	<!ENTITY ns_xlink "http://www.w3.org/1999/xlink">
]>
<svg version="1.1" id="Layer_1" xmlns="http://www.w3.org/2000/svg" xmlns:xlink="http://www.w3.org/1999/xlink" width="174.596" height="52.951" viewBox="0 0 174.596 52.951" overflow="visible" enable-background="new 0 0 174.596 52.951" xml:space="preserve">
<g>
	<polygon fill-rule="evenodd" clip-rule="evenodd" fill="#0061A9" points="3.331,45.542 174.596,45.542 174.596,16.65 3.331,16.65    3.331,45.542  "/>
	<polygon fill-rule="evenodd" clip-rule="evenodd" fill="#FFE822" points="142.744,39.886 3.331,39.886 3.331,41.626    142.135,41.626 142.744,39.886  "/>
	<path fill-rule="evenodd" clip-rule="evenodd" fill="#FFFFFF" d="M54.937,23.352l-4.612,6.961c0,0,0.348-3.655,0.348-4.525   c0.087-0.696,0-2.437-1.654-2.437c-1.566,0-7.223,0-7.223,0l-4.699,12.879h5.657l3.394-9.312l-0.696,9.312h5.047l6.179-9.138   l-3.394,9.138h5.656l4.787-12.879H54.937L54.937,23.352z"/>
	<path fill-rule="evenodd" clip-rule="evenodd" fill="#FFFFFF" d="M85.743,35.97c-0.348,0.087-2.437,0.521-4.786,0.521   c-4.003,0.175-7.571-1.479-7.571-4.351c-0.087-5.135,5.047-7.919,8.876-8.616c1.653-0.348,4.96-0.783,8.18,0l-1.915,4.525   c-0.521-1.218-1.914-1.218-2.523-1.218c-1.306-0.087-2.524,0.349-3.307,0.696c-1.915,0.87-3.568,3.654-0.87,4.786   c1.479,0.609,3.394,0.087,5.396-0.174L85.743,35.97L85.743,35.97z"/>
	<polygon fill-rule="evenodd" clip-rule="evenodd" fill="#FFFFFF" points="143.702,36.231 137.522,36.231 142.222,23.352    148.488,23.352 143.702,36.231  "/>
	<polygon fill-rule="evenodd" clip-rule="evenodd" fill="#FFFFFF" points="68.773,36.231 62.595,36.231 67.294,23.352 73.56,23.352    68.773,36.231  "/>
	<polygon fill-rule="evenodd" clip-rule="evenodd" fill="#FFFFFF" points="102.452,23.352 100.799,27.964 97.578,27.964    99.319,23.352 93.401,23.352 88.615,36.231 94.532,36.231 96.186,31.879 99.319,31.879 97.753,36.231 103.67,36.231    108.456,23.352 102.452,23.352  "/>
	<polygon fill-rule="evenodd" clip-rule="evenodd" fill="#FFFFFF" points="131.083,31.966 134.216,23.352 128.124,23.352    123.425,36.231 135.608,36.231 137.175,31.966 131.083,31.966  "/>
	<path fill-rule="evenodd" clip-rule="evenodd" fill="#FFFFFF" d="M163.892,23.352l-3.308,8.876c0.087-0.87,0.262-4.438,0.349-6.44   c0.087-0.87-0.087-1.479-0.522-1.915c-0.522-0.522-1.131-0.522-1.131-0.522h-7.224l-4.786,12.879h5.309l3.307-9.138l-0.348,9.138   h8.789l4.787-12.879H163.892L163.892,23.352z"/>
	<polygon fill-rule="evenodd" clip-rule="evenodd" fill="#FFFFFF" points="114.374,32.75 114.896,31.358 121.685,31.358    122.815,28.138 116.027,28.138 116.55,26.746 123.686,26.746 124.904,23.352 111.938,23.352 107.151,36.231 120.379,36.231    121.598,32.75 114.374,32.75  "/>
	<path fill-rule="evenodd" clip-rule="evenodd" fill="#040506" d="M37.619,29.269c0.348-0.609-0.087-1.74-0.871-2.611   c-0.696-0.87-1.653-1.131-1.74-1.566c0.957-1.915-0.087-3.568-1.566-4.264c0.087-0.871-0.261-1.828-1.044-2.437   c0.348-0.783,0.783-2.958-0.87-4.264c0.696-2.698-2.088-4.264-3.568-4.351C27.263,9.253,26.306,8.905,25,8.818   c0.958-1.393,0.696-3.22-0.436-4.264c0.087-1.479-0.957-2.872-2.437-3.394c-0.522-1.218-3.307-1.044-3.568,0.087   c-1.653,0.609-2.611,2.35-2.437,4.003c-0.958,1.044-0.958,2.785,0,4.003c-0.871-0.087-2.089,0.174-2.872,0.522l0,0h-0.087   c-0.696-0.348-1.393-0.522-2.176-0.348c-0.174-0.174-0.696-0.348-1.044-0.435C9.684,8.557,9.335,8.209,8.813,7.948   C8.639,7.165,8.03,6.556,7.421,6.294c0.087-0.609-0.174-1.305-0.348-1.653C6.725,4.119,6.812,3.249,6.899,3.075   C7.334,2.64,6.986,2.205,6.812,2.03c-0.871-0.87-1.741-0.435-2.002,0C3.94,0.464,2.983,0.116,2.46,0.29   C1.677-0.319,0.546,0.116,0.546,0.812C0.024,1.16-0.324,1.334,0.459,2.727C0.285,5.598,0.633,6.469,2.548,8.035   C1.938,8.644,1.677,9.862,2.199,10.82c-0.174,1.393,0.609,2.785,1.567,3.481c0.261,2.001,2.175,3.133,3.481,3.394   c0.87,1.305,2.088,1.914,3.307,2.001c0.087,0.609,0.261,1.131,0.609,1.653c-0.261,1.131-0.261,2.176,0.087,3.133   c-0.87,0.957-1.218,2.437-0.783,3.916c-1.044,1.218-1.393,3.22-0.696,4.873c0,0-0.261,0.436-0.435,0.87   c-0.696,0.349-1.392,1.132-1.74,2.176c-0.348,0.783-0.174,1.827,0,2.698c-1.131,0.957-1.828,3.394,0.174,5.308   c-0.435,1.394-1.392,2.611-2.523,4.091c-0.783,1.044-0.958,1.566,0,2.785c0.696,0.957,2.001,1.74,3.133,1.74   c2.088,0.087,3.568-0.349,3.742-1.915c0.174-0.87-0.435-2.697-0.435-3.133c-0.087-0.435,0.087-1.131,0.522-2.263   c1.915-0.435,2.872-1.827,3.045-3.22c1.393-0.783,2.437-2.437,1.915-4.265c0.261-0.261,0.348-0.521,0.522-0.957   c0,0.783,0.522,1.306,0.783,1.828c-0.783,2.001,0.261,3.829,1.479,4.612c-2.089,3.046,0.174,4.525,0.783,5.134   c0.783,0.696,0.87,2.002,2.088,2.438c1.044,0.348,4.352,0,4.96-1.393c0.174-0.349,0.348-0.783,0.174-1.045   c0-1.044-0.609-1.74-1.741-2.437c-1.306-0.696-1.306-0.521-1.915-2.437c2.002-0.957,2.35-3.22,2.263-4.09   c1.393-1.741,1.306-3.221,0.522-4.178c0.261-0.783,0.174-1.393,0-2.001c1.218-1.045,1.74-2.611,1.305-4.265   c0.696-1.044,0.87-2.175,0.609-3.481c0.609,0.958,1.566,1.306,2.611,1.306c0,0,0.087,0.26,0.174,0.435   c-0.348,0.608-0.174,1.306,0.609,1.827c0.087,0.349,0.261,0.522,0.435,0.696c0,0.261,0.696,1.393,1.479,0.783   c0.087,0,0.958-0.609,0.958-0.609C36.052,30.922,37.792,30.4,37.619,29.269L37.619,29.269z"/>
	<path fill-rule="evenodd" clip-rule="evenodd" fill="#FFFFFF" d="M29.525,23.525c2.175-0.174,4.264-2.611,2.263-4.525   c-0.261,0.435-0.871,0.87-1.306,1.044c-0.087,0.957-0.696,1.74-1.044,2.176C29.438,22.568,29.525,23.438,29.525,23.525   L29.525,23.525z"/>
	<path fill-rule="evenodd" clip-rule="evenodd" fill="#FFFFFF" d="M33.093,21.698c-0.522,1.393-1.915,2.176-3.568,2.437   c-0.261,1.131,1.218,2.872,3.481,1.828C34.66,25.266,35.269,22.655,33.093,21.698L33.093,21.698z"/>
	<path fill-rule="evenodd" clip-rule="evenodd" fill="#FFFFFF" d="M32.484,27.876c-0.174,0.174-0.174,0.609,0.087,0.871   c0-0.088,0.174-0.609,0.261-0.783C32.745,27.79,32.571,27.79,32.484,27.876L32.484,27.876z"/>
	<path fill-rule="evenodd" clip-rule="evenodd" fill="#FFFFFF" d="M33.876,28.921c-0.087-0.262,0-0.609-0.435-0.697   c-0.435-0.174-0.435,1.219-0.174,1.132C33.441,29.182,33.615,29.007,33.876,28.921L33.876,28.921z"/>
	<path fill-rule="evenodd" clip-rule="evenodd" fill="#FFFFFF" d="M34.486,29.095c-0.609,0.174-1.044,0.609-0.783,0.957   c0.087,0.174,0.174,0.174,0.522-0.087c0.174-0.087,0.522-0.349,0.609-0.436C34.747,29.269,34.486,29.095,34.486,29.095   L34.486,29.095z"/>
	<path fill-rule="evenodd" clip-rule="evenodd" fill="#FFFFFF" d="M35.008,26.397c-0.174-0.087-0.522-0.348-0.696-0.609   c-0.435,0.435-1.392,0.958-1.828,1.044c0.087,0,0.174,0.435,0.261,0.608c0.174,0,0.348,0.175,0.522,0.349   c0.174-0.087,0.783,0,0.958,0.609c0.261,0.174,0.783,0.435,0.957,0.608c0.696,0.871,1.219,0.784,1.393,0.609   c0.609-0.435-0.261-0.869-0.696-1.479c-0.261-0.262-0.957-1.219-0.957-1.48c0-0.087,0.174,0,0.348,0.174   c0,0.087,0.957,1.218,1.479,1.653C36.313,27.006,35.008,26.397,35.008,26.397L35.008,26.397z"/>
	<path fill-rule="evenodd" clip-rule="evenodd" fill="#FFFFFF" d="M21.258,24.396c8.268-0.087,9.312-4.96,8.181-6.875   c-2.524,2.611-10.965,4.09-15.143,0.783c-0.783,0.87-1.828,1.131-2.698,1.305C11.859,22.046,16.297,24.483,21.258,24.396   L21.258,24.396z"/>
	<path fill-rule="evenodd" clip-rule="evenodd" fill="#FFFFFF" d="M15.688,14.04c0.174,1.653-0.522,3.133-0.871,3.655   c0.783,0.609,2.35,1.74,5.918,1.827c5.396,0.087,11.139-2.523,7.919-6.962C27.263,14.388,20.388,15.954,15.688,14.04L15.688,14.04z   "/>
	<path fill-rule="evenodd" clip-rule="evenodd" fill="#FFFFFF" d="M8.552,13.518c1.305-1.218,1.393-2.785,0.783-3.916   C9.162,9.427,8.987,9.167,8.727,8.992c-0.261,2.263-3.481,4.003-5.57,2.524C3.94,14.736,7.16,14.823,8.552,13.518L8.552,13.518z"/>
	<path fill-rule="evenodd" clip-rule="evenodd" fill="#FFFFFF" d="M11.163,15.693c1.915-2.175,0-5.482-0.87-5.656   c0.609,3.22-2.611,5.744-5.483,4.525C5.506,16.563,8.9,18.217,11.163,15.693L11.163,15.693z"/>
	<path fill-rule="evenodd" clip-rule="evenodd" fill="#FFFFFF" d="M8.552,17.695c1.653,1.74,6.092,1.653,6.353-2.437   c0.174-2.785-1.044-4.351-2.959-4.873C14.209,14.649,11.511,17.607,8.552,17.695L8.552,17.695z"/>
	<path fill-rule="evenodd" clip-rule="evenodd" fill="#FFFFFF" d="M12.033,22.046c-0.783,4.7,5.482,6.178,9.225,6.092   c6.353-0.262,7.745-3.307,7.397-5.135C24.652,26.136,16.124,25.788,12.033,22.046L12.033,22.046z"/>
	<path fill-rule="evenodd" clip-rule="evenodd" fill="#FFFFFF" d="M15.253,31.966c3.394,0.696,6.092-0.87,6.092-3.133   c-1.653,0-6.962-0.086-9.485-3.567C10.119,27.703,12.208,31.096,15.253,31.966L15.253,31.966z"/>
	<path fill-rule="evenodd" clip-rule="evenodd" fill="#FFFFFF" d="M19.865,32.054c-3.046,1.566-7.223,0.435-8.789-2.785   c-2.263,3.568,1.479,6.788,4.264,6.614C18.734,35.708,19.691,33.533,19.865,32.054L19.865,32.054z"/>
	<path fill-rule="evenodd" clip-rule="evenodd" fill="#FFFFFF" d="M10.467,33.968c-1.044,1.915,0.261,4.003,1.653,4.525   c2.959,1.131,4.96-0.783,4.787-2.176C14.557,36.84,12.12,36.144,10.467,33.968L10.467,33.968z"/>
	<path fill-rule="evenodd" clip-rule="evenodd" fill="#FFFFFF" d="M8.117,39.799c-1.393,1.131-0.435,4.177,1.653,4.873   c2.959,1.045,4.264-0.957,4.438-2.002C13.426,42.845,10.032,43.541,8.117,39.799L8.117,39.799z"/>
	<path fill-rule="evenodd" clip-rule="evenodd" fill="#FFFFFF" d="M11.946,39.016c-1.566-0.783-2.524-2.002-2.611-3.655   c-2.263,2.263-0.348,5.83,1.741,6.526c4.177,1.479,5.656-2.088,5.308-3.133C14.731,39.886,12.729,39.451,11.946,39.016   L11.946,39.016z"/>
	<path fill-rule="evenodd" clip-rule="evenodd" fill="#FFFFFF" d="M26.915,49.372l0.174,0.087c-0.348,0.696-2.872,1.306-3.917,0.87   c-1.218-0.608-0.958-1.305-1.741-2.001c-1.74-1.653-1.479-2.35-1.218-3.22c0.087-0.436,0.261-0.696,0.609-1.132   c1.218,0.436,1.74,0.348,2.785,0.087c0,0.087,0,0.349,0.087,0.436c-0.783,0.087-1.479,0.261-1.479,0.261l0.261,0.609   c0,0,0.609-0.174,1.393-0.261c0,0,0.087,0.435,0.174,0.609c-0.696,0-1.305,0.261-1.305,0.261l0.174,0.522   c0,0,0.958-0.262,1.653-0.175c0.696,0.609,3.481,1.306,2.089,2.785c-0.522,0.522-1.828,0.696-2.872,0.696v0.174   C23.956,50.242,25.87,50.329,26.915,49.372L26.915,49.372z"/>
	<path fill-rule="evenodd" clip-rule="evenodd" fill="#FFFFFF" d="M25.609,40.408c-0.696,0.522-1.74,0.958-2.958,0.871   c-1.479,0-2.524-0.609-3.394-1.566c-0.522,2.61,1.131,3.828,2.958,3.916C25.522,43.802,25.609,40.756,25.609,40.408L25.609,40.408z   "/>
	<path fill-rule="evenodd" clip-rule="evenodd" fill="#FFFFFF" d="M22.563,40.669c3.568,0.087,4.613-2.872,3.917-4.178   c-2.002,2.437-6.614,1.915-7.571-1.131C17.69,37.537,19.691,40.669,22.563,40.669L22.563,40.669z"/>
	<path fill-rule="evenodd" clip-rule="evenodd" fill="#FFFFFF" d="M23.085,37.45c1.74,0,3.655-1.219,3.22-3.395   c-2.002,1.306-4.526,1.219-6.266-0.087c-0.174,0.261-0.435,0.696-0.609,0.87C19.691,36.492,21.345,37.45,23.085,37.45L23.085,37.45   z"/>
	<path fill-rule="evenodd" clip-rule="evenodd" fill="#FFFFFF" d="M20.91,31.358c-0.087,0.087-0.174,0.174-0.261,0.174   c0,0.609-0.174,1.393-0.348,1.914c2.437,2.089,7.572,0.783,7.224-3.48C25.783,31.706,22.998,32.141,20.91,31.358L20.91,31.358z"/>
	<path fill-rule="evenodd" clip-rule="evenodd" fill="#FFFFFF" d="M22.041,28.833c0,0.783-0.261,1.479-0.696,2.089   c3.133,0.957,7.049-0.696,6.875-4.438C27.176,27.441,25.261,28.66,22.041,28.833L22.041,28.833z"/>
	<path fill-rule="evenodd" clip-rule="evenodd" fill="#FFFFFF" d="M6.29,11.168c2.35-1.044,2.176-3.481,0.783-4.09   C6.725,7.426,6.812,8.209,6.812,8.383c0,0.348-0.609,0.609-0.696,0.435C5.941,8.557,6.464,8.296,6.203,7.687   C6.029,7.165,6.638,6.904,6.638,6.034c0-0.522-0.435-1.306-0.435-1.479C5.941,4.032,5.941,3.075,6.29,2.64   c-0.261-0.261-0.609-0.522-0.87,0c-0.435,0.609-0.261,1.392,0,2.001c0,0.087-0.435,0-0.609,0.696L4.636,5.598H4.462   C4.375,5.076,4.549,4.815,4.723,4.467C4.636,4.38,4.462,3.945,4.462,3.162C4.114,2.117,3.331,1.16,2.809,1.073   c0.435,0.696,1.219,2.175,1.306,2.35C4.288,3.858,3.94,3.945,3.94,3.945c-0.609-1.218-1.218-2.35-1.741-2.872   c-0.348-0.261-0.696-0.435-0.87-0.174c0.174,0,0.348,0.174,0.522,0.348c0.522,0.696,1.654,2.959,1.654,2.959   S3.418,4.293,3.244,4.293c-0.174,0-0.348-0.348-0.609-0.957C2.286,2.813,1.764,1.943,1.503,1.682   C1.242,1.334,1.068,1.421,0.894,1.595c0.174,0.261,0.348,0.609,0.348,0.87c0.435-0.174,0.957,0.261,1.044,0.696   c0,0.348,0.174,1.479,0.436,1.828c-0.087,0-0.348,0.174-0.348,0.174C2.112,4.902,1.938,3.684,1.851,3.249   c0-0.174-0.087-0.348-0.348-0.435c-0.174,0-0.174,0.087-0.174,0.174c-0.174,2.437,0,3.046,2.176,4.699   C3.679,7.774,3.853,8.122,4.027,8.47c0.174,0.261,0.435,0.696,0.957,0.609l0.174,0.174c-0.435,0.435-1.131,0.174-1.305,0   C3.766,9.079,3.418,8.557,3.418,8.557C1.851,10.124,3.94,12.299,6.29,11.168L6.29,11.168z"/>
	<path fill-rule="evenodd" clip-rule="evenodd" fill="#FFFFFF" d="M8.727,44.846c-0.871,1.915-1.741,2.785-2.698,4.178   c-0.696,0.87-0.435,1.305,0,1.914c0.87,0.957,2.35,1.479,3.481,1.132v-0.087c-1.393,0.087-2.524-0.436-3.133-1.306l0.087-0.087   c1.566,1.218,3.655,0.87,4.438,0.435c0.261-0.087,0.348-0.348,0.348-0.608c-0.087-0.696-0.435-1.828-0.522-2.438   c-0.087-0.435,0.087-1.392,0.522-2.437C10.554,45.629,9.162,45.456,8.727,44.846L8.727,44.846z"/>
	<path fill-rule="evenodd" clip-rule="evenodd" fill="#FFFFFF" d="M29.003,11.777c1.131,0.783,1.306,2.35,1.306,2.959   c1.131-2.176-0.522-3.481-1.393-3.742C29.09,11.342,29.09,11.69,29.003,11.777L29.003,11.777z"/>
	<path fill-rule="evenodd" clip-rule="evenodd" fill="#FFFFFF" d="M30.657,18.913c2.175-1.218,0.783-3.829,0.435-4.003   c-0.087,0.261-0.348,0.958-1.131,1.828C30.396,17.259,30.657,18.042,30.657,18.913L30.657,18.913z"/>
	<path fill-rule="evenodd" clip-rule="evenodd" fill="#FFFFFF" d="M15.514,13.256c1.566,0.696,3.22,0.958,4.874,0.958   c4.525,0,7.658-1.306,7.919-2.611c0.174-1.131-1.915-1.828-4.09-2.001c-0.348,0.348-0.783,0.522-0.958,0.522   c-0.087,0-0.261-0.087-0.087-0.174c0.348-0.174,0.696-0.522,0.348-1.131c0.261,0,1.044-0.348,1.131-1.741   c0-1.131-0.522-1.827-1.044-2.175c0,0-0.174-0.174,0-0.174c0.174-1.392-0.783-2.523-2.437-2.872V1.682   c0.087,0,0.087-0.087,0.087-0.087c-0.087-0.348-1.305-0.522-1.828-0.087c-0.087,0.087,0.261,0.261,0.348,0.261   c0.174,0,0.261,0.174,0.087,0.174c-1.044-0.087-2.785,0.783-2.785,3.133c0.087,0,0.609-0.087,0.783-0.087   c0.174,0.087,0.087,0.261,0,0.261c-1.653,0.087-2.263,2.958-0.087,3.916c0,0,0.174,0.087,0,0.174   c-0.261,0.174-0.435,0.522-0.087,0.783c0.174,0,0.261,0.174,0.174,0.261c0,0.174-0.261,0.174-0.435,0   c-1.131-0.522-2.437-0.261-3.481,0.087C14.731,11.081,15.253,12.125,15.514,13.256L15.514,13.256z"/>
	<path fill-rule="evenodd" clip-rule="evenodd" fill="#040506" d="M4.201,5.946C4.114,6.034,3.853,5.772,3.592,5.598   C3.331,5.511,2.983,5.511,2.983,5.424c0,0,0.261-0.087,0.522-0.087c0.174,0,0.348,0.087,0.522,0.087   C4.114,5.598,4.288,5.859,4.201,5.946L4.201,5.946z"/>
	<path fill-rule="evenodd" clip-rule="evenodd" fill="#040506" d="M9.945,47.979c-0.522-0.174-1.306-0.261-1.741-0.261v-0.609   c0.522,0.087,1.306,0.174,1.915,0.349L9.945,47.979L9.945,47.979z"/>
	<path fill-rule="evenodd" clip-rule="evenodd" fill="#040506" d="M10.293,46.848C9.51,46.587,9.335,46.587,8.465,46.5v-0.522   c0.957,0,1.218,0,2.001,0.261L10.293,46.848L10.293,46.848z"/>
	<path fill-rule="evenodd" clip-rule="evenodd" fill="#040506" d="M22.65,7.165c-0.087,0-0.174,0-0.261,0.087   c-1.566-0.261-2.001,0.087-2.872,0.087c0-0.087,0-0.261-0.174-0.261c0,0.087-0.087,0.174-0.087,0.174   c-0.261,0.348-0.348,0.522-0.261,0.609s0.261-0.087,0.348-0.174c0.087,0,0.435,0,0.783,0.174c0.261,0.174,0.783,0.87,1.305,0.609   c0.435-0.174,0.783-0.87,1.044-0.87c0.174,0,0.348,0.087,0.348,0C22.911,7.6,22.737,7.078,22.65,7.165L22.65,7.165z M21.432,8.209   C20.91,8.383,20.648,7.774,20.213,7.6c0.435-0.087,1.218-0.174,1.915-0.087C21.954,7.6,21.519,8.122,21.432,8.209L21.432,8.209z"/>
	<path fill-rule="evenodd" clip-rule="evenodd" fill="#040506" d="M22.041,3.162c-0.522,0.087-0.87,0.783-0.87,1.653   c0.087,0.522,0.261,1.044,0.609,1.306c0.174,0.087,0.348,0.174,0.522,0.174c0.522-0.087,0.957-0.783,0.87-1.653   c0-0.522-0.261-1.044-0.522-1.218C22.476,3.249,22.302,3.162,22.041,3.162L22.041,3.162z"/>
	<path fill-rule="evenodd" clip-rule="evenodd" fill="#FFFFFF" d="M22.737,5.598L22.737,5.598L22.737,5.598   c0.087-0.174,0.174-0.522,0.174-0.957c-0.087-0.435-0.174-0.783-0.435-1.044C22.389,3.51,22.215,3.51,22.128,3.51   c-0.435,0-0.696,0.609-0.609,1.305c0,0.087,0,0.087,0,0.174l0,0l0,0c0.087-0.435,0.261-0.783,0.609-0.87   c0.348,0,0.609,0.435,0.609,0.957C22.737,5.25,22.737,5.424,22.737,5.598L22.737,5.598z"/>
	<path fill-rule="evenodd" clip-rule="evenodd" fill="#040506" d="M19.604,3.249c-0.522,0.087-0.958,0.783-0.958,1.654   c0,0.522,0.174,0.957,0.522,1.305c0.174,0.087,0.348,0.174,0.609,0.174c0.522,0,0.958-0.783,0.958-1.653   c0-0.522-0.174-0.957-0.522-1.218C20.04,3.336,19.865,3.249,19.604,3.249L19.604,3.249z"/>
	<path fill-rule="evenodd" clip-rule="evenodd" fill="#FFFFFF" d="M20.3,5.511L20.3,5.511L20.3,5.511   c0.087-0.261,0.174-0.522,0.174-0.783C20.388,4.293,20.3,3.945,20.04,3.684c-0.087-0.087-0.261-0.174-0.435-0.087   c-0.348,0-0.696,0.609-0.696,1.306c0,0.261,0.087,0.522,0.261,0.696c0,0.087,0,0.087,0,0.087V5.598   c-0.087-0.087-0.087-0.174-0.087-0.348c0-0.522,0.261-0.958,0.609-0.958S20.3,4.728,20.3,5.25C20.3,5.337,20.3,5.424,20.3,5.511   L20.3,5.511z"/>
</g>
</svg>