<?xml version="1.0" encoding="UTF-8" standalone="no"?>
<!-- Generator: Adobe Illustrator 19.0.0, SVG Export Plug-In . SVG Version: 6.00 Build 0)  -->

<svg
   xmlns:dc="http://purl.org/dc/elements/1.1/"
   xmlns:cc="http://creativecommons.org/ns#"
   xmlns:rdf="http://www.w3.org/1999/02/22-rdf-syntax-ns#"
   xmlns:svg="http://www.w3.org/2000/svg"
   xmlns="http://www.w3.org/2000/svg"
   xmlns:sodipodi="http://sodipodi.sourceforge.net/DTD/sodipodi-0.dtd"
   xmlns:inkscape="http://www.inkscape.org/namespaces/inkscape"
   version="1.1"
   id="svg2"
   sodipodi:docname="nokian.svg"
   inkscape:version="0.91pre3 r13670"
   x="0px"
   y="0px"
   viewBox="-922 373.4 735 105"
   style="enable-background:new -922 373.4 735 105;"
   xml:space="preserve"><metadata
     id="metadata3374"><rdf:RDF><cc:Work
         rdf:about=""><dc:format>image/svg+xml</dc:format><dc:type
           rdf:resource="http://purl.org/dc/dcmitype/StillImage" /></cc:Work></rdf:RDF></metadata><defs
     id="defs3372" /><style
     type="text/css"
     id="style3337">
	.st0{fill:#009E05;}
	.st1{fill:#0035FF;}
</style><sodipodi:namedview
     units="px"
     showgrid="false"
     inkscape:cy="120.79467"
     inkscape:cx="201.99525"
     inkscape:zoom="0.7"
     borderopacity="1.0"
     bordercolor="#666666"
     pagecolor="#ffffff"
     id="base"
     inkscape:window-maximized="1"
     inkscape:window-y="-8"
     inkscape:current-layer="svg2"
     inkscape:document-units="px"
     inkscape:pageopacity="0.0"
     inkscape:window-height="715"
     inkscape:window-x="-8"
     inkscape:window-width="1366"
     inkscape:pageshadow="2" /><g
     id="g3376"
     transform="matrix(0.39404985,0,0,0.39404985,-77.87123,349.0652)"><path
       id="path3340"
       d="m -1453.5,217.8 c -0.6,0.4 -3.8,2.5 -7.1,4.8 -9.9,6.9 -21,13.3 -30.3,17.6 -12.1,5.6 -21.2,8.9 -21.2,7.8 l -2.5,2.1 c 0.6,1 -10,10.8 -16,14.9 -10.1,6.8 -24.4,12.5 -33.8,13.5 -11.7,1.2 -16.4,1.3 -23.4,0.6 -12.9,-1.4 -26.5,-6.5 -37.7,-14.1 -6.1,-4.1 -16.7,-13.9 -16.1,-14.9 l -2,-2 c -1.3,2.1 -30.4,-11.2 -44,-20.1 -4.4,-2.9 -9.7,-6.5 -11.8,-8.2 l -3.8,-2.9 0,2.4 c 0,3.3 4.4,18.2 7.5,25.3 17.4,40.2 54.2,69.3 96.7,76.3 7.6,1.3 33.1,1.3 40.8,0 18.4,-3 41.2,-12.5 55.5,-23.1 19.5,-14.5 35.4,-35.6 44.1,-58.5 3.4,-8.9 6.6,-22.4 5.1,-21.5 z"
       class="st0"
       inkscape:connector-curvature="0"
       style="fill:#009e05" /><path
       id="path3342"
       d="m -1641.3,250 c 1.2,-0.1 5.7,0.9 10.9,2.3 33.6,9.1 72.5,9.1 105.2,-0.1 5.5,-1.6 10.3,-2.5 10.6,-2.1 l 2.5,-2.1 c 0,-0.5 1.5,-3.1 3.4,-5.7 3.5,-5 6.9,-11.2 8.1,-15 l 0.7,-2.3 -5.3,2.1 c -20.8,8.3 -38,12.4 -58.6,14.1 -29.1,2.4 -57.4,-2.2 -87,-14.1 -2.9,-1.2 -5.3,-1.6 -5.3,-1.1 0,2.5 9.7,19 12.1,20.5 0.5,0.3 0.7,1 0.4,1.5 l 2,2 c 0,0 0.1,0 0.3,0 z"
       class="st1"
       inkscape:connector-curvature="0"
       style="fill:#0035ff" /><path
       d="m -805.1,293.5 c -5.2,-0.7 -11.8,-1.8 -14.5,-2.5 -10.6,-2.6 -19.8,-5.5 -19.9,-6.3 -0.1,-0.4 3.5,-6.2 7.9,-12.7 5.5,-8.3 8.5,-11.8 9.5,-11.5 0.8,0.3 6.2,2.1 12,4.1 8.8,3 12.2,3.7 21.5,4.1 11.6,0.5 15.6,-0.5 16.3,-3.9 0.5,-2.8 -4.8,-4.6 -20.5,-7.2 -16.1,-2.6 -24.6,-5.3 -30.9,-9.8 -10.9,-7.8 -11.3,-21.9 -0.8,-32.1 5.4,-5.3 18.1,-11.3 29.4,-13.8 13.5,-3.1 38.5,-3 55.5,0.1 13.4,2.4 22.5,5 22.5,6.3 0,0.7 -12.5,19 -15,22 -0.4,0.4 -2,0.3 -3.6,-0.4 -9.5,-3.7 -17.4,-5.3 -27.1,-5.4 -8.5,-0.1 -10.5,0.2 -12.2,1.8 -4.5,4.1 0.6,6.3 22.3,9.6 18.3,2.8 28,6.5 34.2,13.2 6.7,7.3 5.5,20.5 -2.6,28.6 -7.5,7.5 -23.4,14.2 -38.4,16.2 -10.2,1.5 -33.6,1.2 -45.6,-0.4 l 0,0 z"
       class="st0"
       id="path3587"
       inkscape:connector-curvature="0"
       style="fill:#009e05" /><path
       d="m -1345.3,262.3 -0.3,-30.8 -15.3,-0.3 -15.3,-0.3 0,-14.5 0,-14.4 58.5,0 58.5,0 -0.3,14.3 -0.3,14.3 -15.2,0.3 -15.2,0.3 -0.3,30.7 -0.3,30.7 -27.2,0.3 -27.2,0.3 -0.1,-30.9 0,0 z"
       class="st0"
       id="path3585"
       inkscape:connector-curvature="0"
       style="fill:#009e05" /><path
       d="m -1207.1,272.8 0,-20.2 -25.2,-25.3 -25.2,-25.3 31.1,0 31.1,0 7.4,10.4 c 4.1,5.7 8,11.2 8.7,12.3 0.7,1 1.5,1.4 1.8,0.8 0.3,-0.6 4.1,-6.1 8.5,-12.3 l 8,-11.2 31.2,0 c 26.1,0 30.9,0.2 29.7,1.3 -6.8,6.2 -49.7,47.3 -50.7,48.5 -0.9,1.1 -1.3,7 -1.3,21.3 l 0,19.9 -27.5,0 -27.5,0 0,-20.2 z"
       class="st0"
       id="path3583"
       inkscape:connector-curvature="0"
       style="fill:#009e05" /><path
       d="m -1097.1,202 0,45.5 0,45.5 26.8,-0.3 26.8,-0.3 0.3,-14.3 c 0.2,-7.8 0.7,-14.3 1.2,-14.3 0.5,0 1.9,1.2 3,2.8 1.2,1.5 6.9,8 12.7,14.5 l 10.5,11.8 82.9,0 82.9,0 0,-12 0,-12 -24.8,-0.3 -24.8,-0.3 0,-5 0,-5 22.3,-0.3 22.3,-0.3 -0.3,-11.2 -0.3,-11.2 -22.3,-0.3 -22.3,-0.3 0,-4.5 0,-4.5 24.3,-0.3 24.3,-0.3 0.3,-11.8 0.3,-11.8 -51.5,0 -51.5,0 0,45.1 c 0,28.9 -0.4,45 -1,44.8 -1.5,-0.5 -39,-35 -39,-35.8 0,-0.4 1.7,-1 3.8,-1.3 6.9,-1 15,-4.7 19.1,-8.8 8.9,-8.9 7.2,-24.3 -3.5,-32.5 -2,-1.5 -6.8,-4.1 -10.7,-5.7 -12.2,-5 -21.4,-5.8 -68.8,-5.8 l -43,0.5 z m 54.5,22.5 8.3,0.2 c 6.1,0.1 9.1,0.7 11.5,2.1 6,3.5 6.3,10.9 0.5,13.9 -1.9,1 -6.7,1.9 -12,2.2 l -8.8,0.5 0.3,-9.4 0.2,-9.5 z"
       class="st0"
       id="path3581"
       inkscape:connector-curvature="0"
       style="fill:#009e05" /><path
       id="path3348"
       d="m -1660.5,217 c -3.2,0 -26.3,-15.1 -38.1,-24.9 -5.1,-4.3 -6.1,-4.7 -6.9,-3.4 -1.1,2 4.8,7.6 18.4,17.2 8.3,5.9 27,17 28.5,17 0.3,0 0.3,-1.1 -0.1,-2.5 -0.3,-1.1 -0.4,-1.8 -0.2,-2.1 l -1.1,-1.6 c -0.1,0.3 -0.3,0.3 -0.5,0.3 z"
       class="st0"
       inkscape:connector-curvature="0"
       style="fill:#009e05" /><path
       id="path3350"
       d="m -1494.5,201.3 c -0.2,-0.2 -4.6,1.7 -9.9,4.2 -12,5.6 -27,10.7 -40.7,13.7 -9.2,2 -13.2,2.3 -32.5,2.3 -19.2,0 -23.4,-0.3 -33,-2.3 -16.2,-3.4 -36.1,-10.4 -47.2,-16.6 l -4.3,-2.4 0.6,4.7 c 0.3,2.6 0.9,6.3 1.4,8.4 0.4,2.1 0.5,3.2 0.1,3.6 l 1.1,1.6 c 0.4,-0.6 2,0.1 6.6,2.2 19.8,8.8 45.1,14.6 67.8,15.7 l 0,0 c 10.8,0.5 37.4,-1.9 46.5,-4.2 14.6,-3.7 18.4,-5 39.9,-13.8 0.4,-0.1 0.6,-0.2 0.8,-0.1 l 1,-1.2 c 0,0 0,0 0,0 -0.2,-0.2 0.2,-3.8 0.9,-7.9 0.6,-4.3 1,-7.8 0.9,-7.9 z"
       class="st1"
       inkscape:connector-curvature="0"
       style="fill:#0035ff" /><path
       id="path3352"
       d="m -1460.9,194.8 c -13,10.5 -33.9,23.5 -35.5,22.2 l -1,1.2 c 0.3,0.2 0.3,0.8 -0.1,2.3 -0.4,1.5 -0.3,2.6 0.1,2.4 10.7,-4.8 26,-14.4 37.3,-23.4 7.3,-5.8 8.7,-7.2 9.2,-9.7 0.6,-3 -1.2,-2.1 -10,5 z"
       class="st0"
       inkscape:connector-curvature="0"
       style="fill:#009e05" /><path
       id="path3354"
       d="m -1494.5,187.3 c -0.4,-3.1 -0.9,-5.9 -1.1,-6.1 -0.2,-0.2 -2.2,0.5 -4.2,1.7 -12.9,7.7 -28.1,13.6 -45.7,17.9 -10.1,2.4 -12.8,2.7 -32,2.7 -19.7,0 -21.8,-0.1 -33.5,-2.8 -13.7,-3.2 -31.6,-10.1 -42.5,-16.3 -3.8,-2.2 -7.1,-4 -7.1,-3.9 -0.1,0.1 -0.4,2.9 -0.8,6.4 l -0.7,6.2 11.3,5.4 c 17.4,8.3 35.5,13.9 50.3,15.7 l 0,0 c 9.6,1.1 36.6,1.1 45.2,-0.1 16.7,-2.3 33.2,-7.4 50.2,-15.6 l 11.4,-5.5 -0.8,-5.7 z"
       class="st1"
       inkscape:connector-curvature="0"
       style="fill:#0035ff" /><path
       d="m -1672.3,193.2 c -15.1,-10.1 -31,-24.2 -30.2,-26.8 0.2,-0.8 0.6,-2.1 0.9,-3 0.4,-1.2 2.4,0.2 8.3,5.8 7.6,7.3 20.2,17.2 27.3,21.6 3.1,1.9 3.5,2.6 3.1,5.2 -0.2,1.7 -0.5,3 -0.6,3 0,0 -4,-2.6 -8.8,-5.8 z"
       class="st0"
       id="path3573"
       inkscape:connector-curvature="0"
       style="fill:#009e05" /><path
       d="m -1493,195.8 c 0,-3 0.8,-3.8 9.4,-9.6 5.2,-3.5 13.6,-10.3 18.8,-15.2 5.2,-4.9 9.7,-8.7 10.1,-8.3 0.3,0.3 0.6,1.9 0.6,3.4 0,2.1 -1.6,4.2 -6.8,9 -7.6,7 -17.9,15 -26.5,20.4 l -5.8,3.6 0.2,-3.3 z"
       class="st0"
       id="path3571"
       inkscape:connector-curvature="0"
       style="fill:#009e05" /><path
       d="m -1599.1,192.5 c -14.4,-2.1 -29.1,-6.8 -43.7,-14 -7.3,-3.6 -13.7,-7.1 -14.2,-7.8 -0.9,-1.1 0.1,-6.6 1.5,-8.4 0.1,-0.2 2.7,1.2 5.6,3.1 12.7,8.1 32.4,15.7 47.9,18.5 31.8,5.8 68.9,-1.4 95.7,-18.5 l 5.2,-3.3 1.5,3.6 c 1.1,2.7 1.2,4 0.4,5 -2.1,2.6 -27.4,14.2 -37.4,17.2 -19.1,5.8 -42.3,7.5 -62.5,4.6 l 0,0 z"
       class="st1"
       id="path3569"
       inkscape:connector-curvature="0"
       style="fill:#0035ff" /><path
       d="m -1670,173 c -9.4,-6.9 -24.7,-21.3 -25.6,-23.9 -0.3,-1 0.2,-3.4 1,-5.5 l 1.6,-3.7 9.4,9.5 c 5.1,5.2 13,12.2 17.5,15.5 4.5,3.3 7.7,6.3 7.1,6.7 -0.6,0.4 -1,1.6 -1.1,2.8 0,5.1 -1.4,4.9 -9.9,-1.4 l 0,0 z"
       class="st0"
       id="path3567"
       inkscape:connector-curvature="0"
       style="fill:#009e05" /><path
       d="m -1495.9,175.2 c -0.6,-2.1 -1.2,-4.1 -1.2,-4.5 0,-0.3 3.5,-3.2 7.8,-6.4 4.3,-3.2 11.9,-10 17,-15.1 l 9.3,-9.3 2,4.3 2,4.3 -9.3,9 c -8.6,8.3 -17.4,15.7 -23.8,19.8 l -2.6,1.7 -1.2,-3.8 0,0 z"
       class="st0"
       id="path3565"
       inkscape:connector-curvature="0"
       style="fill:#009e05" /><path
       d="m -1377.1,140 0,-34.1 44.3,0.3 c 43.7,0.3 44.3,0.3 49.3,2.6 5.7,2.6 9.6,6.1 12.8,11.2 2.1,3.3 2.2,4.8 2.5,28.8 l 0.3,25.3 -11.3,-0.3 -11.3,-0.3 -0.5,-20.1 c -0.4,-15.8 -0.8,-20.5 -2,-21.9 -3.4,-4 -6.8,-4.5 -34,-4.5 l -26,0 0,23.5 0,23.5 -12,0 -12,0 0,-34 -0.1,0 z"
       class="st0"
       id="path3563"
       inkscape:connector-curvature="0"
       style="fill:#009e05" /><path
       d="m -1171.6,106.2 c -5.3,0 -11.1,0 -17.3,0.1 l -41.7,0.4 -6.8,2.8 c -8.3,3.4 -16.8,10.9 -20.5,18 -3.8,7.2 -3.8,17.9 0,25.1 5.6,10.8 17.5,18.7 30.3,20.4 9.6,1.2 73,1.4 83.4,0.2 14.1,-1.6 25.8,-8.5 31.9,-18.9 2.4,-4.1 2.7,-5.6 2.7,-14.1 0,-8.6 -0.3,-10 -2.7,-14.2 -5.7,-9.7 -16.4,-16.5 -29.6,-19 -2.3,-0.5 -13.7,-0.8 -29.7,-0.8 z m 5,20.9 c 16.3,0 20.6,0.4 24.3,1.4 14.2,4.1 16.3,15.9 3.8,21.6 -3.8,1.7 -7.4,1.9 -46.6,1.9 l -42.5,0 -4.4,-2.4 c -2.6,-1.4 -5.3,-3.9 -6.5,-6 l -2.1,-3.6 2.1,-3.8 c 1.4,-2.4 3.9,-4.6 7,-6.3 l 4.8,-2.5 39.3,-0.3 c 8.6,0.1 15.4,0 20.8,0 z"
       class="st0"
       id="path3561"
       inkscape:connector-curvature="0"
       style="fill:#009e05" /><path
       d="m -1101.1,134 0,-40 11.5,0 11.5,0 0,40 0,40 -11.5,0 -11.5,0 0,-40 z"
       class="st0"
       id="path3557"
       inkscape:connector-curvature="0"
       style="fill:#009e05" /><path
       d="m -1057.4,155.4 c -10,-10.3 -18.2,-19 -18.2,-19.5 0,-0.5 4.1,-3.9 9,-7.6 4.9,-3.7 13.6,-10.3 19.2,-14.6 l 10.2,-7.7 16,0.3 16,0.3 -19,14.5 c -10.4,8 -18.8,14.8 -18.7,15.2 0.1,0.4 6.8,7.4 14.8,15.5 8,8.1 16.1,16.5 17.9,18.5 l 3.3,3.8 -16.2,0 -16.2,0 -18.1,-18.7 0,0 z"
       class="st0"
       id="path3555"
       inkscape:connector-curvature="0"
       style="fill:#009e05" /><path
       d="m -1001.1,140.1 0,-34 12,0 12,0 -0.3,33.8 -0.3,33.8 -11.8,0.3 -11.8,0.3 c 0.2,-0.2 0.2,-34.2 0.2,-34.2 z"
       class="st0"
       id="path3553"
       inkscape:connector-curvature="0"
       style="fill:#009e05" /><path
       d="m -936.9,173 c -18.8,-2 -34.2,-16.8 -34.2,-33 0,-15.5 14.3,-30 32.5,-33 3.4,-0.5 28.2,-1 56.3,-1 l 50.3,0 0,34 0,34 -12,0 -12,0 -0.3,-23.3 -0.3,-23.3 -40,0 -40,0 -5,2.5 c -3.5,1.7 -5.6,3.7 -7,6.3 -2,3.8 -2,3.8 0,7.4 1.2,2.3 3.7,4.6 6.4,6 4.4,2.3 4.7,2.3 40.3,2.3 19.8,0 35.8,0.4 35.8,0.9 0,0.5 -3.4,5.4 -7.6,11 l -7.6,10.1 -24.2,-0.1 c -13.2,0 -27.4,-0.4 -31.4,-0.8 l 0,0 z"
       class="st0"
       id="path3551"
       inkscape:connector-curvature="0"
       style="fill:#009e05" /><path
       d="m -822.1,140 0,-34 43.8,0.3 c 41.6,0.3 44,0.4 48.6,2.4 6.9,3 11.1,6.6 13.8,12.1 2.3,4.6 2.4,5.6 2.4,28.8 l 0,24 -11,0 -11,0 -0.3,-19.7 -0.3,-19.7 -3,-3 c -1.7,-1.7 -4.5,-3.3 -6.2,-3.6 -1.8,-0.3 -14.5,-0.4 -28.2,-0.3 l -25,0.3 -0.3,23.3 -0.3,23.3 -11.5,0 -11.5,0 c 0,-0.2 0,-34.2 0,-34.2 z"
       class="st0"
       id="path3549"
       inkscape:connector-curvature="0"
       style="fill:#009e05" /><path
       d="m -1601.6,170 c -10.7,-2.3 -23.1,-6.3 -30,-9.7 -9.1,-4.5 -16.5,-9.4 -16.5,-10.9 0,-2.7 2.9,-2.6 7.7,0.3 28.4,17.5 65.1,22.1 97.3,12.2 8.6,-2.6 21.1,-8.3 29.7,-13.5 3.1,-1.8 3.3,-1.8 5,-0.2 1.7,1.7 1.6,1.8 -0.1,3.1 -4.6,3.4 -20.2,11 -27.8,13.7 -20.8,7.2 -45.8,9.1 -65.3,5 l 0,0 z"
       class="st1"
       id="path3547"
       inkscape:connector-curvature="0"
       style="fill:#0035ff" /><path
       d="m -1662.3,156.1 c -6.4,-4.8 -21.1,-19.3 -24.3,-23.7 -1.4,-2 -1.3,-2.5 1.7,-6.8 1.8,-2.5 3.5,-4.6 3.8,-4.6 0.3,0 3.2,3.1 6.4,6.9 5,5.9 12.9,13.2 22.5,20.9 l 2.4,1.9 -3,5.2 -3,5.2 -6.5,-5 z"
       class="st0"
       id="path3545"
       inkscape:connector-curvature="0"
       style="fill:#009e05" /><path
       d="m -1503.5,155.1 -2.5,-4.9 3.7,-2.8 c 8.1,-6.1 15.4,-12.9 21.4,-20.1 l 6.2,-7.4 3.3,5.2 3.3,5.2 -2.2,3.1 c -5.4,7.7 -26.6,26.6 -29.7,26.6 -0.6,0 -2.2,-2.2 -3.5,-4.9 z"
       class="st0"
       id="path3543"
       inkscape:connector-curvature="0"
       style="fill:#009e05" /><path
       d="m -1654.2,139.1 c -7.5,-5.9 -15.2,-13.7 -20.2,-20.3 l -2.8,-3.7 3.7,-4.5 c 7.3,-8.9 26.2,-23.5 37.5,-29 20.2,-9.8 36.1,-13.5 58,-13.5 13.6,0 23.1,1.2 33.5,4.2 24.2,6.9 41.9,17.7 59.4,36.1 6.1,6.4 6.3,6.8 4.9,9 -3.1,4.6 -14.2,16 -21.4,21.9 l -7.4,6 -8.8,-8.8 c -10.1,-10.2 -20.3,-16.7 -33.8,-21.5 -8.9,-3.2 -9.2,-3.3 -26.5,-3.2 -17.2,0 -17.7,0.1 -26.5,3.3 -13.3,4.8 -23.6,11.3 -33.6,21.4 l -8.7,8.7 -7.3,-6.1 z"
       class="st0"
       id="path3539"
       inkscape:connector-curvature="0"
       style="fill:#009e05" /></g></svg>
