<?xml version="1.0" encoding="UTF-8" standalone="no"?>
<!-- Created with Inkscape (http://www.inkscape.org/) -->

<svg
   xmlns:dc="http://purl.org/dc/elements/1.1/"
   xmlns:cc="http://creativecommons.org/ns#"
   xmlns:rdf="http://www.w3.org/1999/02/22-rdf-syntax-ns#"
   xmlns:svg="http://www.w3.org/2000/svg"
   xmlns="http://www.w3.org/2000/svg"
   xmlns:sodipodi="http://sodipodi.sourceforge.net/DTD/sodipodi-0.dtd"
   xmlns:inkscape="http://www.inkscape.org/namespaces/inkscape"
   width="735"
   height="105"
   viewBox="0 0 735 105"
   id="svg2"
   version="1.1"
   inkscape:version="0.91pre3 r13670"
   sodipodi:docname="pirelli.svg">
  <defs
     id="defs4" />
  <sodipodi:namedview
     id="base"
     pagecolor="#ffffff"
     bordercolor="#666666"
     borderopacity="1.0"
     inkscape:pageopacity="0.0"
     inkscape:pageshadow="2"
     inkscape:zoom="0.35"
     inkscape:cx="467.84044"
     inkscape:cy="210.26353"
     inkscape:document-units="px"
     inkscape:current-layer="layer1"
     showgrid="false"
     units="px"
     inkscape:window-width="1366"
     inkscape:window-height="715"
     inkscape:window-x="-8"
     inkscape:window-y="-8"
     inkscape:window-maximized="1" />
  <metadata
     id="metadata7">
    <rdf:RDF>
      <cc:Work
         rdf:about="">
        <dc:format>image/svg+xml</dc:format>
        <dc:type
           rdf:resource="http://purl.org/dc/dcmitype/StillImage" />
        <dc:title></dc:title>
      </cc:Work>
    </rdf:RDF>
  </metadata>
  <g
     inkscape:label="Layer 1"
     inkscape:groupmode="layer"
     id="layer1"
     transform="translate(0,-947.36216)">
    <g
       id="g3655"
       transform="matrix(0.33333333,0,0,0.33333333,211.36664,940.95069)">
      <rect
         y="26.734415"
         x="-43.599911"
         height="300"
         width="1024"
         id="rect3653"
         style="opacity:1;fill:#fee100;fill-opacity:1;fill-rule:nonzero;stroke:none" />
      <path
         inkscape:connector-curvature="0"
         id="path3651"
         d="m 48.394777,176.73227 0,-90.000001 409.885793,0 409.88581,0 5.36419,2.78674 c 19.85421,10.31443 19.82634,48.399971 -0.0431,58.887091 l -4.40728,2.32617 -366.34271,0 -366.34272,0 0,58 0,57.99999 -44.000003,0 -43.99998,0 0,-89.99999 z M 767.6534,127.95119 c 4.72414,-4.14899 4.28038,-14.48499 -0.82794,-19.28405 l -2.59178,-2.43487 -314.39923,-0.25469 -314.39923,-0.25468 -0.56341,2.25468 c -0.30987,1.24008 -0.43147,6.52969 -0.27022,11.75469 l 0.29317,9.5 313.5,0.5 c 172.425,0.275 314.4,0.33427 315.5,0.13172 1.1,-0.20255 2.79139,-1.06332 3.75864,-1.9128 z m -595.25864,91.78108 0,-47 25,0 25,0 0,47 0,46.99999 -25,0 -25,0 0,-46.99999 z m 86,-0.0304 0,-47.03036 59.25,0.28036 c 58.56785,0.27713 59.29605,0.30526 63.25,2.44273 10.05447,5.43538 14.68089,14.05752 15.30797,28.52907 0.62737,14.47858 -2.90198,22.94629 -12.41003,29.77449 -2.49057,1.7886 -4.31401,3.8104 -4.05209,4.4929 0.26191,0.6826 5.01625,7.1738 10.56518,14.4249 5.54893,7.2512 10.08897,13.4002 10.08897,13.6646 0,0.2643 -13.82406,0.3616 -30.72012,0.2162 l -30.72013,-0.2645 -6.52987,-14.7478 -6.52988,-14.7479 -8.25,0 -8.25,0 0,15 0,15 -25.5,0 -25.5,0 0,-47.03035 z m 86.23422,-4.88761 c 3.11226,-2.78077 3.26578,-3.2547 3.26578,-10.08199 0,-6.83922 -0.1493,-7.29746 -3.29262,-10.10601 l -3.29262,-2.94196 -16.70738,0.27398 -16.70738,0.27399 -0.28452,11.43886 c -0.15648,6.29137 -0.0581,12.02887 0.21862,12.75 0.38691,1.00829 4.31798,1.31114 17.01874,1.31114 l 16.51561,0 3.26577,-2.91797 z m 84.76578,4.91801 0,-47 56.03621,0 56.03621,0 -0.28621,9.75 -0.28621,9.75 -30.25,0.26466 -30.25,0.26467 0,8.48533 0,8.48534 29.53621,0 29.53621,0 -0.28621,9.75 -0.28621,9.74999 -29.25,0.2651 -29.25,0.2651 0,8.4849 0,8.4849 32.5,0 32.5,0 0,10 0,10 -58,0 -58,0 0,-46.99999 z m 150,0 0,-47 25,0 25,0 0,36.9834 0,36.98339 26.25,0.2666 26.25,0.2666 0.28621,9.75 0.28621,9.75 -51.53621,0 -51.53621,0 0,-46.99999 z m 122,0 0,-47 25,0 25,0 0,37 0,36.99999 26,0 26,0 0,10 0,10 -51,0 -51,0 0,-46.99999 z m 121,0 0,-47 25,0 25,0 0,47 0,46.99999 -25,0 -25,0 0,-46.99999 z"
         style="fill:#ec1b24;fill-opacity:1" />
    </g>
  </g>
</svg>
