<?xml version="1.0" encoding="UTF-8" ?>
<!DOCTYPE svg PUBLIC "-//W3C//DTD SVG 1.1//EN" "http://www.w3.org/Graphics/SVG/1.1/DTD/svg11.dtd">
<svg width="2361pt" height="340pt" viewBox="0 0 2361 340" version="1.1" xmlns="http://www.w3.org/2000/svg">
<g id="#000000ff">
</g>
<g id="#1268b3ff">
<path fill="#1268b3" opacity="1.00" d=" M 33.30 33.30 C 120.88 33.32 208.46 33.36 296.04 33.28 C 296.15 34.84 296.33 36.40 296.39 37.97 C 296.31 122.31 296.39 206.66 296.35 291.00 C 296.31 296.24 296.67 301.49 296.04 306.71 C 208.46 306.65 120.88 306.67 33.30 306.70 C 33.34 215.57 33.34 124.43 33.30 33.30 M 39.30 39.30 C 39.28 54.22 39.41 69.14 39.25 84.06 C 43.81 70.00 52.26 56.96 64.58 48.51 C 69.87 44.51 76.01 41.93 82.04 39.28 C 67.80 39.36 53.55 39.30 39.30 39.30 M 103.34 40.44 C 78.76 53.76 64.47 83.08 68.37 110.66 C 70.72 132.01 83.39 152.09 102.08 162.82 C 104.77 164.19 107.54 165.39 110.07 167.05 C 85.60 170.82 60.00 157.82 47.08 136.95 C 43.63 131.70 41.58 125.73 39.25 119.94 C 39.40 180.19 39.31 240.44 39.30 300.70 C 67.20 300.68 95.11 300.65 123.02 300.71 C 126.97 300.86 130.26 298.43 133.37 296.32 C 149.68 285.08 160.66 266.49 162.75 246.79 C 166.10 221.59 154.71 194.78 133.65 180.33 C 129.71 177.41 125.12 175.60 120.94 173.08 C 143.97 169.94 168.09 180.65 181.48 199.58 C 193.49 215.85 197.25 237.92 191.21 257.23 C 186.76 272.42 176.43 285.73 162.98 294.04 C 158.85 296.66 154.30 298.51 149.93 300.70 C 156.29 300.76 162.66 300.58 169.02 300.74 C 172.15 300.72 175.53 301.00 178.34 299.33 C 194.78 289.93 206.99 273.45 211.06 254.94 C 217.78 228.53 207.76 198.56 185.90 182.11 C 181.39 178.31 175.88 176.12 170.89 173.08 C 196.88 169.50 223.87 183.86 235.99 207.00 C 243.57 220.64 245.61 237.05 242.32 252.24 C 238.63 269.85 227.19 285.62 211.70 294.75 C 207.65 297.15 203.22 298.79 198.94 300.73 C 205.30 300.75 211.66 300.57 218.02 300.74 C 220.92 300.70 224.02 300.99 226.68 299.60 C 247.87 287.87 261.66 264.23 261.70 240.03 C 262.76 217.43 251.92 194.70 233.67 181.33 C 229.45 177.89 224.26 176.07 219.79 173.04 C 247.85 169.09 276.90 186.44 287.42 212.61 C 288.51 215.42 289.53 218.26 290.69 221.05 C 290.62 160.48 290.61 99.90 290.70 39.32 C 264.80 39.29 238.90 39.38 213.00 39.29 C 209.21 39.39 205.09 38.68 201.61 40.59 C 186.03 49.27 174.32 64.39 169.35 81.47 C 166.15 91.31 166.21 101.85 167.06 112.05 C 169.68 130.31 179.41 147.64 194.34 158.66 C 198.52 162.09 203.68 163.93 208.08 167.01 C 186.07 170.15 163.04 159.94 149.55 142.46 C 136.74 126.28 132.34 103.89 138.10 84.07 C 142.34 68.80 152.40 55.25 165.78 46.75 C 170.48 43.50 175.85 41.51 181.07 39.29 C 174.37 39.25 167.68 39.43 160.98 39.26 C 158.08 39.30 154.98 38.99 152.31 40.35 C 130.77 51.87 117.08 75.77 116.64 100.03 C 115.83 122.93 126.77 146.16 145.59 159.41 C 149.62 162.43 154.33 164.31 158.49 167.13 C 146.41 169.09 133.92 166.28 122.94 161.16 C 100.71 150.63 85.39 126.70 85.88 102.00 C 85.44 79.32 98.28 57.22 117.66 45.64 C 121.89 43.04 126.58 41.36 131.06 39.28 C 124.70 39.25 118.34 39.42 111.98 39.25 C 109.08 39.28 106.00 39.06 103.34 40.44 M 285.01 269.01 C 277.36 283.96 263.52 294.92 247.95 300.77 C 262.20 300.55 276.45 300.75 290.70 300.68 C 290.62 285.78 290.63 270.88 290.68 255.99 C 288.71 260.29 287.24 264.83 285.01 269.01 Z" />
<path fill="#1268b3" opacity="1.00" d=" M 477.45 51.48 C 512.30 50.74 547.60 51.82 581.53 60.54 C 598.36 65.19 615.14 71.26 629.40 81.57 C 643.17 91.21 654.65 105.34 658.00 122.10 C 652.00 122.60 645.99 122.30 640.00 122.35 C 607.98 122.38 575.97 122.32 543.96 122.39 C 542.61 122.22 540.71 122.55 540.03 121.04 C 537.94 117.57 535.93 113.81 532.25 111.77 C 520.61 104.51 506.39 103.71 493.04 103.33 C 482.68 103.36 472.11 103.34 462.05 106.11 C 457.92 107.32 453.42 109.39 451.49 113.49 C 450.12 118.11 453.61 122.38 457.44 124.49 C 465.57 129.11 474.89 130.87 483.89 133.00 C 517.22 139.32 551.11 142.32 584.27 149.57 C 604.49 154.04 624.92 159.43 642.86 170.10 C 653.99 176.74 664.06 186.58 667.49 199.43 C 670.99 213.82 667.37 229.66 658.30 241.32 C 650.55 251.48 639.68 258.75 628.40 264.47 C 613.59 271.53 597.81 276.46 581.72 279.61 C 555.02 285.21 527.69 287.23 500.45 287.50 C 463.18 288.36 425.47 284.62 389.92 272.93 C 370.90 266.07 351.83 257.17 337.82 242.16 C 330.14 234.11 324.33 223.63 323.98 212.31 C 363.49 212.42 403.02 212.15 442.53 212.44 C 444.46 216.02 446.44 219.72 449.59 222.39 C 456.16 228.20 464.75 230.88 473.10 232.95 C 487.11 236.63 501.74 235.82 516.05 235.01 C 523.42 234.62 530.69 233.04 537.68 230.69 C 542.00 229.18 546.47 226.94 548.89 222.86 C 550.62 219.91 549.70 216.01 547.32 213.69 C 543.41 209.69 537.93 207.88 532.76 206.17 C 515.77 201.00 498.03 199.25 480.55 196.52 C 455.05 193.25 429.63 189.22 404.59 183.32 C 388.99 178.96 373.22 174.22 359.29 165.72 C 352.13 161.49 345.73 155.94 340.68 149.33 C 329.34 134.20 329.62 111.83 340.59 96.59 C 348.96 84.96 361.32 76.93 374.24 71.17 C 391.99 63.00 411.29 59.08 430.43 55.71 C 446.02 53.56 461.73 52.29 477.45 51.48 Z" />
<path fill="#1268b3" opacity="1.00" d=" M 724.30 51.30 C 763.43 51.33 802.56 51.34 841.69 51.30 C 841.66 83.87 841.68 116.43 841.68 149.00 C 841.72 160.35 841.47 171.71 842.13 183.05 C 842.58 191.32 842.65 200.03 846.47 207.59 C 851.27 216.37 860.00 222.16 868.92 226.19 C 876.79 229.96 885.60 230.96 894.20 231.68 C 905.48 232.41 916.91 232.18 928.04 230.01 C 933.33 228.99 938.18 226.48 942.80 223.79 C 947.67 220.85 952.39 217.28 955.39 212.36 C 958.10 207.93 958.93 202.69 959.65 197.63 C 960.63 189.80 961.25 181.90 961.33 174.00 C 961.30 133.10 961.35 92.20 961.30 51.30 C 1000.43 51.34 1039.57 51.33 1078.70 51.31 C 1078.66 94.54 1078.68 137.78 1078.69 181.02 C 1078.46 195.29 1077.90 209.67 1074.56 223.60 C 1072.12 233.21 1067.43 242.36 1060.43 249.44 C 1048.96 261.51 1033.45 268.67 1017.92 273.96 C 986.81 284.54 953.69 287.20 921.03 287.71 C 908.48 288.31 895.92 287.86 883.38 287.53 C 850.48 286.88 817.02 284.41 785.82 273.21 C 768.61 267.14 751.63 258.45 739.49 244.49 C 732.59 236.74 729.79 226.47 727.55 216.58 C 725.06 203.55 724.48 190.26 724.32 177.02 C 724.32 135.11 724.34 93.21 724.30 51.30 Z" />
<path fill="#1268b3" opacity="1.00" d=" M 1968.92 51.39 C 2007.64 51.17 2046.37 51.47 2085.09 51.24 C 2087.42 51.18 2089.92 51.61 2091.50 53.52 C 2114.83 78.18 2138.39 102.61 2161.74 127.26 C 2163.07 128.62 2164.51 129.89 2165.93 131.19 C 2170.24 127.43 2174.01 123.11 2177.96 118.97 C 2198.78 97.14 2219.66 75.36 2240.42 53.48 C 2241.78 51.84 2243.83 51.19 2245.94 51.27 C 2275.62 51.37 2305.31 51.30 2335.00 51.32 C 2343.66 51.25 2352.34 51.57 2361.00 51.02 L 2361.00 51.79 C 2337.81 74.67 2314.90 97.83 2291.83 120.83 C 2270.14 141.80 2249.15 163.47 2227.63 184.60 C 2223.53 188.24 2225.26 194.21 2224.97 199.01 C 2224.91 228.90 2225.24 258.81 2224.82 288.70 C 2184.88 288.66 2144.95 288.68 2105.02 288.69 C 2104.84 286.14 2104.60 283.58 2104.62 281.02 C 2104.77 251.33 2104.59 221.63 2104.73 191.94 C 2105.04 187.15 2100.45 184.48 2097.60 181.39 C 2063.66 147.34 2029.93 113.07 1995.93 79.06 C 1987.24 69.54 1977.52 60.99 1968.92 51.39 Z" />
<path fill="#1268b3" opacity="1.00" d=" M 1149.08 52.90 C 1183.71 52.33 1218.37 52.92 1253.01 52.61 C 1255.89 52.68 1259.26 52.28 1261.48 54.58 C 1302.83 92.53 1344.27 130.40 1385.64 168.33 C 1389.66 171.87 1393.31 175.82 1397.61 179.03 C 1397.78 143.35 1397.62 107.67 1397.68 72.00 C 1397.74 65.63 1397.42 59.26 1397.90 52.91 C 1429.59 52.33 1461.30 52.92 1493.00 52.62 C 1495.90 52.57 1498.81 52.76 1501.71 53.02 C 1501.64 131.25 1501.67 209.47 1501.70 287.70 C 1468.11 287.68 1434.52 287.63 1400.93 287.73 C 1396.35 288.22 1393.90 283.71 1390.80 281.21 C 1345.91 239.87 1301.19 198.34 1256.21 157.11 C 1256.57 197.40 1256.20 237.70 1256.40 278.00 C 1256.50 281.24 1256.36 284.49 1256.04 287.72 C 1220.41 287.66 1184.79 287.63 1149.17 287.73 C 1148.98 284.15 1148.91 280.57 1148.97 277.00 C 1149.08 202.30 1148.88 127.60 1149.08 52.90 Z" />
<path fill="#1268b3" opacity="1.00" d=" M 1577.91 52.91 C 1582.59 52.56 1587.29 52.62 1592.00 52.68 C 1622.68 52.66 1653.36 52.73 1684.04 52.63 C 1686.03 52.68 1688.28 52.68 1689.81 54.22 C 1734.33 95.04 1778.92 135.79 1823.41 176.64 C 1824.41 177.49 1825.51 178.24 1826.60 179.03 C 1826.70 138.69 1826.63 98.35 1826.62 58.01 C 1826.64 56.31 1826.76 54.61 1826.86 52.92 C 1853.90 52.35 1880.96 52.84 1908.00 52.68 C 1915.37 52.79 1922.76 52.38 1930.13 52.92 C 1930.43 57.27 1930.43 61.64 1930.36 66.00 C 1930.34 134.33 1930.37 202.66 1930.35 271.00 C 1930.27 276.57 1930.69 282.16 1930.04 287.71 C 1896.67 287.66 1863.30 287.64 1829.93 287.73 C 1828.09 287.73 1826.14 287.57 1824.84 286.14 C 1781.03 245.62 1737.16 205.17 1693.30 164.71 C 1690.81 162.26 1688.24 159.88 1685.36 157.91 C 1685.25 195.27 1685.36 232.64 1685.31 270.01 C 1685.25 275.91 1685.64 281.83 1684.98 287.72 C 1649.33 287.65 1613.67 287.65 1578.02 287.72 C 1577.51 283.16 1577.60 278.57 1577.68 274.00 C 1577.68 204.67 1577.68 135.33 1577.67 66.00 C 1577.58 61.63 1577.59 57.26 1577.91 52.91 Z" />
</g>
</svg>
